<svg width="696" height="143" viewBox="0 0 696 143" fill="none" xmlns="http://www.w3.org/2000/svg">
<g clip-path="url(#clip0_0_122)">
<path d="M3.83986 17.9919V14.7119H15.1039L14.6239 15.5439C14.6239 15.4586 14.6239 15.3786 14.6239 15.3039C14.6239 15.2186 14.6239 15.1386 14.6239 15.0639C14.6239 14.4559 14.4799 13.8746 14.1919 13.3199C13.9039 12.7546 13.4559 12.2959 12.8479 11.9439C12.2505 11.5813 11.4825 11.3999 10.5439 11.3999C9.60519 11.3999 8.79452 11.6026 8.11186 12.0079C7.43986 12.4026 6.92252 12.9733 6.55986 13.7199C6.20786 14.4666 6.03186 15.3679 6.03186 16.4239C6.03186 17.5119 6.20252 18.4453 6.54386 19.2239C6.89586 19.9919 7.41319 20.5839 8.09586 20.9999C8.78919 21.4159 9.64786 21.6239 10.6719 21.6239C11.3332 21.6239 11.9039 21.5653 12.3839 21.4479C12.8639 21.3199 13.2532 21.1599 13.5519 20.9679C13.8612 20.7759 14.0959 20.5626 14.2559 20.3279C14.4159 20.0933 14.5119 19.8639 14.5439 19.6399H19.4399C19.3759 20.3546 19.1305 21.0586 18.7039 21.7519C18.2772 22.4346 17.6852 23.0533 16.9279 23.6079C16.1705 24.1519 15.2479 24.5839 14.1599 24.9039C13.0825 25.2239 11.8505 25.3839 10.4639 25.3839C8.58652 25.3839 6.94919 25.0106 5.55186 24.2639C4.15452 23.5066 3.07186 22.4666 2.30386 21.1439C1.53586 19.8106 1.15186 18.2746 1.15186 16.5359C1.15186 14.7759 1.54119 13.2346 2.31986 11.9119C3.10919 10.5786 4.20252 9.54394 5.59986 8.80794C7.00786 8.06128 8.63452 7.68794 10.4799 7.68794C12.3679 7.68794 13.9999 8.06661 15.3759 8.82394C16.7519 9.57061 17.8132 10.6213 18.5599 11.9759C19.3065 13.3199 19.6799 14.8879 19.6799 16.6799C19.6799 16.9466 19.6745 17.2026 19.6639 17.4479C19.6532 17.6933 19.6372 17.8746 19.6159 17.9919H3.83986Z" fill="#191826"/>
<path d="M29.4392 25.3839C28.0205 25.3839 26.7138 25.0479 25.5192 24.3759C24.3245 23.6933 23.3645 22.6853 22.6392 21.3519C21.9138 20.0186 21.5512 18.3759 21.5512 16.4239C21.5512 14.5573 21.9192 12.9733 22.6552 11.6719C23.4018 10.3706 24.3725 9.38394 25.5672 8.71194C26.7725 8.02928 28.0632 7.68794 29.4392 7.68794C30.7832 7.68794 32.0098 8.02928 33.1192 8.71194C34.2392 9.39461 35.1352 10.3279 35.8072 11.5119C36.4792 12.6853 36.8152 14.0399 36.8152 15.5759C36.8152 15.6293 36.8152 15.6826 36.8152 15.7359C36.8152 15.7786 36.8152 15.8266 36.8152 15.8799L34.6712 15.9119C34.6712 15.8799 34.6712 15.8479 34.6712 15.8159C34.6712 15.7733 34.6712 15.7359 34.6712 15.7039C34.6712 14.9039 34.4792 14.2159 34.0952 13.6399C33.7112 13.0639 33.2152 12.6213 32.6072 12.3119C31.9992 11.9919 31.3645 11.8319 30.7032 11.8319C29.6045 11.8319 28.6552 12.1999 27.8552 12.9359C27.0552 13.6613 26.6552 14.8239 26.6552 16.4239C26.6552 18.0239 27.0552 19.2026 27.8552 19.9599C28.6658 20.7066 29.6152 21.0799 30.7032 21.0799C31.3858 21.0799 32.0312 20.9199 32.6392 20.5999C33.2472 20.2693 33.7378 19.8053 34.1112 19.2079C34.4845 18.6106 34.6712 17.9066 34.6712 17.0959L36.8152 17.2079C36.8152 18.7333 36.4845 20.1146 35.8232 21.3519C35.1725 22.5786 34.2872 23.5599 33.1672 24.2959C32.0578 25.0213 30.8152 25.3839 29.4392 25.3839ZM34.6712 31.9919V8.00794H39.6472V31.9919H34.6712Z" fill="#191826"/>
<path d="M49.0165 25.3199C47.8111 25.3199 46.8191 25.1279 46.0405 24.7439C45.2618 24.3493 44.6485 23.8213 44.2005 23.1599C43.7525 22.4986 43.4378 21.7626 43.2565 20.9519C43.0751 20.1413 42.9845 19.3199 42.9845 18.4879C42.9845 18.1039 42.9845 17.6986 42.9845 17.2719C42.9845 16.8453 42.9845 16.4079 42.9845 15.9599V8.00794H47.9445V15.1759C47.9445 15.5386 47.9445 15.8906 47.9445 16.2319C47.9445 16.5733 47.9445 16.8879 47.9445 17.1759C47.9445 17.8906 48.0245 18.5466 48.1845 19.1439C48.3445 19.7413 48.6378 20.2213 49.0645 20.5839C49.5018 20.9466 50.1205 21.1279 50.9205 21.1279C51.6991 21.1279 52.3605 20.9093 52.9045 20.4719C53.4485 20.0239 53.8645 19.4533 54.1525 18.7599C54.4405 18.0666 54.5845 17.3519 54.5845 16.6159L55.9765 17.7519C55.9765 18.8186 55.8111 19.8106 55.4805 20.7279C55.1605 21.6453 54.7018 22.4506 54.1045 23.1439C53.5071 23.8266 52.7765 24.3599 51.9125 24.7439C51.0591 25.1279 50.0938 25.3199 49.0165 25.3199ZM54.5845 24.9999V8.00794H59.5445V24.9999H54.5845Z" fill="#191826"/>
<path d="M68.5813 25.3519C67.3439 25.3519 66.2399 25.1546 65.2693 24.7599C64.3093 24.3653 63.5573 23.7946 63.0133 23.0479C62.4693 22.3013 62.1973 21.3946 62.1973 20.3279C62.1973 19.1226 62.5279 18.1413 63.1893 17.3839C63.8506 16.6266 64.7253 16.0506 65.8133 15.6559C66.9119 15.2506 68.1013 14.9839 69.3813 14.8559C71.2479 14.6746 72.5333 14.5093 73.2373 14.3599C73.9519 14.2106 74.3093 13.9493 74.3093 13.5759C74.3093 13.5653 74.3093 13.5546 74.3093 13.5439C74.3093 12.9146 74.0053 12.4186 73.3973 12.0559C72.7999 11.6933 71.9626 11.5119 70.8853 11.5119C69.7439 11.5119 68.8693 11.7199 68.2613 12.1359C67.6639 12.5413 67.3653 13.1653 67.3653 14.0079H62.4853C62.4853 12.6426 62.8533 11.4906 63.5893 10.5519C64.3359 9.61328 65.3439 8.90394 66.6133 8.42394C67.8826 7.93328 69.3173 7.68794 70.9173 7.68794C72.4106 7.68794 73.7919 7.91728 75.0613 8.37594C76.3306 8.82394 77.3493 9.50128 78.1173 10.4079C78.8959 11.3146 79.2853 12.4666 79.2853 13.8639C79.2853 14.0879 79.2853 14.3119 79.2853 14.5359C79.2853 14.7493 79.2853 14.9679 79.2853 15.1919V21.2079C79.2853 21.6453 79.2959 22.0666 79.3173 22.4719C79.3493 22.8666 79.4133 23.2293 79.5093 23.5599C79.6159 23.9333 79.7493 24.2426 79.9093 24.4879C80.0693 24.7333 80.2026 24.9039 80.3093 24.9999H75.4293C75.3546 24.9253 75.2373 24.7706 75.0773 24.5359C74.9279 24.3013 74.7999 24.0293 74.6933 23.7199C74.5653 23.3466 74.4693 22.9733 74.4053 22.5999C74.3519 22.2159 74.3253 21.7679 74.3253 21.2559L75.3493 21.9599C75.0506 22.6639 74.5653 23.2719 73.8933 23.7839C73.2319 24.2853 72.4426 24.6746 71.5253 24.9519C70.6186 25.2186 69.6373 25.3519 68.5813 25.3519ZM69.9093 21.6399C70.6879 21.6399 71.4133 21.5013 72.0853 21.2239C72.7679 20.9359 73.3226 20.4879 73.7493 19.8799C74.1759 19.2719 74.3893 18.4773 74.3893 17.4959V15.7839L75.6213 16.9839C74.9173 17.2399 74.1013 17.4533 73.1733 17.6239C72.2559 17.7839 71.3386 17.9119 70.4213 18.0079C69.3333 18.1146 68.5173 18.3013 67.9733 18.5679C67.4399 18.8239 67.1733 19.2613 67.1733 19.8799C67.1733 20.4666 67.4026 20.9093 67.8613 21.2079C68.3199 21.4959 69.0026 21.6399 69.9093 21.6399Z" fill="#191826"/>
<path d="M87.6066 -0.00805664V24.9999H82.7106V-0.00805664H87.6066Z" fill="#191826"/>
<path d="M90.9279 24.9999V8.00794H95.8399V24.9999H90.9279ZM93.3759 5.23994C92.6079 5.23994 91.9359 5.03728 91.3599 4.63194C90.7946 4.22661 90.5119 3.65594 90.5119 2.91994C90.5119 2.17328 90.7946 1.59728 91.3599 1.19194C91.9359 0.786611 92.6079 0.583944 93.3759 0.583944C94.1545 0.583944 94.8266 0.786611 95.3919 1.19194C95.9679 1.59728 96.2559 2.17328 96.2559 2.91994C96.2559 3.66661 95.9679 4.24261 95.3919 4.64794C94.8266 5.04261 94.1545 5.23994 93.3759 5.23994Z" fill="#191826"/>
<path d="M103.386 21.1119H112.602V24.9999H98.0744V21.3199L107.066 11.7039L107.178 11.8799H98.3944V8.00794H112.41V11.6879L103.498 21.2719L103.386 21.1119Z" fill="#191826"/>
<path d="M116.541 17.9919V14.7119H127.805L127.325 15.5439C127.325 15.4586 127.325 15.3786 127.325 15.3039C127.325 15.2186 127.325 15.1386 127.325 15.0639C127.325 14.4559 127.181 13.8746 126.893 13.3199C126.605 12.7546 126.157 12.2959 125.549 11.9439C124.952 11.5813 124.184 11.3999 123.245 11.3999C122.307 11.3999 121.496 11.6026 120.813 12.0079C120.141 12.4026 119.624 12.9733 119.261 13.7199C118.909 14.4666 118.733 15.3679 118.733 16.4239C118.733 17.5119 118.904 18.4453 119.245 19.2239C119.597 19.9919 120.115 20.5839 120.797 20.9999C121.491 21.4159 122.349 21.6239 123.373 21.6239C124.035 21.6239 124.605 21.5653 125.085 21.4479C125.565 21.3199 125.955 21.1599 126.253 20.9679C126.563 20.7759 126.797 20.5626 126.957 20.3279C127.117 20.0933 127.213 19.8639 127.245 19.6399H132.141C132.077 20.3546 131.832 21.0586 131.405 21.7519C130.979 22.4346 130.387 23.0533 129.629 23.6079C128.872 24.1519 127.949 24.5839 126.861 24.9039C125.784 25.2239 124.552 25.3839 123.165 25.3839C121.288 25.3839 119.651 25.0106 118.253 24.2639C116.856 23.5066 115.773 22.4666 115.005 21.1439C114.237 19.8106 113.853 18.2746 113.853 16.5359C113.853 14.7759 114.243 13.2346 115.021 11.9119C115.811 10.5786 116.904 9.54394 118.301 8.80794C119.709 8.06128 121.336 7.68794 123.181 7.68794C125.069 7.68794 126.701 8.06661 128.077 8.82394C129.453 9.57061 130.515 10.6213 131.261 11.9759C132.008 13.3199 132.381 14.8879 132.381 16.6799C132.381 16.9466 132.376 17.2026 132.365 17.4479C132.355 17.6933 132.339 17.8746 132.317 17.9919H116.541Z" fill="#191826"/>
<path d="M135.037 24.9999V8.00794H140.013V13.8639L138.989 13.2239C139.106 12.4239 139.319 11.6879 139.629 11.0159C139.938 10.3439 140.338 9.76261 140.829 9.27194C141.319 8.77061 141.901 8.38128 142.573 8.10394C143.255 7.82661 144.034 7.68794 144.909 7.68794C145.591 7.68794 146.125 7.74128 146.509 7.84794C146.903 7.94394 147.149 8.01861 147.245 8.07194L146.429 12.5199C146.333 12.4666 146.119 12.3813 145.789 12.2639C145.458 12.1466 145.031 12.0879 144.509 12.0879C143.655 12.0879 142.941 12.2319 142.365 12.5199C141.789 12.8079 141.325 13.1919 140.973 13.6719C140.631 14.1413 140.386 14.6639 140.237 15.2399C140.087 15.8159 140.013 16.3973 140.013 16.9839V24.9999H135.037Z" fill="#191826"/>
<path d="M8.48 83L7.36 79.704H2.848L1.728 83H0.368L4.272 71.832H5.984L9.888 83H8.48ZM5.136 73.08H5.056L3.168 78.52H7.024L5.136 73.08ZM12.97 83C12.522 83 12.1807 82.8773 11.946 82.632C11.722 82.376 11.61 82.056 11.61 81.672V71.16H12.89V81.88H14.106V83H12.97ZM17.2513 83C16.8033 83 16.4619 82.8773 16.2273 82.632C16.0033 82.376 15.8913 82.056 15.8913 81.672V71.16H17.1713V81.88H18.3873V83H17.2513ZM24.0319 83V74.744H25.3119V76.264H25.3919C25.5412 75.8693 25.8079 75.5173 26.1919 75.208C26.5759 74.8987 27.1039 74.744 27.7759 74.744H28.2719V76.024H27.5199C26.8265 76.024 26.2825 76.1573 25.8879 76.424C25.5039 76.68 25.3119 77.0053 25.3119 77.4V83H24.0319ZM30.5469 72.808C30.2695 72.808 30.0669 72.744 29.9389 72.616C29.8215 72.4773 29.7629 72.3013 29.7629 72.088V71.88C29.7629 71.6667 29.8215 71.496 29.9389 71.368C30.0669 71.2293 30.2695 71.16 30.5469 71.16C30.8242 71.16 31.0215 71.2293 31.1389 71.368C31.2669 71.496 31.3309 71.6667 31.3309 71.88V72.088C31.3309 72.3013 31.2669 72.4773 31.1389 72.616C31.0215 72.744 30.8242 72.808 30.5469 72.808ZM29.9069 74.744H31.1869V83H29.9069V74.744ZM40.8669 83.912C40.8669 84.7653 40.5309 85.3893 39.8589 85.784C39.1975 86.1893 38.2002 86.392 36.8669 86.392C35.5762 86.392 34.6482 86.216 34.0829 85.864C33.5175 85.512 33.2349 85.0107 33.2349 84.36C33.2349 83.912 33.3522 83.56 33.5869 83.304C33.8215 83.0587 34.1415 82.8773 34.5469 82.76V82.584C34.0562 82.3493 33.8109 81.9653 33.8109 81.432C33.8109 81.016 33.9442 80.7013 34.2109 80.488C34.4775 80.264 34.8189 80.0987 35.2349 79.992V79.928C34.7442 79.6933 34.3602 79.3573 34.0829 78.92C33.8162 78.4827 33.6829 77.976 33.6829 77.4C33.6829 76.984 33.7575 76.6 33.9069 76.248C34.0562 75.896 34.2642 75.5973 34.5309 75.352C34.8082 75.096 35.1335 74.8987 35.5069 74.76C35.8909 74.6213 36.3175 74.552 36.7869 74.552C37.3735 74.552 37.8962 74.6587 38.3549 74.872V74.728C38.3549 74.408 38.4295 74.1467 38.5789 73.944C38.7282 73.7307 38.9735 73.624 39.3149 73.624H40.5469V74.744H38.9789V75.272C39.2775 75.528 39.5069 75.8373 39.6669 76.2C39.8375 76.552 39.9229 76.952 39.9229 77.4C39.9229 77.816 39.8482 78.2 39.6989 78.552C39.5495 78.904 39.3362 79.208 39.0589 79.464C38.7922 79.7093 38.4669 79.9013 38.0829 80.04C37.6989 80.1787 37.2722 80.248 36.8029 80.248C36.5362 80.248 36.2695 80.2213 36.0029 80.168C35.7255 80.2427 35.4749 80.3547 35.2509 80.504C35.0269 80.6427 34.9149 80.84 34.9149 81.096C34.9149 81.3413 35.0322 81.5067 35.2669 81.592C35.5015 81.6773 35.8055 81.72 36.1789 81.72H37.9389C38.9629 81.72 39.7042 81.9173 40.1629 82.312C40.6322 82.696 40.8669 83.2293 40.8669 83.912ZM39.6669 84.008C39.6669 83.6773 39.5389 83.4107 39.2829 83.208C39.0375 83.016 38.5949 82.92 37.9549 82.92H35.2029C34.6909 83.1547 34.4349 83.528 34.4349 84.04C34.4349 84.4027 34.5682 84.712 34.8349 84.968C35.1122 85.224 35.5762 85.352 36.2269 85.352H37.4109C38.1255 85.352 38.6802 85.24 39.0749 85.016C39.4695 84.792 39.6669 84.456 39.6669 84.008ZM36.8029 79.224C37.3469 79.224 37.7789 79.096 38.0989 78.84C38.4189 78.5733 38.5789 78.168 38.5789 77.624V77.176C38.5789 76.632 38.4189 76.232 38.0989 75.976C37.7789 75.7093 37.3469 75.576 36.8029 75.576C36.2589 75.576 35.8269 75.7093 35.5069 75.976C35.1869 76.232 35.0269 76.632 35.0269 77.176V77.624C35.0269 78.168 35.1869 78.5733 35.5069 78.84C35.8269 79.096 36.2589 79.224 36.8029 79.224ZM42.36 71.16H43.64V76.088H43.704C43.9067 75.6187 44.1893 75.2453 44.552 74.968C44.9253 74.6907 45.4213 74.552 46.04 74.552C46.8933 74.552 47.5653 74.8293 48.056 75.384C48.5573 75.928 48.808 76.7013 48.808 77.704V83H47.528V77.928C47.528 76.4453 46.904 75.704 45.656 75.704C45.4 75.704 45.1493 75.736 44.904 75.8C44.6693 75.864 44.456 75.96 44.264 76.088C44.072 76.216 43.9173 76.3813 43.8 76.584C43.6933 76.776 43.64 77.0053 43.64 77.272V83H42.36V71.16ZM53.2778 83C52.8298 83 52.4884 82.8773 52.2538 82.632C52.0298 82.376 51.9178 82.0453 51.9178 81.64V75.864H50.5578V74.744H51.3258C51.6031 74.744 51.7898 74.6907 51.8858 74.584C51.9924 74.4667 52.0458 74.2693 52.0458 73.992V72.456H53.1978V74.744H55.0058V75.864H53.1978V81.88H54.8778V83H53.2778ZM59.5431 83.192C58.7751 83.192 58.1298 83.048 57.6071 82.76C57.0951 82.4613 56.6525 82.0667 56.2791 81.576L57.1911 80.84C57.5111 81.2453 57.8685 81.56 58.2631 81.784C58.6578 81.9973 59.1165 82.104 59.6391 82.104C60.1831 82.104 60.6045 81.9867 60.9031 81.752C61.2125 81.5173 61.3671 81.1867 61.3671 80.76C61.3671 80.44 61.2605 80.168 61.0471 79.944C60.8445 79.7093 60.4711 79.5493 59.9271 79.464L59.2711 79.368C58.8871 79.3147 58.5351 79.2347 58.2151 79.128C57.8951 79.0107 57.6125 78.8613 57.3671 78.68C57.1325 78.488 56.9458 78.2533 56.8071 77.976C56.6791 77.6987 56.6151 77.368 56.6151 76.984C56.6151 76.5787 56.6898 76.2267 56.8391 75.928C56.9885 75.6187 57.1911 75.3627 57.4471 75.16C57.7138 74.9573 58.0285 74.808 58.3911 74.712C58.7538 74.6053 59.1431 74.552 59.5591 74.552C60.2311 74.552 60.7911 74.6693 61.2391 74.904C61.6978 75.1387 62.0978 75.464 62.4391 75.88L61.5911 76.648C61.4098 76.392 61.1431 76.1627 60.7911 75.96C60.4391 75.7467 59.9965 75.64 59.4631 75.64C58.9298 75.64 58.5245 75.7573 58.2471 75.992C57.9805 76.216 57.8471 76.5253 57.8471 76.92C57.8471 77.3253 57.9805 77.6187 58.2471 77.8C58.5245 77.9813 58.9191 78.1147 59.4311 78.2L60.0711 78.296C60.9885 78.4347 61.6391 78.7013 62.0231 79.096C62.4071 79.48 62.5991 79.9867 62.5991 80.616C62.5991 81.416 62.3271 82.0453 61.7831 82.504C61.2391 82.9627 60.4925 83.192 59.5431 83.192ZM68.6413 83V74.744H69.9213V76.264H70.0013C70.1506 75.8693 70.4173 75.5173 70.8013 75.208C71.1853 74.8987 71.7133 74.744 72.3853 74.744H72.8813V76.024H72.1293C71.4359 76.024 70.8919 76.1573 70.4973 76.424C70.1133 76.68 69.9213 77.0053 69.9213 77.4V83H68.6413ZM77.5421 83.192C76.9768 83.192 76.4648 83.0907 76.0061 82.888C75.5581 82.6853 75.1688 82.3973 74.8381 82.024C74.5181 81.64 74.2675 81.1867 74.0861 80.664C73.9155 80.1307 73.8301 79.5333 73.8301 78.872C73.8301 78.2213 73.9155 77.6293 74.0861 77.096C74.2675 76.5627 74.5181 76.1093 74.8381 75.736C75.1688 75.352 75.5581 75.0587 76.0061 74.856C76.4648 74.6533 76.9768 74.552 77.5421 74.552C78.0968 74.552 78.5928 74.6533 79.0301 74.856C79.4675 75.0587 79.8408 75.3413 80.1501 75.704C80.4595 76.056 80.6941 76.4773 80.8541 76.968C81.0248 77.4587 81.1101 77.9973 81.1101 78.584V79.192H75.1741V79.576C75.1741 79.928 75.2275 80.2587 75.3341 80.568C75.4515 80.8667 75.6115 81.128 75.8141 81.352C76.0275 81.576 76.2835 81.752 76.5821 81.88C76.8915 82.008 77.2381 82.072 77.6221 82.072C78.1448 82.072 78.5981 81.9493 78.9821 81.704C79.3768 81.4587 79.6808 81.1067 79.8941 80.648L80.8061 81.304C80.5395 81.8693 80.1235 82.328 79.5581 82.68C78.9928 83.0213 78.3208 83.192 77.5421 83.192ZM77.5421 75.624C77.1901 75.624 76.8701 75.688 76.5821 75.816C76.2941 75.9333 76.0435 76.104 75.8301 76.328C75.6275 76.552 75.4675 76.8187 75.3501 77.128C75.2328 77.4267 75.1741 77.7573 75.1741 78.12V78.232H79.7341V78.056C79.7341 77.32 79.5315 76.7333 79.1261 76.296C78.7315 75.848 78.2035 75.624 77.5421 75.624ZM85.6994 83.192C84.9314 83.192 84.286 83.048 83.7634 82.76C83.2514 82.4613 82.8087 82.0667 82.4354 81.576L83.3474 80.84C83.6674 81.2453 84.0247 81.56 84.4194 81.784C84.814 81.9973 85.2727 82.104 85.7954 82.104C86.3394 82.104 86.7607 81.9867 87.0594 81.752C87.3687 81.5173 87.5234 81.1867 87.5234 80.76C87.5234 80.44 87.4167 80.168 87.2034 79.944C87.0007 79.7093 86.6274 79.5493 86.0834 79.464L85.4274 79.368C85.0434 79.3147 84.6914 79.2347 84.3714 79.128C84.0514 79.0107 83.7687 78.8613 83.5234 78.68C83.2887 78.488 83.102 78.2533 82.9634 77.976C82.8354 77.6987 82.7714 77.368 82.7714 76.984C82.7714 76.5787 82.846 76.2267 82.9954 75.928C83.1447 75.6187 83.3474 75.3627 83.6034 75.16C83.87 74.9573 84.1847 74.808 84.5474 74.712C84.91 74.6053 85.2994 74.552 85.7154 74.552C86.3874 74.552 86.9474 74.6693 87.3954 74.904C87.854 75.1387 88.254 75.464 88.5954 75.88L87.7474 76.648C87.566 76.392 87.2994 76.1627 86.9474 75.96C86.5954 75.7467 86.1527 75.64 85.6194 75.64C85.086 75.64 84.6807 75.7573 84.4034 75.992C84.1367 76.216 84.0034 76.5253 84.0034 76.92C84.0034 77.3253 84.1367 77.6187 84.4034 77.8C84.6807 77.9813 85.0754 78.1147 85.5874 78.2L86.2274 78.296C87.1447 78.4347 87.7954 78.7013 88.1794 79.096C88.5634 79.48 88.7554 79.9867 88.7554 80.616C88.7554 81.416 88.4834 82.0453 87.9394 82.504C87.3954 82.9627 86.6487 83.192 85.6994 83.192ZM94.1203 83.192C93.5549 83.192 93.0429 83.0907 92.5843 82.888C92.1363 82.6853 91.7469 82.3973 91.4163 82.024C91.0963 81.64 90.8456 81.1867 90.6643 80.664C90.4936 80.1307 90.4083 79.5333 90.4083 78.872C90.4083 78.2213 90.4936 77.6293 90.6643 77.096C90.8456 76.5627 91.0963 76.1093 91.4163 75.736C91.7469 75.352 92.1363 75.0587 92.5843 74.856C93.0429 74.6533 93.5549 74.552 94.1203 74.552C94.6749 74.552 95.1709 74.6533 95.6083 74.856C96.0456 75.0587 96.4189 75.3413 96.7283 75.704C97.0376 76.056 97.2723 76.4773 97.4323 76.968C97.6029 77.4587 97.6883 77.9973 97.6883 78.584V79.192H91.7523V79.576C91.7523 79.928 91.8056 80.2587 91.9123 80.568C92.0296 80.8667 92.1896 81.128 92.3923 81.352C92.6056 81.576 92.8616 81.752 93.1603 81.88C93.4696 82.008 93.8163 82.072 94.2003 82.072C94.7229 82.072 95.1763 81.9493 95.5603 81.704C95.9549 81.4587 96.2589 81.1067 96.4723 80.648L97.3843 81.304C97.1176 81.8693 96.7016 82.328 96.1363 82.68C95.5709 83.0213 94.8989 83.192 94.1203 83.192ZM94.1203 75.624C93.7683 75.624 93.4483 75.688 93.1603 75.816C92.8723 75.9333 92.6216 76.104 92.4083 76.328C92.2056 76.552 92.0456 76.8187 91.9283 77.128C91.8109 77.4267 91.7523 77.7573 91.7523 78.12V78.232H96.3123V78.056C96.3123 77.32 96.1096 76.7333 95.7043 76.296C95.3096 75.848 94.7816 75.624 94.1203 75.624ZM99.7975 83V74.744H101.078V76.264H101.158C101.307 75.8693 101.574 75.5173 101.958 75.208C102.342 74.8987 102.87 74.744 103.542 74.744H104.038V76.024H103.286C102.592 76.024 102.048 76.1573 101.654 76.424C101.27 76.68 101.078 77.0053 101.078 77.4V83H99.7975ZM107.653 83L104.757 74.744H106.037L107.477 78.84L108.373 81.656H108.453L109.349 78.84L110.821 74.744H112.053L109.141 83H107.653ZM116.683 83.192C116.117 83.192 115.605 83.0907 115.147 82.888C114.699 82.6853 114.309 82.3973 113.979 82.024C113.659 81.64 113.408 81.1867 113.227 80.664C113.056 80.1307 112.971 79.5333 112.971 78.872C112.971 78.2213 113.056 77.6293 113.227 77.096C113.408 76.5627 113.659 76.1093 113.979 75.736C114.309 75.352 114.699 75.0587 115.147 74.856C115.605 74.6533 116.117 74.552 116.683 74.552C117.237 74.552 117.733 74.6533 118.171 74.856C118.608 75.0587 118.981 75.3413 119.291 75.704C119.6 76.056 119.835 76.4773 119.995 76.968C120.165 77.4587 120.251 77.9973 120.251 78.584V79.192H114.315V79.576C114.315 79.928 114.368 80.2587 114.475 80.568C114.592 80.8667 114.752 81.128 114.955 81.352C115.168 81.576 115.424 81.752 115.723 81.88C116.032 82.008 116.379 82.072 116.763 82.072C117.285 82.072 117.739 81.9493 118.123 81.704C118.517 81.4587 118.821 81.1067 119.035 80.648L119.947 81.304C119.68 81.8693 119.264 82.328 118.699 82.68C118.133 83.0213 117.461 83.192 116.683 83.192ZM116.683 75.624C116.331 75.624 116.011 75.688 115.723 75.816C115.435 75.9333 115.184 76.104 114.971 76.328C114.768 76.552 114.608 76.8187 114.491 77.128C114.373 77.4267 114.315 77.7573 114.315 78.12V78.232H118.875V78.056C118.875 77.32 118.672 76.7333 118.267 76.296C117.872 75.848 117.344 75.624 116.683 75.624ZM127.64 81.656H127.576C127.075 82.68 126.269 83.192 125.16 83.192C124.648 83.192 124.184 83.0907 123.768 82.888C123.352 82.6853 122.995 82.3973 122.696 82.024C122.408 81.6507 122.184 81.1973 122.024 80.664C121.875 80.1307 121.8 79.5333 121.8 78.872C121.8 78.2107 121.875 77.6133 122.024 77.08C122.184 76.5467 122.408 76.0933 122.696 75.72C122.995 75.3467 123.352 75.0587 123.768 74.856C124.184 74.6533 124.648 74.552 125.16 74.552C125.736 74.552 126.227 74.68 126.632 74.936C127.048 75.1813 127.363 75.5653 127.576 76.088H127.64V71.16H128.92V83H127.64V81.656ZM125.512 82.04C125.8 82.04 126.072 82.0027 126.328 81.928C126.595 81.8533 126.824 81.7467 127.016 81.608C127.208 81.4587 127.357 81.2827 127.464 81.08C127.581 80.8667 127.64 80.6267 127.64 80.36V77.288C127.64 77.064 127.581 76.856 127.464 76.664C127.357 76.4613 127.208 76.2907 127.016 76.152C126.824 76.0133 126.595 75.9067 126.328 75.832C126.072 75.7467 125.8 75.704 125.512 75.704C124.787 75.704 124.216 75.9333 123.8 76.392C123.384 76.84 123.176 77.432 123.176 78.168V79.576C123.176 80.312 123.384 80.9093 123.8 81.368C124.216 81.816 124.787 82.04 125.512 82.04ZM140.271 83.176C139.524 83.176 138.825 83.0427 138.174 82.776C137.524 82.5093 136.959 82.1307 136.479 81.64C135.999 81.1387 135.62 80.5307 135.343 79.816C135.065 79.1013 134.927 78.3013 134.927 77.416C134.927 76.5307 135.065 75.7307 135.343 75.016C135.62 74.3013 135.999 73.6987 136.479 73.208C136.959 72.7067 137.524 72.3227 138.174 72.056C138.825 71.7893 139.524 71.656 140.271 71.656C141.017 71.656 141.716 71.7893 142.367 72.056C143.017 72.3227 143.583 72.7067 144.062 73.208C144.543 73.6987 144.921 74.3013 145.199 75.016C145.476 75.7307 145.615 76.5307 145.615 77.416C145.615 78.3013 145.476 79.1013 145.199 79.816C144.921 80.5307 144.543 81.1387 144.062 81.64C143.583 82.1307 143.017 82.5093 142.367 82.776C141.716 83.0427 141.017 83.176 140.271 83.176ZM140.271 82.216C140.889 82.216 141.46 82.1093 141.983 81.896C142.505 81.672 142.953 81.368 143.327 80.984C143.711 80.6 144.004 80.1467 144.207 79.624C144.42 79.0907 144.527 78.5147 144.527 77.896V76.936C144.527 76.3173 144.42 75.7467 144.207 75.224C144.004 74.6907 143.711 74.232 143.327 73.848C142.953 73.464 142.505 73.1653 141.983 72.952C141.46 72.728 140.889 72.616 140.271 72.616C139.641 72.616 139.065 72.728 138.543 72.952C138.031 73.1653 137.583 73.464 137.199 73.848C136.825 74.232 136.532 74.6907 136.319 75.224C136.116 75.7467 136.015 76.3173 136.015 76.936V77.896C136.015 78.5147 136.116 79.0907 136.319 79.624C136.532 80.1467 136.825 80.6 137.199 80.984C137.583 81.368 138.031 81.672 138.543 81.896C139.065 82.1093 139.641 82.216 140.271 82.216ZM140.399 80.52C139.567 80.52 138.916 80.2427 138.447 79.688C137.988 79.1227 137.759 78.3653 137.759 77.416C137.759 76.4667 137.988 75.7147 138.447 75.16C138.916 74.5947 139.567 74.312 140.399 74.312C140.943 74.312 141.385 74.44 141.727 74.696C142.079 74.952 142.345 75.288 142.527 75.704L141.615 76.216C141.497 75.9387 141.343 75.72 141.151 75.56C140.959 75.4 140.708 75.32 140.399 75.32C139.929 75.32 139.572 75.4693 139.327 75.768C139.092 76.056 138.975 76.4347 138.975 76.904V77.944C138.975 78.4133 139.092 78.7973 139.327 79.096C139.572 79.384 139.929 79.528 140.399 79.528C140.74 79.528 141.012 79.4427 141.215 79.272C141.417 79.0907 141.599 78.856 141.759 78.568L142.623 79.112C142.441 79.5173 142.164 79.8533 141.791 80.12C141.428 80.3867 140.964 80.52 140.399 80.52ZM151.754 83V71.832H158.57V73.016H153.098V76.76H158.25V77.944H153.098V81.816H158.57V83H151.754ZM166.078 81.656H166.014C165.512 82.68 164.707 83.192 163.598 83.192C163.086 83.192 162.622 83.0907 162.206 82.888C161.79 82.6853 161.432 82.3973 161.134 82.024C160.846 81.6507 160.622 81.1973 160.462 80.664C160.312 80.1307 160.238 79.5333 160.238 78.872C160.238 78.2107 160.312 77.6133 160.462 77.08C160.622 76.5467 160.846 76.0933 161.134 75.72C161.432 75.3467 161.79 75.0587 162.206 74.856C162.622 74.6533 163.086 74.552 163.598 74.552C164.174 74.552 164.664 74.68 165.07 74.936C165.486 75.1813 165.8 75.5653 166.014 76.088H166.078V74.744H167.358V86.2H166.078V81.656ZM163.95 82.04C164.238 82.04 164.51 82.0027 164.766 81.928C165.032 81.8533 165.262 81.7467 165.454 81.608C165.646 81.4587 165.795 81.2827 165.902 81.08C166.019 80.8667 166.078 80.6267 166.078 80.36V77.288C166.078 77.064 166.019 76.856 165.902 76.664C165.795 76.4613 165.646 76.2907 165.454 76.152C165.262 76.0133 165.032 75.9067 164.766 75.832C164.51 75.7467 164.238 75.704 163.95 75.704C163.224 75.704 162.654 75.9333 162.238 76.392C161.822 76.84 161.614 77.432 161.614 78.168V79.576C161.614 80.312 161.822 80.9093 162.238 81.368C162.654 81.816 163.224 82.04 163.95 82.04ZM175.167 81.656H175.103C175.017 81.848 174.911 82.04 174.783 82.232C174.665 82.4133 174.516 82.5787 174.335 82.728C174.153 82.8667 173.935 82.9787 173.679 83.064C173.423 83.1493 173.124 83.192 172.783 83.192C171.929 83.192 171.252 82.92 170.751 82.376C170.249 81.8213 169.999 81.0427 169.999 80.04V74.744H171.279V79.816C171.279 81.2987 171.908 82.04 173.167 82.04C173.423 82.04 173.668 82.008 173.903 81.944C174.148 81.88 174.361 81.784 174.543 81.656C174.735 81.528 174.884 81.368 174.991 81.176C175.108 80.9733 175.167 80.7333 175.167 80.456V74.744H176.447V83H175.167V81.656ZM185.173 83C184.693 83 184.346 82.872 184.133 82.616C183.93 82.36 183.802 82.04 183.749 81.656H183.669C183.487 82.168 183.189 82.552 182.773 82.808C182.357 83.064 181.861 83.192 181.285 83.192C180.41 83.192 179.727 82.968 179.237 82.52C178.757 82.072 178.517 81.464 178.517 80.696C178.517 79.9173 178.799 79.32 179.365 78.904C179.941 78.488 180.831 78.28 182.036 78.28H183.669V77.464C183.669 76.8773 183.509 76.4293 183.189 76.12C182.869 75.8107 182.378 75.656 181.717 75.656C181.215 75.656 180.794 75.768 180.453 75.992C180.122 76.216 179.845 76.5147 179.621 76.888L178.853 76.168C179.077 75.72 179.434 75.3413 179.924 75.032C180.415 74.712 181.034 74.552 181.781 74.552C182.783 74.552 183.562 74.7973 184.117 75.288C184.671 75.7787 184.949 76.4613 184.949 77.336V81.88H185.892V83H185.173ZM181.493 82.104C181.813 82.104 182.106 82.0667 182.373 81.992C182.639 81.9173 182.869 81.8107 183.061 81.672C183.253 81.5333 183.402 81.3733 183.509 81.192C183.615 81.0107 183.669 80.8133 183.669 80.6V79.24H181.973C181.237 79.24 180.698 79.3467 180.357 79.56C180.026 79.7733 179.861 80.0827 179.861 80.488V80.824C179.861 81.2293 180.005 81.544 180.293 81.768C180.591 81.992 180.991 82.104 181.493 82.104ZM189.079 83C188.631 83 188.29 82.8773 188.055 82.632C187.831 82.376 187.719 82.056 187.719 81.672V71.16H188.999V81.88H190.215V83H189.079ZM192.719 72.808C192.441 72.808 192.239 72.744 192.111 72.616C191.993 72.4773 191.935 72.3013 191.935 72.088V71.88C191.935 71.6667 191.993 71.496 192.111 71.368C192.239 71.2293 192.441 71.16 192.719 71.16C192.996 71.16 193.193 71.2293 193.311 71.368C193.439 71.496 193.503 71.6667 193.503 71.88V72.088C193.503 72.3013 193.439 72.4773 193.311 72.616C193.193 72.744 192.996 72.808 192.719 72.808ZM192.079 74.744H193.359V83H192.079V74.744ZM195.247 83V81.928L199.935 75.864H195.391V74.744H201.487V75.704L196.703 81.88H201.615V83H195.247ZM206.448 83.192C205.883 83.192 205.371 83.0907 204.912 82.888C204.464 82.6853 204.075 82.3973 203.744 82.024C203.424 81.64 203.174 81.1867 202.992 80.664C202.822 80.1307 202.736 79.5333 202.736 78.872C202.736 78.2213 202.822 77.6293 202.992 77.096C203.174 76.5627 203.424 76.1093 203.744 75.736C204.075 75.352 204.464 75.0587 204.912 74.856C205.371 74.6533 205.883 74.552 206.448 74.552C207.003 74.552 207.499 74.6533 207.936 74.856C208.374 75.0587 208.747 75.3413 209.056 75.704C209.366 76.056 209.6 76.4773 209.76 76.968C209.931 77.4587 210.016 77.9973 210.016 78.584V79.192H204.08V79.576C204.08 79.928 204.134 80.2587 204.24 80.568C204.358 80.8667 204.518 81.128 204.72 81.352C204.934 81.576 205.19 81.752 205.488 81.88C205.798 82.008 206.144 82.072 206.528 82.072C207.051 82.072 207.504 81.9493 207.888 81.704C208.283 81.4587 208.587 81.1067 208.8 80.648L209.712 81.304C209.446 81.8693 209.03 82.328 208.464 82.68C207.899 83.0213 207.227 83.192 206.448 83.192ZM206.448 75.624C206.096 75.624 205.776 75.688 205.488 75.816C205.2 75.9333 204.95 76.104 204.736 76.328C204.534 76.552 204.374 76.8187 204.256 77.128C204.139 77.4267 204.08 77.7573 204.08 78.12V78.232H208.64V78.056C208.64 77.32 208.438 76.7333 208.032 76.296C207.638 75.848 207.11 75.624 206.448 75.624ZM212.126 83V74.744H213.406V76.264H213.486C213.635 75.8693 213.902 75.5173 214.286 75.208C214.67 74.8987 215.198 74.744 215.87 74.744H216.366V76.024H215.614C214.92 76.024 214.376 76.1573 213.982 76.424C213.598 76.68 213.406 77.0053 213.406 77.4V83H212.126ZM228.95 83H221.622V81.624L225.27 78.264C225.793 77.784 226.23 77.2773 226.582 76.744C226.934 76.2 227.11 75.656 227.11 75.112V74.92C227.11 74.3013 226.939 73.8 226.598 73.416C226.257 73.032 225.739 72.84 225.046 72.84C224.705 72.84 224.406 72.888 224.15 72.984C223.894 73.08 223.67 73.2133 223.478 73.384C223.297 73.5547 223.142 73.7573 223.014 73.992C222.897 74.216 222.801 74.4613 222.726 74.728L221.526 74.264C221.633 73.9333 221.777 73.6133 221.958 73.304C222.15 72.984 222.385 72.7013 222.662 72.456C222.95 72.2107 223.291 72.0133 223.686 71.864C224.091 71.7147 224.566 71.64 225.11 71.64C225.654 71.64 226.139 71.72 226.566 71.88C226.993 72.04 227.35 72.264 227.638 72.552C227.926 72.84 228.145 73.1813 228.294 73.576C228.454 73.9707 228.534 74.408 228.534 74.888C228.534 75.3253 228.47 75.7307 228.342 76.104C228.225 76.4773 228.059 76.8347 227.846 77.176C227.633 77.5067 227.371 77.832 227.062 78.152C226.763 78.472 226.438 78.792 226.086 79.112L223.078 81.816H228.95V83ZM234.816 83.192C233.482 83.192 232.506 82.6853 231.888 81.672C231.28 80.6587 230.976 79.24 230.976 77.416C230.976 75.592 231.28 74.1733 231.888 73.16C232.506 72.1467 233.482 71.64 234.816 71.64C236.149 71.64 237.12 72.1467 237.728 73.16C238.346 74.1733 238.656 75.592 238.656 77.416C238.656 79.24 238.346 80.6587 237.728 81.672C237.12 82.6853 236.149 83.192 234.816 83.192ZM234.816 82.024C235.253 82.024 235.626 81.9333 235.936 81.752C236.245 81.5707 236.496 81.3147 236.688 80.984C236.88 80.6533 237.018 80.264 237.104 79.816C237.2 79.368 237.248 78.872 237.248 78.328V76.504C237.248 75.96 237.2 75.464 237.104 75.016C237.018 74.568 236.88 74.1787 236.688 73.848C236.496 73.5173 236.245 73.2613 235.936 73.08C235.626 72.8987 235.253 72.808 234.816 72.808C234.378 72.808 234.005 72.8987 233.696 73.08C233.386 73.2613 233.136 73.5173 232.944 73.848C232.752 74.1787 232.608 74.568 232.512 75.016C232.426 75.464 232.384 75.96 232.384 76.504V78.328C232.384 78.872 232.426 79.368 232.512 79.816C232.608 80.264 232.752 80.6533 232.944 80.984C233.136 81.3147 233.386 81.5707 233.696 81.752C234.005 81.9333 234.378 82.024 234.816 82.024ZM248.137 83H240.809V81.624L244.457 78.264C244.98 77.784 245.417 77.2773 245.769 76.744C246.121 76.2 246.297 75.656 246.297 75.112V74.92C246.297 74.3013 246.127 73.8 245.785 73.416C245.444 73.032 244.927 72.84 244.233 72.84C243.892 72.84 243.593 72.888 243.337 72.984C243.081 73.08 242.857 73.2133 242.665 73.384C242.484 73.5547 242.329 73.7573 242.201 73.992C242.084 74.216 241.988 74.4613 241.913 74.728L240.713 74.264C240.82 73.9333 240.964 73.6133 241.145 73.304C241.337 72.984 241.572 72.7013 241.849 72.456C242.137 72.2107 242.479 72.0133 242.873 71.864C243.279 71.7147 243.753 71.64 244.297 71.64C244.841 71.64 245.327 71.72 245.753 71.88C246.18 72.04 246.537 72.264 246.825 72.552C247.113 72.84 247.332 73.1813 247.481 73.576C247.641 73.9707 247.721 74.408 247.721 74.888C247.721 75.3253 247.657 75.7307 247.529 76.104C247.412 76.4773 247.247 76.8347 247.033 77.176C246.82 77.5067 246.559 77.832 246.249 78.152C245.951 78.472 245.625 78.792 245.273 79.112L242.265 81.816H248.137V83ZM250.611 83V81.816H253.731V72.824H253.619L250.803 75.448L250.019 74.6L252.979 71.832H255.075V81.816H257.955V83H250.611ZM8.48 104.944H2.832V110H1.488V98.832H2.832V103.76H8.48V98.832H9.824V110H8.48V104.944ZM18.6725 110C18.1925 110 17.8458 109.872 17.6325 109.616C17.4298 109.36 17.3018 109.04 17.2485 108.656H17.1685C16.9872 109.168 16.6885 109.552 16.2725 109.808C15.8565 110.064 15.3605 110.192 14.7845 110.192C13.9098 110.192 13.2272 109.968 12.7365 109.52C12.2565 109.072 12.0165 108.464 12.0165 107.696C12.0165 106.917 12.2992 106.32 12.8645 105.904C13.4405 105.488 14.3312 105.28 15.5365 105.28H17.1685V104.464C17.1685 103.877 17.0085 103.429 16.6885 103.12C16.3685 102.811 15.8778 102.656 15.2165 102.656C14.7152 102.656 14.2938 102.768 13.9525 102.992C13.6218 103.216 13.3445 103.515 13.1205 103.888L12.3525 103.168C12.5765 102.72 12.9338 102.341 13.4245 102.032C13.9152 101.712 14.5338 101.552 15.2805 101.552C16.2832 101.552 17.0618 101.797 17.6165 102.288C18.1712 102.779 18.4485 103.461 18.4485 104.336V108.88H19.3925V110H18.6725ZM14.9925 109.104C15.3125 109.104 15.6058 109.067 15.8725 108.992C16.1392 108.917 16.3685 108.811 16.5605 108.672C16.7525 108.533 16.9018 108.373 17.0085 108.192C17.1152 108.011 17.1685 107.813 17.1685 107.6V106.24H15.4725C14.7365 106.24 14.1978 106.347 13.8565 106.56C13.5258 106.773 13.3605 107.083 13.3605 107.488V107.824C13.3605 108.229 13.5045 108.544 13.7925 108.768C14.0912 108.992 14.4912 109.104 14.9925 109.104ZM22.9184 110L20.0224 101.744H21.3024L22.7424 105.84L23.6384 108.656H23.7184L24.6144 105.84L26.0864 101.744H27.3184L24.4064 110H22.9184ZM31.9484 110.192C31.383 110.192 30.871 110.091 30.4124 109.888C29.9644 109.685 29.575 109.397 29.2444 109.024C28.9244 108.64 28.6737 108.187 28.4924 107.664C28.3217 107.131 28.2364 106.533 28.2364 105.872C28.2364 105.221 28.3217 104.629 28.4924 104.096C28.6737 103.563 28.9244 103.109 29.2444 102.736C29.575 102.352 29.9644 102.059 30.4124 101.856C30.871 101.653 31.383 101.552 31.9484 101.552C32.503 101.552 32.999 101.653 33.4364 101.856C33.8737 102.059 34.247 102.341 34.5564 102.704C34.8657 103.056 35.1004 103.477 35.2604 103.968C35.431 104.459 35.5164 104.997 35.5164 105.584V106.192H29.5804V106.576C29.5804 106.928 29.6337 107.259 29.7404 107.568C29.8577 107.867 30.0177 108.128 30.2204 108.352C30.4337 108.576 30.6897 108.752 30.9884 108.88C31.2977 109.008 31.6444 109.072 32.0284 109.072C32.551 109.072 33.0044 108.949 33.3884 108.704C33.783 108.459 34.087 108.107 34.3004 107.648L35.2124 108.304C34.9457 108.869 34.5297 109.328 33.9644 109.68C33.399 110.021 32.727 110.192 31.9484 110.192ZM31.9484 102.624C31.5964 102.624 31.2764 102.688 30.9884 102.816C30.7004 102.933 30.4497 103.104 30.2364 103.328C30.0337 103.552 29.8737 103.819 29.7564 104.128C29.639 104.427 29.5804 104.757 29.5804 105.12V105.232H34.1404V105.056C34.1404 104.32 33.9377 103.733 33.5324 103.296C33.1377 102.848 32.6097 102.624 31.9484 102.624ZM47.4069 110C46.9269 110 46.5802 109.872 46.3669 109.616C46.1642 109.36 46.0362 109.04 45.9829 108.656H45.9029C45.7215 109.168 45.4229 109.552 45.0069 109.808C44.5909 110.064 44.0949 110.192 43.5189 110.192C42.6442 110.192 41.9615 109.968 41.4709 109.52C40.9909 109.072 40.7509 108.464 40.7509 107.696C40.7509 106.917 41.0335 106.32 41.5989 105.904C42.1749 105.488 43.0655 105.28 44.2709 105.28H45.9029V104.464C45.9029 103.877 45.7429 103.429 45.4229 103.12C45.1029 102.811 44.6122 102.656 43.9509 102.656C43.4495 102.656 43.0282 102.768 42.6869 102.992C42.3562 103.216 42.0789 103.515 41.8549 103.888L41.0869 103.168C41.3109 102.72 41.6682 102.341 42.1589 102.032C42.6495 101.712 43.2682 101.552 44.0149 101.552C45.0175 101.552 45.7962 101.797 46.3509 102.288C46.9055 102.779 47.1829 103.461 47.1829 104.336V108.88H48.1269V110H47.4069ZM43.7269 109.104C44.0469 109.104 44.3402 109.067 44.6069 108.992C44.8735 108.917 45.1029 108.811 45.2949 108.672C45.4869 108.533 45.6362 108.373 45.7429 108.192C45.8495 108.011 45.9029 107.813 45.9029 107.6V106.24H44.2069C43.4709 106.24 42.9322 106.347 42.5909 106.56C42.2602 106.773 42.0949 107.083 42.0949 107.488V107.824C42.0949 108.229 42.2389 108.544 42.5269 108.768C42.8255 108.992 43.2255 109.104 43.7269 109.104ZM49.9538 110V101.744H51.2338V103.088H51.2978C51.5004 102.619 51.7831 102.245 52.1458 101.968C52.5191 101.691 53.0151 101.552 53.6338 101.552C54.4871 101.552 55.1591 101.829 55.6498 102.384C56.1511 102.928 56.4018 103.701 56.4018 104.704V110H55.1218V104.928C55.1218 103.445 54.4978 102.704 53.2498 102.704C52.9938 102.704 52.7431 102.736 52.4978 102.8C52.2631 102.864 52.0498 102.96 51.8578 103.088C51.6658 103.216 51.5111 103.381 51.3938 103.584C51.2871 103.776 51.2338 104.005 51.2338 104.272V110H49.9538ZM64.0105 101.744H65.2745L61.5785 111.92C61.4825 112.165 61.3865 112.368 61.2905 112.528C61.1945 112.699 61.0772 112.832 60.9385 112.928C60.7998 113.024 60.6238 113.093 60.4105 113.136C60.2078 113.179 59.9572 113.2 59.6585 113.2H59.0025V112.08H60.2985L60.9225 110.32L57.8345 101.744H59.1145L61.0985 107.36L61.4825 108.704H61.5625L62.0105 107.36L64.0105 101.744ZM70.6881 101.744H71.9681V103.088H72.0321C72.2455 102.565 72.5548 102.181 72.9601 101.936C73.3761 101.68 73.8721 101.552 74.4481 101.552C74.9601 101.552 75.4241 101.653 75.8401 101.856C76.2561 102.059 76.6081 102.347 76.8961 102.72C77.1948 103.093 77.4188 103.547 77.5681 104.08C77.7281 104.613 77.8081 105.211 77.8081 105.872C77.8081 106.533 77.7281 107.131 77.5681 107.664C77.4188 108.197 77.1948 108.651 76.8961 109.024C76.6081 109.397 76.2561 109.685 75.8401 109.888C75.4241 110.091 74.9601 110.192 74.4481 110.192C73.3281 110.192 72.5228 109.68 72.0321 108.656H71.9681V113.2H70.6881V101.744ZM74.0961 109.04C74.8215 109.04 75.3921 108.816 75.8081 108.368C76.2241 107.909 76.4321 107.312 76.4321 106.576V105.168C76.4321 104.432 76.2241 103.84 75.8081 103.392C75.3921 102.933 74.8215 102.704 74.0961 102.704C73.8081 102.704 73.5308 102.747 73.2641 102.832C73.0081 102.907 72.7841 103.013 72.5921 103.152C72.4001 103.291 72.2455 103.461 72.1281 103.664C72.0215 103.856 71.9681 104.064 71.9681 104.288V107.36C71.9681 107.627 72.0215 107.867 72.1281 108.08C72.2455 108.283 72.4001 108.459 72.5921 108.608C72.7841 108.747 73.0081 108.853 73.2641 108.928C73.5308 109.003 73.8081 109.04 74.0961 109.04ZM79.9694 110V101.744H81.2494V103.264H81.3294C81.4787 102.869 81.7454 102.517 82.1294 102.208C82.5134 101.899 83.0414 101.744 83.7134 101.744H84.2094V103.024H83.4574C82.764 103.024 82.22 103.157 81.8254 103.424C81.4414 103.68 81.2494 104.005 81.2494 104.4V110H79.9694ZM88.8863 110.192C88.3316 110.192 87.8249 110.091 87.3663 109.888C86.9076 109.685 86.5129 109.397 86.1823 109.024C85.8623 108.64 85.6116 108.187 85.4303 107.664C85.2489 107.131 85.1583 106.533 85.1583 105.872C85.1583 105.221 85.2489 104.629 85.4303 104.096C85.6116 103.563 85.8623 103.109 86.1823 102.736C86.5129 102.352 86.9076 102.059 87.3663 101.856C87.8249 101.653 88.3316 101.552 88.8863 101.552C89.4409 101.552 89.9423 101.653 90.3903 101.856C90.8489 102.059 91.2436 102.352 91.5743 102.736C91.9049 103.109 92.1609 103.563 92.3423 104.096C92.5236 104.629 92.6143 105.221 92.6143 105.872C92.6143 106.533 92.5236 107.131 92.3423 107.664C92.1609 108.187 91.9049 108.64 91.5743 109.024C91.2436 109.397 90.8489 109.685 90.3903 109.888C89.9423 110.091 89.4409 110.192 88.8863 110.192ZM88.8863 109.056C89.5796 109.056 90.1449 108.843 90.5823 108.416C91.0196 107.989 91.2383 107.339 91.2383 106.464V105.28C91.2383 104.405 91.0196 103.755 90.5823 103.328C90.1449 102.901 89.5796 102.688 88.8863 102.688C88.1929 102.688 87.6276 102.901 87.1903 103.328C86.7529 103.755 86.5343 104.405 86.5343 105.28V106.464C86.5343 107.339 86.7529 107.989 87.1903 108.416C87.6276 108.843 88.1929 109.056 88.8863 109.056ZM94.7194 98.16H95.9994V103.088H96.0634C96.2767 102.565 96.586 102.181 96.9914 101.936C97.4074 101.68 97.9034 101.552 98.4794 101.552C98.9914 101.552 99.4554 101.653 99.8714 101.856C100.287 102.059 100.639 102.347 100.927 102.72C101.226 103.093 101.45 103.547 101.599 104.08C101.759 104.613 101.839 105.211 101.839 105.872C101.839 106.533 101.759 107.131 101.599 107.664C101.45 108.197 101.226 108.651 100.927 109.024C100.639 109.397 100.287 109.685 99.8714 109.888C99.4554 110.091 98.9914 110.192 98.4794 110.192C97.3594 110.192 96.554 109.68 96.0634 108.656H95.9994V110H94.7194V98.16ZM98.1274 109.04C98.8527 109.04 99.4234 108.816 99.8394 108.368C100.255 107.909 100.463 107.312 100.463 106.576V105.168C100.463 104.432 100.255 103.84 99.8394 103.392C99.4234 102.933 98.8527 102.704 98.1274 102.704C97.8394 102.704 97.562 102.747 97.2954 102.832C97.0394 102.907 96.8154 103.013 96.6234 103.152C96.4314 103.291 96.2767 103.461 96.1594 103.664C96.0527 103.856 95.9994 104.064 95.9994 104.288V107.36C95.9994 107.627 96.0527 107.867 96.1594 108.08C96.2767 108.283 96.4314 108.459 96.6234 108.608C96.8154 108.747 97.0394 108.853 97.2954 108.928C97.562 109.003 97.8394 109.04 98.1274 109.04ZM105.361 110C104.913 110 104.571 109.877 104.337 109.632C104.113 109.376 104.001 109.056 104.001 108.672V98.16H105.281V108.88H106.497V110H105.361ZM111.464 110.192C110.899 110.192 110.387 110.091 109.928 109.888C109.48 109.685 109.091 109.397 108.76 109.024C108.44 108.64 108.189 108.187 108.008 107.664C107.837 107.131 107.752 106.533 107.752 105.872C107.752 105.221 107.837 104.629 108.008 104.096C108.189 103.563 108.44 103.109 108.76 102.736C109.091 102.352 109.48 102.059 109.928 101.856C110.387 101.653 110.899 101.552 111.464 101.552C112.019 101.552 112.515 101.653 112.952 101.856C113.389 102.059 113.763 102.341 114.072 102.704C114.381 103.056 114.616 103.477 114.776 103.968C114.947 104.459 115.032 104.997 115.032 105.584V106.192H109.096V106.576C109.096 106.928 109.149 107.259 109.256 107.568C109.373 107.867 109.533 108.128 109.736 108.352C109.949 108.576 110.205 108.752 110.504 108.88C110.813 109.008 111.16 109.072 111.544 109.072C112.067 109.072 112.52 108.949 112.904 108.704C113.299 108.459 113.603 108.107 113.816 107.648L114.728 108.304C114.461 108.869 114.045 109.328 113.48 109.68C112.915 110.021 112.243 110.192 111.464 110.192ZM111.464 102.624C111.112 102.624 110.792 102.688 110.504 102.816C110.216 102.933 109.965 103.104 109.752 103.328C109.549 103.552 109.389 103.819 109.272 104.128C109.155 104.427 109.096 104.757 109.096 105.12V105.232H113.656V105.056C113.656 104.32 113.453 103.733 113.048 103.296C112.653 102.848 112.125 102.624 111.464 102.624ZM117.141 110V101.744H118.421V103.088H118.485C118.581 102.875 118.688 102.677 118.805 102.496C118.933 102.304 119.083 102.139 119.253 102C119.435 101.861 119.643 101.755 119.877 101.68C120.112 101.595 120.389 101.552 120.709 101.552C121.253 101.552 121.755 101.685 122.213 101.952C122.672 102.208 123.013 102.635 123.237 103.232H123.269C123.419 102.784 123.696 102.395 124.101 102.064C124.517 101.723 125.077 101.552 125.781 101.552C126.624 101.552 127.28 101.829 127.749 102.384C128.229 102.928 128.469 103.701 128.469 104.704V110H127.189V104.928C127.189 104.192 127.045 103.637 126.757 103.264C126.469 102.891 126.011 102.704 125.381 102.704C125.125 102.704 124.88 102.736 124.645 102.8C124.421 102.864 124.219 102.96 124.037 103.088C123.856 103.216 123.712 103.381 123.605 103.584C123.499 103.776 123.445 104.005 123.445 104.272V110H122.165V104.928C122.165 104.192 122.021 103.637 121.733 103.264C121.445 102.891 120.997 102.704 120.389 102.704C120.133 102.704 119.888 102.736 119.653 102.8C119.419 102.864 119.211 102.96 119.029 103.088C118.848 103.216 118.699 103.381 118.581 103.584C118.475 103.776 118.421 104.005 118.421 104.272V110H117.141ZM133.59 110.192C132.822 110.192 132.177 110.048 131.654 109.76C131.142 109.461 130.699 109.067 130.326 108.576L131.238 107.84C131.558 108.245 131.915 108.56 132.31 108.784C132.705 108.997 133.163 109.104 133.686 109.104C134.23 109.104 134.651 108.987 134.95 108.752C135.259 108.517 135.414 108.187 135.414 107.76C135.414 107.44 135.307 107.168 135.094 106.944C134.891 106.709 134.518 106.549 133.974 106.464L133.318 106.368C132.934 106.315 132.582 106.235 132.262 106.128C131.942 106.011 131.659 105.861 131.414 105.68C131.179 105.488 130.993 105.253 130.854 104.976C130.726 104.699 130.662 104.368 130.662 103.984C130.662 103.579 130.737 103.227 130.886 102.928C131.035 102.619 131.238 102.363 131.494 102.16C131.761 101.957 132.075 101.808 132.438 101.712C132.801 101.605 133.19 101.552 133.606 101.552C134.278 101.552 134.838 101.669 135.286 101.904C135.745 102.139 136.145 102.464 136.486 102.88L135.638 103.648C135.457 103.392 135.19 103.163 134.838 102.96C134.486 102.747 134.043 102.64 133.51 102.64C132.977 102.64 132.571 102.757 132.294 102.992C132.027 103.216 131.894 103.525 131.894 103.92C131.894 104.325 132.027 104.619 132.294 104.8C132.571 104.981 132.966 105.115 133.478 105.2L134.118 105.296C135.035 105.435 135.686 105.701 136.07 106.096C136.454 106.48 136.646 106.987 136.646 107.616C136.646 108.416 136.374 109.045 135.83 109.504C135.286 109.963 134.539 110.192 133.59 110.192ZM140.411 106.672V104.048C141.286 104.005 141.968 103.792 142.459 103.408C142.96 103.024 143.211 102.496 143.211 101.824V101.6C143.211 101.056 143.04 100.624 142.699 100.304C142.358 99.9733 141.899 99.808 141.323 99.808C140.704 99.808 140.208 99.984 139.835 100.336C139.472 100.688 139.227 101.136 139.099 101.68L137.915 101.232C138.011 100.891 138.15 100.565 138.331 100.256C138.523 99.936 138.758 99.6587 139.035 99.424C139.323 99.1787 139.659 98.9867 140.043 98.848C140.427 98.7093 140.87 98.64 141.371 98.64C142.363 98.64 143.147 98.912 143.723 99.456C144.299 100 144.587 100.736 144.587 101.664C144.587 102.176 144.496 102.624 144.315 103.008C144.144 103.381 143.92 103.701 143.643 103.968C143.366 104.235 143.051 104.448 142.699 104.608C142.347 104.768 141.995 104.88 141.643 104.944V106.672H140.411ZM141.035 110.192C140.694 110.192 140.443 110.107 140.283 109.936C140.134 109.765 140.059 109.541 140.059 109.264V109.056C140.059 108.779 140.134 108.555 140.283 108.384C140.443 108.213 140.694 108.128 141.035 108.128C141.376 108.128 141.622 108.213 141.771 108.384C141.931 108.555 142.011 108.779 142.011 109.056V109.264C142.011 109.541 141.931 109.765 141.771 109.936C141.622 110.107 141.376 110.192 141.035 110.192ZM154.377 110.192C152.958 110.192 151.854 109.712 151.065 108.752C150.276 107.781 149.881 106.357 149.881 104.48C149.881 102.603 150.276 101.163 151.065 100.16C151.854 99.1467 152.958 98.64 154.377 98.64C155.316 98.64 156.1 98.8533 156.729 99.28C157.369 99.7067 157.865 100.309 158.217 101.088L157.129 101.744C156.905 101.168 156.564 100.709 156.105 100.368C155.646 100.016 155.07 99.84 154.377 99.84C153.897 99.84 153.465 99.9307 153.081 100.112C152.708 100.293 152.388 100.555 152.121 100.896C151.865 101.227 151.668 101.627 151.529 102.096C151.39 102.555 151.321 103.072 151.321 103.648V105.312C151.321 106.464 151.588 107.365 152.121 108.016C152.654 108.667 153.406 108.992 154.377 108.992C155.092 108.992 155.689 108.811 156.169 108.448C156.649 108.075 157.001 107.584 157.225 106.976L158.297 107.648C157.945 108.437 157.438 109.061 156.777 109.52C156.116 109.968 155.316 110.192 154.377 110.192ZM163.371 110.192C162.816 110.192 162.309 110.091 161.851 109.888C161.392 109.685 160.997 109.397 160.667 109.024C160.347 108.64 160.096 108.187 159.915 107.664C159.733 107.131 159.643 106.533 159.643 105.872C159.643 105.221 159.733 104.629 159.915 104.096C160.096 103.563 160.347 103.109 160.667 102.736C160.997 102.352 161.392 102.059 161.851 101.856C162.309 101.653 162.816 101.552 163.371 101.552C163.925 101.552 164.427 101.653 164.875 101.856C165.333 102.059 165.728 102.352 166.059 102.736C166.389 103.109 166.645 103.563 166.827 104.096C167.008 104.629 167.099 105.221 167.099 105.872C167.099 106.533 167.008 107.131 166.827 107.664C166.645 108.187 166.389 108.64 166.059 109.024C165.728 109.397 165.333 109.685 164.875 109.888C164.427 110.091 163.925 110.192 163.371 110.192ZM163.371 109.056C164.064 109.056 164.629 108.843 165.067 108.416C165.504 107.989 165.723 107.339 165.723 106.464V105.28C165.723 104.405 165.504 103.755 165.067 103.328C164.629 102.901 164.064 102.688 163.371 102.688C162.677 102.688 162.112 102.901 161.675 103.328C161.237 103.755 161.019 104.405 161.019 105.28V106.464C161.019 107.339 161.237 107.989 161.675 108.416C162.112 108.843 162.677 109.056 163.371 109.056ZM169.204 110V101.744H170.484V103.088H170.548C170.75 102.619 171.033 102.245 171.396 101.968C171.769 101.691 172.265 101.552 172.884 101.552C173.737 101.552 174.409 101.829 174.9 102.384C175.401 102.928 175.652 103.701 175.652 104.704V110H174.372V104.928C174.372 103.445 173.748 102.704 172.5 102.704C172.244 102.704 171.993 102.736 171.748 102.8C171.513 102.864 171.3 102.96 171.108 103.088C170.916 103.216 170.761 103.381 170.644 103.584C170.537 103.776 170.484 104.005 170.484 104.272V110H169.204ZM180.122 110C179.674 110 179.332 109.877 179.098 109.632C178.874 109.376 178.762 109.045 178.762 108.64V102.864H177.402V101.744H178.17C178.447 101.744 178.634 101.691 178.73 101.584C178.836 101.467 178.89 101.269 178.89 100.992V99.456H180.042V101.744H181.85V102.864H180.042V108.88H181.722V110H180.122ZM189.907 110C189.427 110 189.08 109.872 188.867 109.616C188.664 109.36 188.536 109.04 188.483 108.656H188.403C188.222 109.168 187.923 109.552 187.507 109.808C187.091 110.064 186.595 110.192 186.019 110.192C185.144 110.192 184.462 109.968 183.971 109.52C183.491 109.072 183.251 108.464 183.251 107.696C183.251 106.917 183.534 106.32 184.099 105.904C184.675 105.488 185.566 105.28 186.771 105.28H188.403V104.464C188.403 103.877 188.243 103.429 187.923 103.12C187.603 102.811 187.112 102.656 186.451 102.656C185.95 102.656 185.528 102.768 185.187 102.992C184.856 103.216 184.579 103.515 184.355 103.888L183.587 103.168C183.811 102.72 184.168 102.341 184.659 102.032C185.15 101.712 185.768 101.552 186.515 101.552C187.518 101.552 188.296 101.797 188.851 102.288C189.406 102.779 189.683 103.461 189.683 104.336V108.88H190.627V110H189.907ZM186.227 109.104C186.547 109.104 186.84 109.067 187.107 108.992C187.374 108.917 187.603 108.811 187.795 108.672C187.987 108.533 188.136 108.373 188.243 108.192C188.35 108.011 188.403 107.813 188.403 107.6V106.24H186.707C185.971 106.24 185.432 106.347 185.091 106.56C184.76 106.773 184.595 107.083 184.595 107.488V107.824C184.595 108.229 184.739 108.544 185.027 108.768C185.326 108.992 185.726 109.104 186.227 109.104ZM195.526 110.192C194.95 110.192 194.432 110.091 193.974 109.888C193.515 109.685 193.126 109.397 192.806 109.024C192.496 108.651 192.256 108.197 192.086 107.664C191.926 107.131 191.846 106.533 191.846 105.872C191.846 105.211 191.926 104.613 192.086 104.08C192.256 103.547 192.496 103.093 192.806 102.72C193.126 102.347 193.515 102.059 193.974 101.856C194.432 101.653 194.95 101.552 195.526 101.552C196.347 101.552 197.003 101.733 197.494 102.096C197.995 102.448 198.368 102.912 198.614 103.488L197.542 104.032C197.392 103.605 197.147 103.275 196.806 103.04C196.464 102.805 196.038 102.688 195.526 102.688C195.142 102.688 194.806 102.752 194.518 102.88C194.23 102.997 193.99 103.168 193.798 103.392C193.606 103.605 193.462 103.867 193.366 104.176C193.27 104.475 193.222 104.805 193.222 105.168V106.576C193.222 107.301 193.414 107.899 193.798 108.368C194.192 108.827 194.768 109.056 195.526 109.056C196.56 109.056 197.307 108.576 197.766 107.616L198.694 108.24C198.427 108.837 198.027 109.312 197.494 109.664C196.971 110.016 196.315 110.192 195.526 110.192ZM202.325 110C201.877 110 201.535 109.877 201.301 109.632C201.077 109.376 200.965 109.045 200.965 108.64V102.864H199.605V101.744H200.373C200.65 101.744 200.837 101.691 200.933 101.584C201.039 101.467 201.093 101.269 201.093 100.992V99.456H202.245V101.744H204.053V102.864H202.245V108.88H203.925V110H202.325ZM214.979 108.656H214.915C214.83 108.848 214.723 109.04 214.595 109.232C214.478 109.413 214.329 109.579 214.147 109.728C213.966 109.867 213.747 109.979 213.491 110.064C213.235 110.149 212.937 110.192 212.595 110.192C211.742 110.192 211.065 109.92 210.563 109.376C210.062 108.821 209.811 108.043 209.811 107.04V101.744H211.091V106.816C211.091 108.299 211.721 109.04 212.979 109.04C213.235 109.04 213.481 109.008 213.715 108.944C213.961 108.88 214.174 108.784 214.355 108.656C214.547 108.528 214.697 108.368 214.803 108.176C214.921 107.973 214.979 107.733 214.979 107.456V101.744H216.259V110H214.979V108.656ZM221.465 110.192C220.697 110.192 220.052 110.048 219.529 109.76C219.017 109.461 218.574 109.067 218.201 108.576L219.113 107.84C219.433 108.245 219.79 108.56 220.185 108.784C220.58 108.997 221.038 109.104 221.561 109.104C222.105 109.104 222.526 108.987 222.825 108.752C223.134 108.517 223.289 108.187 223.289 107.76C223.289 107.44 223.182 107.168 222.969 106.944C222.766 106.709 222.393 106.549 221.849 106.464L221.193 106.368C220.809 106.315 220.457 106.235 220.137 106.128C219.817 106.011 219.534 105.861 219.289 105.68C219.054 105.488 218.868 105.253 218.729 104.976C218.601 104.699 218.537 104.368 218.537 103.984C218.537 103.579 218.612 103.227 218.761 102.928C218.91 102.619 219.113 102.363 219.369 102.16C219.636 101.957 219.95 101.808 220.313 101.712C220.676 101.605 221.065 101.552 221.481 101.552C222.153 101.552 222.713 101.669 223.161 101.904C223.62 102.139 224.02 102.464 224.361 102.88L223.513 103.648C223.332 103.392 223.065 103.163 222.713 102.96C222.361 102.747 221.918 102.64 221.385 102.64C220.852 102.64 220.446 102.757 220.169 102.992C219.902 103.216 219.769 103.525 219.769 103.92C219.769 104.325 219.902 104.619 220.169 104.8C220.446 104.981 220.841 105.115 221.353 105.2L221.993 105.296C222.91 105.435 223.561 105.701 223.945 106.096C224.329 106.48 224.521 106.987 224.521 107.616C224.521 108.416 224.249 109.045 223.705 109.504C223.161 109.963 222.414 110.192 221.465 110.192ZM232.387 110L229.491 101.744H230.771L232.211 105.84L233.107 108.656H233.187L234.083 105.84L235.555 101.744H236.787L233.875 110H232.387ZM239.078 99.808C238.801 99.808 238.598 99.744 238.47 99.616C238.353 99.4773 238.294 99.3013 238.294 99.088V98.88C238.294 98.6667 238.353 98.496 238.47 98.368C238.598 98.2293 238.801 98.16 239.078 98.16C239.355 98.16 239.553 98.2293 239.67 98.368C239.798 98.496 239.862 98.6667 239.862 98.88V99.088C239.862 99.3013 239.798 99.4773 239.67 99.616C239.553 99.744 239.355 99.808 239.078 99.808ZM238.438 101.744H239.718V110H238.438V101.744ZM248.438 110C247.958 110 247.611 109.872 247.398 109.616C247.195 109.36 247.067 109.04 247.014 108.656H246.934C246.753 109.168 246.454 109.552 246.038 109.808C245.622 110.064 245.126 110.192 244.55 110.192C243.675 110.192 242.993 109.968 242.502 109.52C242.022 109.072 241.782 108.464 241.782 107.696C241.782 106.917 242.065 106.32 242.63 105.904C243.206 105.488 244.097 105.28 245.302 105.28H246.934V104.464C246.934 103.877 246.774 103.429 246.454 103.12C246.134 102.811 245.643 102.656 244.982 102.656C244.481 102.656 244.059 102.768 243.718 102.992C243.387 103.216 243.11 103.515 242.886 103.888L242.118 103.168C242.342 102.72 242.699 102.341 243.19 102.032C243.681 101.712 244.299 101.552 245.046 101.552C246.049 101.552 246.827 101.797 247.382 102.288C247.937 102.779 248.214 103.461 248.214 104.336V108.88H249.158V110H248.438ZM244.758 109.104C245.078 109.104 245.371 109.067 245.638 108.992C245.905 108.917 246.134 108.811 246.326 108.672C246.518 108.533 246.667 108.373 246.774 108.192C246.881 108.011 246.934 107.813 246.934 107.6V106.24H245.238C244.502 106.24 243.963 106.347 243.622 106.56C243.291 106.773 243.126 107.083 243.126 107.488V107.824C243.126 108.229 243.27 108.544 243.558 108.768C243.857 108.992 244.257 109.104 244.758 109.104ZM257.246 110.192C256.478 110.192 255.833 110.048 255.31 109.76C254.798 109.461 254.356 109.067 253.982 108.576L254.894 107.84C255.214 108.245 255.572 108.56 255.966 108.784C256.361 108.997 256.82 109.104 257.342 109.104C257.886 109.104 258.308 108.987 258.606 108.752C258.916 108.517 259.07 108.187 259.07 107.76C259.07 107.44 258.964 107.168 258.75 106.944C258.548 106.709 258.174 106.549 257.63 106.464L256.974 106.368C256.59 106.315 256.238 106.235 255.918 106.128C255.598 106.011 255.316 105.861 255.07 105.68C254.836 105.488 254.649 105.253 254.51 104.976C254.382 104.699 254.318 104.368 254.318 103.984C254.318 103.579 254.393 103.227 254.542 102.928C254.692 102.619 254.894 102.363 255.15 102.16C255.417 101.957 255.732 101.808 256.094 101.712C256.457 101.605 256.846 101.552 257.262 101.552C257.934 101.552 258.494 101.669 258.942 101.904C259.401 102.139 259.801 102.464 260.142 102.88L259.294 103.648C259.113 103.392 258.846 103.163 258.494 102.96C258.142 102.747 257.7 102.64 257.166 102.64C256.633 102.64 256.228 102.757 255.95 102.992C255.684 103.216 255.55 103.525 255.55 103.92C255.55 104.325 255.684 104.619 255.95 104.8C256.228 104.981 256.622 105.115 257.134 105.2L257.774 105.296C258.692 105.435 259.342 105.701 259.726 106.096C260.11 106.48 260.302 106.987 260.302 107.616C260.302 108.416 260.03 109.045 259.486 109.504C258.942 109.963 258.196 110.192 257.246 110.192ZM265.683 110.192C265.128 110.192 264.622 110.091 264.163 109.888C263.704 109.685 263.31 109.397 262.979 109.024C262.659 108.64 262.408 108.187 262.227 107.664C262.046 107.131 261.955 106.533 261.955 105.872C261.955 105.221 262.046 104.629 262.227 104.096C262.408 103.563 262.659 103.109 262.979 102.736C263.31 102.352 263.704 102.059 264.163 101.856C264.622 101.653 265.128 101.552 265.683 101.552C266.238 101.552 266.739 101.653 267.187 101.856C267.646 102.059 268.04 102.352 268.371 102.736C268.702 103.109 268.958 103.563 269.139 104.096C269.32 104.629 269.411 105.221 269.411 105.872C269.411 106.533 269.32 107.131 269.139 107.664C268.958 108.187 268.702 108.64 268.371 109.024C268.04 109.397 267.646 109.685 267.187 109.888C266.739 110.091 266.238 110.192 265.683 110.192ZM265.683 109.056C266.376 109.056 266.942 108.843 267.379 108.416C267.816 107.989 268.035 107.339 268.035 106.464V105.28C268.035 104.405 267.816 103.755 267.379 103.328C266.942 102.901 266.376 102.688 265.683 102.688C264.99 102.688 264.424 102.901 263.987 103.328C263.55 103.755 263.331 104.405 263.331 105.28V106.464C263.331 107.339 263.55 107.989 263.987 108.416C264.424 108.843 264.99 109.056 265.683 109.056ZM274.588 110.192C274.012 110.192 273.495 110.091 273.036 109.888C272.578 109.685 272.188 109.397 271.868 109.024C271.559 108.651 271.319 108.197 271.148 107.664C270.988 107.131 270.908 106.533 270.908 105.872C270.908 105.211 270.988 104.613 271.148 104.08C271.319 103.547 271.559 103.093 271.868 102.72C272.188 102.347 272.578 102.059 273.036 101.856C273.495 101.653 274.012 101.552 274.588 101.552C275.41 101.552 276.066 101.733 276.556 102.096C277.058 102.448 277.431 102.912 277.676 103.488L276.604 104.032C276.455 103.605 276.21 103.275 275.868 103.04C275.527 102.805 275.1 102.688 274.588 102.688C274.204 102.688 273.868 102.752 273.58 102.88C273.292 102.997 273.052 103.168 272.86 103.392C272.668 103.605 272.524 103.867 272.428 104.176C272.332 104.475 272.284 104.805 272.284 105.168V106.576C272.284 107.301 272.476 107.899 272.86 108.368C273.255 108.827 273.831 109.056 274.588 109.056C275.623 109.056 276.37 108.576 276.828 107.616L277.756 108.24C277.49 108.837 277.09 109.312 276.556 109.664C276.034 110.016 275.378 110.192 274.588 110.192ZM280.203 99.808C279.926 99.808 279.723 99.744 279.595 99.616C279.478 99.4773 279.419 99.3013 279.419 99.088V98.88C279.419 98.6667 279.478 98.496 279.595 98.368C279.723 98.2293 279.926 98.16 280.203 98.16C280.48 98.16 280.678 98.2293 280.795 98.368C280.923 98.496 280.987 98.6667 280.987 98.88V99.088C280.987 99.3013 280.923 99.4773 280.795 99.616C280.678 99.744 280.48 99.808 280.203 99.808ZM279.563 101.744H280.843V110H279.563V101.744ZM289.563 110C289.083 110 288.736 109.872 288.523 109.616C288.32 109.36 288.192 109.04 288.139 108.656H288.059C287.878 109.168 287.579 109.552 287.163 109.808C286.747 110.064 286.251 110.192 285.675 110.192C284.8 110.192 284.118 109.968 283.627 109.52C283.147 109.072 282.907 108.464 282.907 107.696C282.907 106.917 283.19 106.32 283.755 105.904C284.331 105.488 285.222 105.28 286.427 105.28H288.059V104.464C288.059 103.877 287.899 103.429 287.579 103.12C287.259 102.811 286.768 102.656 286.107 102.656C285.606 102.656 285.184 102.768 284.843 102.992C284.512 103.216 284.235 103.515 284.011 103.888L283.243 103.168C283.467 102.72 283.824 102.341 284.315 102.032C284.806 101.712 285.424 101.552 286.171 101.552C287.174 101.552 287.952 101.797 288.507 102.288C289.062 102.779 289.339 103.461 289.339 104.336V108.88H290.283V110H289.563ZM285.883 109.104C286.203 109.104 286.496 109.067 286.763 108.992C287.03 108.917 287.259 108.811 287.451 108.672C287.643 108.533 287.792 108.373 287.899 108.192C288.006 108.011 288.059 107.813 288.059 107.6V106.24H286.363C285.627 106.24 285.088 106.347 284.747 106.56C284.416 106.773 284.251 107.083 284.251 107.488V107.824C284.251 108.229 284.395 108.544 284.683 108.768C284.982 108.992 285.382 109.104 285.883 109.104ZM293.47 110C293.022 110 292.681 109.877 292.446 109.632C292.222 109.376 292.11 109.056 292.11 108.672V98.16H293.39V108.88H294.606V110H293.47ZM300.251 110V101.744H301.531V103.088H301.595C301.691 102.875 301.797 102.677 301.915 102.496C302.043 102.304 302.192 102.139 302.363 102C302.544 101.861 302.752 101.755 302.987 101.68C303.221 101.595 303.499 101.552 303.819 101.552C304.363 101.552 304.864 101.685 305.323 101.952C305.781 102.208 306.123 102.635 306.347 103.232H306.379C306.528 102.784 306.805 102.395 307.211 102.064C307.627 101.723 308.187 101.552 308.891 101.552C309.733 101.552 310.389 101.829 310.859 102.384C311.339 102.928 311.579 103.701 311.579 104.704V110H310.299V104.928C310.299 104.192 310.155 103.637 309.867 103.264C309.579 102.891 309.12 102.704 308.491 102.704C308.235 102.704 307.989 102.736 307.755 102.8C307.531 102.864 307.328 102.96 307.147 103.088C306.965 103.216 306.821 103.381 306.715 103.584C306.608 103.776 306.555 104.005 306.555 104.272V110H305.275V104.928C305.275 104.192 305.131 103.637 304.843 103.264C304.555 102.891 304.107 102.704 303.499 102.704C303.243 102.704 302.997 102.736 302.763 102.8C302.528 102.864 302.32 102.96 302.139 103.088C301.957 103.216 301.808 103.381 301.691 103.584C301.584 103.776 301.531 104.005 301.531 104.272V110H300.251ZM317.323 110.192C316.758 110.192 316.246 110.091 315.787 109.888C315.339 109.685 314.95 109.397 314.619 109.024C314.299 108.64 314.049 108.187 313.867 107.664C313.697 107.131 313.611 106.533 313.611 105.872C313.611 105.221 313.697 104.629 313.867 104.096C314.049 103.563 314.299 103.109 314.619 102.736C314.95 102.352 315.339 102.059 315.787 101.856C316.246 101.653 316.758 101.552 317.323 101.552C317.878 101.552 318.374 101.653 318.811 101.856C319.249 102.059 319.622 102.341 319.931 102.704C320.241 103.056 320.475 103.477 320.635 103.968C320.806 104.459 320.891 104.997 320.891 105.584V106.192H314.955V106.576C314.955 106.928 315.009 107.259 315.115 107.568C315.233 107.867 315.393 108.128 315.595 108.352C315.809 108.576 316.065 108.752 316.363 108.88C316.673 109.008 317.019 109.072 317.403 109.072C317.926 109.072 318.379 108.949 318.763 108.704C319.158 108.459 319.462 108.107 319.675 107.648L320.587 108.304C320.321 108.869 319.905 109.328 319.339 109.68C318.774 110.021 318.102 110.192 317.323 110.192ZM317.323 102.624C316.971 102.624 316.651 102.688 316.363 102.816C316.075 102.933 315.825 103.104 315.611 103.328C315.409 103.552 315.249 103.819 315.131 104.128C315.014 104.427 314.955 104.757 314.955 105.12V105.232H319.515V105.056C319.515 104.32 319.313 103.733 318.907 103.296C318.513 102.848 317.985 102.624 317.323 102.624ZM328.281 108.656H328.217C327.715 109.68 326.91 110.192 325.801 110.192C325.289 110.192 324.825 110.091 324.409 109.888C323.993 109.685 323.635 109.397 323.337 109.024C323.049 108.651 322.825 108.197 322.665 107.664C322.515 107.131 322.441 106.533 322.441 105.872C322.441 105.211 322.515 104.613 322.665 104.08C322.825 103.547 323.049 103.093 323.337 102.72C323.635 102.347 323.993 102.059 324.409 101.856C324.825 101.653 325.289 101.552 325.801 101.552C326.377 101.552 326.867 101.68 327.273 101.936C327.689 102.181 328.003 102.565 328.217 103.088H328.281V98.16H329.561V110H328.281V108.656ZM326.153 109.04C326.441 109.04 326.713 109.003 326.969 108.928C327.235 108.853 327.465 108.747 327.657 108.608C327.849 108.459 327.998 108.283 328.105 108.08C328.222 107.867 328.281 107.627 328.281 107.36V104.288C328.281 104.064 328.222 103.856 328.105 103.664C327.998 103.461 327.849 103.291 327.657 103.152C327.465 103.013 327.235 102.907 326.969 102.832C326.713 102.747 326.441 102.704 326.153 102.704C325.427 102.704 324.857 102.933 324.441 103.392C324.025 103.84 323.817 104.432 323.817 105.168V106.576C323.817 107.312 324.025 107.909 324.441 108.368C324.857 108.816 325.427 109.04 326.153 109.04ZM332.922 99.808C332.645 99.808 332.442 99.744 332.314 99.616C332.197 99.4773 332.138 99.3013 332.138 99.088V98.88C332.138 98.6667 332.197 98.496 332.314 98.368C332.442 98.2293 332.645 98.16 332.922 98.16C333.199 98.16 333.397 98.2293 333.514 98.368C333.642 98.496 333.706 98.6667 333.706 98.88V99.088C333.706 99.3013 333.642 99.4773 333.514 99.616C333.397 99.744 333.199 99.808 332.922 99.808ZM332.282 101.744H333.562V110H332.282V101.744ZM342.282 110C341.802 110 341.455 109.872 341.242 109.616C341.039 109.36 340.911 109.04 340.858 108.656H340.778C340.597 109.168 340.298 109.552 339.882 109.808C339.466 110.064 338.97 110.192 338.394 110.192C337.519 110.192 336.837 109.968 336.346 109.52C335.866 109.072 335.626 108.464 335.626 107.696C335.626 106.917 335.909 106.32 336.474 105.904C337.05 105.488 337.941 105.28 339.146 105.28H340.778V104.464C340.778 103.877 340.618 103.429 340.298 103.12C339.978 102.811 339.487 102.656 338.826 102.656C338.325 102.656 337.903 102.768 337.562 102.992C337.231 103.216 336.954 103.515 336.73 103.888L335.962 103.168C336.186 102.72 336.543 102.341 337.034 102.032C337.525 101.712 338.143 101.552 338.89 101.552C339.893 101.552 340.671 101.797 341.226 102.288C341.781 102.779 342.058 103.461 342.058 104.336V108.88H343.002V110H342.282ZM338.602 109.104C338.922 109.104 339.215 109.067 339.482 108.992C339.749 108.917 339.978 108.811 340.17 108.672C340.362 108.533 340.511 108.373 340.618 108.192C340.725 108.011 340.778 107.813 340.778 107.6V106.24H339.082C338.346 106.24 337.807 106.347 337.466 106.56C337.135 106.773 336.97 107.083 336.97 107.488V107.824C336.97 108.229 337.114 108.544 337.402 108.768C337.701 108.992 338.101 109.104 338.602 109.104ZM351.73 110.192C351.175 110.192 350.669 110.091 350.21 109.888C349.751 109.685 349.357 109.397 349.026 109.024C348.706 108.64 348.455 108.187 348.274 107.664C348.093 107.131 348.002 106.533 348.002 105.872C348.002 105.221 348.093 104.629 348.274 104.096C348.455 103.563 348.706 103.109 349.026 102.736C349.357 102.352 349.751 102.059 350.21 101.856C350.669 101.653 351.175 101.552 351.73 101.552C352.285 101.552 352.786 101.653 353.234 101.856C353.693 102.059 354.087 102.352 354.418 102.736C354.749 103.109 355.005 103.563 355.186 104.096C355.367 104.629 355.458 105.221 355.458 105.872C355.458 106.533 355.367 107.131 355.186 107.664C355.005 108.187 354.749 108.64 354.418 109.024C354.087 109.397 353.693 109.685 353.234 109.888C352.786 110.091 352.285 110.192 351.73 110.192ZM351.73 109.056C352.423 109.056 352.989 108.843 353.426 108.416C353.863 107.989 354.082 107.339 354.082 106.464V105.28C354.082 104.405 353.863 103.755 353.426 103.328C352.989 102.901 352.423 102.688 351.73 102.688C351.037 102.688 350.471 102.901 350.034 103.328C349.597 103.755 349.378 104.405 349.378 105.28V106.464C349.378 107.339 349.597 107.989 350.034 108.416C350.471 108.843 351.037 109.056 351.73 109.056ZM357.563 110V101.744H358.843V103.264H358.923C359.072 102.869 359.339 102.517 359.723 102.208C360.107 101.899 360.635 101.744 361.307 101.744H361.803V103.024H361.051C360.358 103.024 359.814 103.157 359.419 103.424C359.035 103.68 358.843 104.005 358.843 104.4V110H357.563ZM4.464 136.192C3.89867 136.192 3.38667 136.091 2.928 135.888C2.48 135.685 2.09067 135.397 1.76 135.024C1.44 134.64 1.18933 134.187 1.008 133.664C0.837333 133.131 0.752 132.533 0.752 131.872C0.752 131.221 0.837333 130.629 1.008 130.096C1.18933 129.563 1.44 129.109 1.76 128.736C2.09067 128.352 2.48 128.059 2.928 127.856C3.38667 127.653 3.89867 127.552 4.464 127.552C5.01867 127.552 5.51467 127.653 5.952 127.856C6.38933 128.059 6.76267 128.341 7.072 128.704C7.38133 129.056 7.616 129.477 7.776 129.968C7.94667 130.459 8.032 130.997 8.032 131.584V132.192H2.096V132.576C2.096 132.928 2.14933 133.259 2.256 133.568C2.37333 133.867 2.53333 134.128 2.736 134.352C2.94933 134.576 3.20533 134.752 3.504 134.88C3.81333 135.008 4.16 135.072 4.544 135.072C5.06667 135.072 5.52 134.949 5.904 134.704C6.29867 134.459 6.60267 134.107 6.816 133.648L7.728 134.304C7.46133 134.869 7.04533 135.328 6.48 135.68C5.91467 136.021 5.24267 136.192 4.464 136.192ZM4.464 128.624C4.112 128.624 3.792 128.688 3.504 128.816C3.216 128.933 2.96533 129.104 2.752 129.328C2.54933 129.552 2.38933 129.819 2.272 130.128C2.15467 130.427 2.096 130.757 2.096 131.12V131.232H6.656V131.056C6.656 130.32 6.45333 129.733 6.048 129.296C5.65333 128.848 5.12533 128.624 4.464 128.624ZM10.1413 136V127.744H11.4213V129.088H11.4853C11.5813 128.875 11.6879 128.677 11.8053 128.496C11.9333 128.304 12.0826 128.139 12.2533 128C12.4346 127.861 12.6426 127.755 12.8773 127.68C13.1119 127.595 13.3893 127.552 13.7093 127.552C14.2533 127.552 14.7546 127.685 15.2133 127.952C15.6719 128.208 16.0133 128.635 16.2373 129.232H16.2693C16.4186 128.784 16.6959 128.395 17.1013 128.064C17.5173 127.723 18.0773 127.552 18.7812 127.552C19.6239 127.552 20.2799 127.829 20.7493 128.384C21.2293 128.928 21.4693 129.701 21.4693 130.704V136H20.1893V130.928C20.1893 130.192 20.0453 129.637 19.7573 129.264C19.4693 128.891 19.0106 128.704 18.3813 128.704C18.1253 128.704 17.8799 128.736 17.6453 128.8C17.4213 128.864 17.2186 128.96 17.0373 129.088C16.8559 129.216 16.7119 129.381 16.6053 129.584C16.4986 129.776 16.4453 130.005 16.4453 130.272V136H15.1653V130.928C15.1653 130.192 15.0213 129.637 14.7333 129.264C14.4453 128.891 13.9973 128.704 13.3893 128.704C13.1333 128.704 12.8879 128.736 12.6533 128.8C12.4186 128.864 12.2106 128.96 12.0293 129.088C11.8479 129.216 11.6986 129.381 11.5813 129.584C11.4746 129.776 11.4213 130.005 11.4213 130.272V136H10.1413ZM30.11 136C29.63 136 29.2833 135.872 29.07 135.616C28.8673 135.36 28.7393 135.04 28.686 134.656H28.606C28.4247 135.168 28.126 135.552 27.71 135.808C27.294 136.064 26.798 136.192 26.222 136.192C25.3473 136.192 24.6647 135.968 24.174 135.52C23.694 135.072 23.454 134.464 23.454 133.696C23.454 132.917 23.7367 132.32 24.302 131.904C24.878 131.488 25.7687 131.28 26.974 131.28H28.606V130.464C28.606 129.877 28.446 129.429 28.126 129.12C27.806 128.811 27.3153 128.656 26.654 128.656C26.1527 128.656 25.7313 128.768 25.39 128.992C25.0593 129.216 24.782 129.515 24.558 129.888L23.79 129.168C24.014 128.72 24.3713 128.341 24.862 128.032C25.3527 127.712 25.9713 127.552 26.718 127.552C27.7207 127.552 28.4993 127.797 29.054 128.288C29.6087 128.779 29.886 129.461 29.886 130.336V134.88H30.83V136H30.11ZM26.43 135.104C26.75 135.104 27.0433 135.067 27.31 134.992C27.5767 134.917 27.806 134.811 27.998 134.672C28.19 134.533 28.3393 134.373 28.446 134.192C28.5527 134.011 28.606 133.813 28.606 133.6V132.24H26.91C26.174 132.24 25.6353 132.347 25.294 132.56C24.9633 132.773 24.798 133.083 24.798 133.488V133.824C24.798 134.229 24.942 134.544 25.23 134.768C25.5287 134.992 25.9287 135.104 26.43 135.104ZM33.2969 125.808C33.0195 125.808 32.8169 125.744 32.6889 125.616C32.5715 125.477 32.5129 125.301 32.5129 125.088V124.88C32.5129 124.667 32.5715 124.496 32.6889 124.368C32.8169 124.229 33.0195 124.16 33.2969 124.16C33.5742 124.16 33.7715 124.229 33.8889 124.368C34.0169 124.496 34.0809 124.667 34.0809 124.88V125.088C34.0809 125.301 34.0169 125.477 33.8889 125.616C33.7715 125.744 33.5742 125.808 33.2969 125.808ZM32.6569 127.744H33.9369V136H32.6569V127.744ZM38.0169 136C37.5689 136 37.2275 135.877 36.9929 135.632C36.7689 135.376 36.6569 135.056 36.6569 134.672V124.16H37.9369V134.88H39.1529V136H38.0169ZM49.8855 134.656H49.8215C49.7362 134.848 49.6295 135.04 49.5015 135.232C49.3842 135.413 49.2348 135.579 49.0535 135.728C48.8722 135.867 48.6535 135.979 48.3975 136.064C48.1415 136.149 47.8428 136.192 47.5015 136.192C46.6482 136.192 45.9708 135.92 45.4695 135.376C44.9682 134.821 44.7175 134.043 44.7175 133.04V127.744H45.9975V132.816C45.9975 134.299 46.6268 135.04 47.8855 135.04C48.1415 135.04 48.3868 135.008 48.6215 134.944C48.8668 134.88 49.0802 134.784 49.2615 134.656C49.4535 134.528 49.6028 134.368 49.7095 134.176C49.8268 133.973 49.8855 133.733 49.8855 133.456V127.744H51.1655V136H49.8855V134.656ZM56.3713 136.192C55.6033 136.192 54.9579 136.048 54.4353 135.76C53.9233 135.461 53.4806 135.067 53.1073 134.576L54.0193 133.84C54.3393 134.245 54.6966 134.56 55.0913 134.784C55.4859 134.997 55.9446 135.104 56.4673 135.104C57.0113 135.104 57.4326 134.987 57.7313 134.752C58.0406 134.517 58.1953 134.187 58.1953 133.76C58.1953 133.44 58.0886 133.168 57.8753 132.944C57.6726 132.709 57.2993 132.549 56.7552 132.464L56.0993 132.368C55.7153 132.315 55.3633 132.235 55.0433 132.128C54.7233 132.011 54.4406 131.861 54.1953 131.68C53.9606 131.488 53.7739 131.253 53.6353 130.976C53.5073 130.699 53.4433 130.368 53.4433 129.984C53.4433 129.579 53.5179 129.227 53.6673 128.928C53.8166 128.619 54.0193 128.363 54.2753 128.16C54.5419 127.957 54.8566 127.808 55.2193 127.712C55.5819 127.605 55.9713 127.552 56.3873 127.552C57.0593 127.552 57.6193 127.669 58.0673 127.904C58.5259 128.139 58.9259 128.464 59.2673 128.88L58.4193 129.648C58.2379 129.392 57.9713 129.163 57.6193 128.96C57.2673 128.747 56.8246 128.64 56.2913 128.64C55.7579 128.64 55.3526 128.757 55.0753 128.992C54.8086 129.216 54.6753 129.525 54.6753 129.92C54.6753 130.325 54.8086 130.619 55.0753 130.8C55.3526 130.981 55.7473 131.115 56.2593 131.2L56.8993 131.296C57.8166 131.435 58.4673 131.701 58.8513 132.096C59.2353 132.48 59.4273 132.987 59.4273 133.616C59.4273 134.416 59.1553 135.045 58.6113 135.504C58.0673 135.963 57.3206 136.192 56.3713 136.192ZM71.4694 136C70.9894 136 70.6427 135.872 70.4294 135.616C70.2267 135.36 70.0987 135.04 70.0454 134.656H69.9654C69.784 135.168 69.4854 135.552 69.0694 135.808C68.6534 136.064 68.1574 136.192 67.5814 136.192C66.7067 136.192 66.024 135.968 65.5334 135.52C65.0534 135.072 64.8134 134.464 64.8134 133.696C64.8134 132.917 65.096 132.32 65.6614 131.904C66.2374 131.488 67.128 131.28 68.3334 131.28H69.9654V130.464C69.9654 129.877 69.8054 129.429 69.4854 129.12C69.1654 128.811 68.6747 128.656 68.0134 128.656C67.512 128.656 67.0907 128.768 66.7494 128.992C66.4187 129.216 66.1414 129.515 65.9174 129.888L65.1494 129.168C65.3734 128.72 65.7307 128.341 66.2214 128.032C66.712 127.712 67.3307 127.552 68.0774 127.552C69.08 127.552 69.8587 127.797 70.4134 128.288C70.968 128.779 71.2454 129.461 71.2454 130.336V134.88H72.1894V136H71.4694ZM67.7894 135.104C68.1094 135.104 68.4027 135.067 68.6694 134.992C68.936 134.917 69.1654 134.811 69.3574 134.672C69.5494 134.533 69.6987 134.373 69.8054 134.192C69.912 134.011 69.9654 133.813 69.9654 133.6V132.24H68.2694C67.5334 132.24 66.9947 132.347 66.6534 132.56C66.3227 132.773 66.1574 133.083 66.1574 133.488V133.824C66.1574 134.229 66.3014 134.544 66.5894 134.768C66.888 134.992 67.288 135.104 67.7894 135.104ZM75.8403 136C75.3923 136 75.0509 135.877 74.8163 135.632C74.5923 135.376 74.4803 135.045 74.4803 134.64V128.864H73.1203V127.744H73.8883C74.1656 127.744 74.3523 127.691 74.4483 127.584C74.5549 127.467 74.6083 127.269 74.6083 126.992V125.456H75.7603V127.744H77.5683V128.864H75.7603V134.88H77.4403V136H75.8403ZM86.6549 136.192C86.0149 136.192 85.4442 136.091 84.9429 135.888C84.4415 135.675 84.0149 135.381 83.6629 135.008C83.3215 134.624 83.0602 134.16 82.8789 133.616C82.7082 133.072 82.6229 132.464 82.6229 131.792C82.6229 131.131 82.7082 130.533 82.8789 130C83.0495 129.456 83.3002 128.992 83.6309 128.608C83.9722 128.224 84.3882 127.931 84.8789 127.728C85.3695 127.515 85.9295 127.408 86.5589 127.408C87.2522 127.408 87.8442 127.525 88.3349 127.76C88.8362 127.995 89.2415 128.309 89.5509 128.704C89.8709 129.099 90.1002 129.557 90.2389 130.08C90.3882 130.592 90.4629 131.131 90.4629 131.696V132.4H85.0709V132.528C85.0709 133.083 85.2202 133.525 85.5189 133.856C85.8175 134.176 86.2869 134.336 86.9269 134.336C87.4175 134.336 87.8175 134.24 88.1269 134.048C88.4362 133.845 88.7242 133.605 88.9909 133.328L90.1749 134.8C89.8015 135.237 89.3109 135.579 88.7029 135.824C88.1055 136.069 87.4229 136.192 86.6549 136.192ZM86.6069 129.152C86.1269 129.152 85.7482 129.312 85.4709 129.632C85.2042 129.941 85.0709 130.357 85.0709 130.88V131.008H88.0149V130.864C88.0149 130.352 87.8975 129.941 87.6629 129.632C87.4389 129.312 87.0869 129.152 86.6069 129.152ZM97.2873 134.592H97.2073C97.1433 134.816 97.0419 135.029 96.9033 135.232C96.7646 135.424 96.5939 135.595 96.3913 135.744C96.1993 135.883 95.9753 135.989 95.7193 136.064C95.4739 136.149 95.2179 136.192 94.9513 136.192C93.8846 136.192 93.0793 135.819 92.5353 135.072C91.9913 134.315 91.7193 133.221 91.7193 131.792C91.7193 130.363 91.9913 129.275 92.5353 128.528C93.0793 127.781 93.8846 127.408 94.9513 127.408C95.4953 127.408 95.9753 127.557 96.3913 127.856C96.8179 128.155 97.0899 128.539 97.2073 129.008H97.2873V127.6H99.6553V139.2H97.2873V134.592ZM95.7352 134.272C96.1833 134.272 96.5513 134.165 96.8393 133.952C97.1379 133.728 97.2873 133.424 97.2873 133.04V130.56C97.2873 130.176 97.1379 129.877 96.8393 129.664C96.5513 129.44 96.1833 129.328 95.7352 129.328C95.2873 129.328 94.9139 129.488 94.6153 129.808C94.3273 130.117 94.1833 130.539 94.1833 131.072V132.528C94.1833 133.061 94.3273 133.488 94.6153 133.808C94.9139 134.117 95.2873 134.272 95.7352 134.272ZM106.83 134.592H106.75C106.675 134.805 106.574 135.008 106.446 135.2C106.328 135.392 106.174 135.563 105.982 135.712C105.79 135.861 105.56 135.979 105.294 136.064C105.038 136.149 104.739 136.192 104.398 136.192C103.534 136.192 102.878 135.909 102.43 135.344C101.992 134.768 101.774 133.947 101.774 132.88V127.6H104.142V132.672C104.142 133.184 104.232 133.579 104.414 133.856C104.595 134.133 104.904 134.272 105.342 134.272C105.523 134.272 105.704 134.245 105.886 134.192C106.067 134.139 106.227 134.064 106.366 133.968C106.504 133.861 106.616 133.733 106.702 133.584C106.787 133.435 106.83 133.259 106.83 133.056V127.6H109.198V136H106.83V134.592ZM117.609 136C117.182 136 116.825 135.867 116.537 135.6C116.26 135.333 116.084 134.976 116.009 134.528H115.913C115.785 135.072 115.502 135.488 115.065 135.776C114.628 136.053 114.089 136.192 113.449 136.192C112.606 136.192 111.961 135.968 111.513 135.52C111.065 135.072 110.841 134.48 110.841 133.744C110.841 132.859 111.161 132.203 111.801 131.776C112.452 131.339 113.332 131.12 114.441 131.12H115.769V130.592C115.769 130.187 115.662 129.867 115.449 129.632C115.236 129.387 114.878 129.264 114.377 129.264C113.908 129.264 113.534 129.365 113.257 129.568C112.98 129.771 112.75 130 112.569 130.256L111.161 129.008C111.502 128.507 111.929 128.117 112.441 127.84C112.964 127.552 113.668 127.408 114.553 127.408C115.748 127.408 116.644 127.669 117.241 128.192C117.838 128.715 118.137 129.477 118.137 130.48V134.16H118.921V136H117.609ZM114.329 134.544C114.724 134.544 115.06 134.459 115.337 134.288C115.625 134.117 115.769 133.84 115.769 133.456V132.464H114.617C113.689 132.464 113.225 132.779 113.225 133.408V133.648C113.225 133.957 113.321 134.187 113.513 134.336C113.705 134.475 113.977 134.544 114.329 134.544ZM122.862 136C122.052 136 121.454 135.803 121.07 135.408C120.697 135.013 120.51 134.443 120.51 133.696V124.16H122.878V134.16H123.934V136H122.862ZM126.538 126.704C126.058 126.704 125.706 126.597 125.482 126.384C125.269 126.16 125.162 125.877 125.162 125.536V125.184C125.162 124.843 125.269 124.565 125.482 124.352C125.706 124.128 126.058 124.016 126.538 124.016C127.018 124.016 127.365 124.128 127.578 124.352C127.802 124.565 127.914 124.843 127.914 125.184V125.536C127.914 125.877 127.802 126.16 127.578 126.384C127.365 126.597 127.018 126.704 126.538 126.704ZM125.354 127.6H127.722V136H125.354V127.6ZM129.452 136V134.128L133.628 129.44H129.596V127.6H136.38V129.456L132.188 134.16H136.492V136H129.452ZM141.717 136.192C141.077 136.192 140.507 136.091 140.005 135.888C139.504 135.675 139.077 135.381 138.725 135.008C138.384 134.624 138.123 134.16 137.941 133.616C137.771 133.072 137.685 132.464 137.685 131.792C137.685 131.131 137.771 130.533 137.941 130C138.112 129.456 138.363 128.992 138.693 128.608C139.035 128.224 139.451 127.931 139.941 127.728C140.432 127.515 140.992 127.408 141.621 127.408C142.315 127.408 142.907 127.525 143.397 127.76C143.899 127.995 144.304 128.309 144.613 128.704C144.933 129.099 145.163 129.557 145.301 130.08C145.451 130.592 145.525 131.131 145.525 131.696V132.4H140.133V132.528C140.133 133.083 140.283 133.525 140.581 133.856C140.88 134.176 141.349 134.336 141.989 134.336C142.48 134.336 142.88 134.24 143.189 134.048C143.499 133.845 143.787 133.605 144.053 133.328L145.237 134.8C144.864 135.237 144.373 135.579 143.765 135.824C143.168 136.069 142.485 136.192 141.717 136.192ZM141.669 129.152C141.189 129.152 140.811 129.312 140.533 129.632C140.267 129.941 140.133 130.357 140.133 130.88V131.008H143.077V130.864C143.077 130.352 142.96 129.941 142.725 129.632C142.501 129.312 142.149 129.152 141.669 129.152ZM147.198 136V127.6H149.566V129.424H149.646C149.688 129.189 149.763 128.965 149.87 128.752C149.976 128.528 150.115 128.331 150.286 128.16C150.467 127.989 150.68 127.856 150.926 127.76C151.171 127.653 151.459 127.6 151.79 127.6H152.206V129.808H151.614C150.92 129.808 150.403 129.899 150.062 130.08C149.731 130.261 149.566 130.597 149.566 131.088V136H147.198ZM163.315 137.936H159.955C158.941 137.936 158.035 137.776 157.235 137.456C156.445 137.136 155.773 136.683 155.219 136.096C154.675 135.52 154.259 134.832 153.971 134.032C153.683 133.221 153.539 132.325 153.539 131.344C153.539 130.373 153.688 129.477 153.987 128.656C154.285 127.835 154.712 127.131 155.267 126.544C155.821 125.947 156.493 125.483 157.283 125.152C158.072 124.821 158.963 124.656 159.955 124.656C160.872 124.656 161.709 124.8 162.467 125.088C163.224 125.365 163.869 125.765 164.403 126.288C164.947 126.8 165.363 127.429 165.651 128.176C165.949 128.912 166.099 129.733 166.099 130.64C166.099 131.92 165.827 132.917 165.283 133.632C164.749 134.336 164.024 134.688 163.107 134.688C162.531 134.688 162.061 134.549 161.699 134.272C161.336 133.995 161.139 133.632 161.107 133.184H161.027C160.92 133.632 160.717 133.989 160.419 134.256C160.131 134.523 159.72 134.656 159.187 134.656C158.483 134.656 157.896 134.379 157.427 133.824C156.957 133.259 156.723 132.432 156.723 131.344C156.723 130.256 156.957 129.435 157.427 128.88C157.896 128.315 158.483 128.032 159.187 128.032C159.635 128.032 159.997 128.155 160.275 128.4C160.552 128.635 160.739 128.928 160.835 129.28H160.915V128.176H162.691V132.48C162.691 133.013 162.925 133.28 163.395 133.28C163.757 133.28 164.051 133.088 164.275 132.704C164.499 132.309 164.611 131.701 164.611 130.88V130.432C164.611 129.749 164.493 129.136 164.259 128.592C164.035 128.048 163.715 127.589 163.299 127.216C162.893 126.843 162.403 126.555 161.827 126.352C161.261 126.149 160.637 126.048 159.955 126.048C159.197 126.048 158.515 126.171 157.907 126.416C157.309 126.661 156.792 127.008 156.355 127.456C155.928 127.893 155.597 128.421 155.363 129.04C155.139 129.648 155.027 130.315 155.027 131.04V131.648C155.027 132.373 155.139 133.04 155.363 133.648C155.597 134.245 155.928 134.757 156.355 135.184C156.792 135.611 157.309 135.941 157.907 136.176C158.515 136.411 159.197 136.528 159.955 136.528H163.315V137.936ZM159.843 133.2C160.12 133.2 160.365 133.099 160.579 132.896C160.803 132.683 160.915 132.453 160.915 132.208V130.352C160.915 130.107 160.803 129.904 160.579 129.744C160.365 129.573 160.12 129.488 159.843 129.488C159.459 129.488 159.149 129.611 158.915 129.856C158.691 130.101 158.579 130.416 158.579 130.8V131.888C158.579 132.272 158.691 132.587 158.915 132.832C159.149 133.077 159.459 133.2 159.843 133.2ZM171.624 136.192C170.984 136.192 170.413 136.091 169.912 135.888C169.41 135.675 168.984 135.381 168.632 135.008C168.29 134.624 168.029 134.16 167.848 133.616C167.677 133.072 167.592 132.464 167.592 131.792C167.592 131.131 167.677 130.533 167.848 130C168.018 129.456 168.269 128.992 168.6 128.608C168.941 128.224 169.357 127.931 169.848 127.728C170.338 127.515 170.898 127.408 171.528 127.408C172.221 127.408 172.813 127.525 173.304 127.76C173.805 127.995 174.21 128.309 174.52 128.704C174.84 129.099 175.069 129.557 175.208 130.08C175.357 130.592 175.432 131.131 175.432 131.696V132.4H170.04V132.528C170.04 133.083 170.189 133.525 170.488 133.856C170.786 134.176 171.256 134.336 171.896 134.336C172.386 134.336 172.786 134.24 173.096 134.048C173.405 133.845 173.693 133.605 173.96 133.328L175.144 134.8C174.77 135.237 174.28 135.579 173.672 135.824C173.074 136.069 172.392 136.192 171.624 136.192ZM171.576 129.152C171.096 129.152 170.717 129.312 170.44 129.632C170.173 129.941 170.04 130.357 170.04 130.88V131.008H172.984V130.864C172.984 130.352 172.866 129.941 172.632 129.632C172.408 129.312 172.056 129.152 171.576 129.152ZM176.288 136L179.056 131.728L176.32 127.6H179.008L180.576 130.24H180.64L182.16 127.6H184.656L181.872 131.808L184.672 136H181.984L180.368 133.264H180.304L178.752 136H176.288ZM192.265 136C191.838 136 191.481 135.867 191.193 135.6C190.916 135.333 190.74 134.976 190.665 134.528H190.569C190.441 135.072 190.158 135.488 189.721 135.776C189.284 136.053 188.745 136.192 188.105 136.192C187.262 136.192 186.617 135.968 186.169 135.52C185.721 135.072 185.497 134.48 185.497 133.744C185.497 132.859 185.817 132.203 186.457 131.776C187.108 131.339 187.988 131.12 189.097 131.12H190.425V130.592C190.425 130.187 190.318 129.867 190.105 129.632C189.892 129.387 189.534 129.264 189.033 129.264C188.564 129.264 188.19 129.365 187.913 129.568C187.636 129.771 187.406 130 187.225 130.256L185.817 129.008C186.158 128.507 186.585 128.117 187.097 127.84C187.62 127.552 188.324 127.408 189.209 127.408C190.404 127.408 191.3 127.669 191.897 128.192C192.494 128.715 192.793 129.477 192.793 130.48V134.16H193.577V136H192.265ZM188.985 134.544C189.38 134.544 189.716 134.459 189.993 134.288C190.281 134.117 190.425 133.84 190.425 133.456V132.464H189.273C188.345 132.464 187.881 132.779 187.881 133.408V133.648C187.881 133.957 187.977 134.187 188.169 134.336C188.361 134.475 188.633 134.544 188.985 134.544ZM195.167 136V127.6H197.535V129.024H197.631C197.78 128.576 198.036 128.197 198.399 127.888C198.761 127.568 199.257 127.408 199.887 127.408C200.463 127.408 200.953 127.552 201.359 127.84C201.764 128.128 202.057 128.549 202.239 129.104H202.286C202.361 128.869 202.473 128.651 202.623 128.448C202.783 128.235 202.975 128.053 203.199 127.904C203.423 127.755 203.673 127.637 203.951 127.552C204.228 127.456 204.527 127.408 204.847 127.408C205.657 127.408 206.276 127.696 206.703 128.272C207.14 128.848 207.359 129.669 207.359 130.736V136H204.991V130.928C204.991 129.861 204.607 129.328 203.839 129.328C203.487 129.328 203.167 129.429 202.878 129.632C202.591 129.835 202.447 130.144 202.447 130.56V136H200.079V130.928C200.079 129.861 199.695 129.328 198.927 129.328C198.756 129.328 198.585 129.355 198.415 129.408C198.255 129.451 198.105 129.525 197.967 129.632C197.839 129.739 197.732 129.872 197.647 130.032C197.572 130.181 197.535 130.357 197.535 130.56V136H195.167ZM209.463 127.6H211.831V129.008H211.911C212.029 128.539 212.295 128.155 212.711 127.856C213.138 127.557 213.623 127.408 214.167 127.408C215.234 127.408 216.039 127.781 216.583 128.528C217.127 129.275 217.399 130.363 217.399 131.792C217.399 133.221 217.127 134.315 216.583 135.072C216.039 135.819 215.234 136.192 214.167 136.192C213.89 136.192 213.629 136.149 213.383 136.064C213.138 135.989 212.914 135.883 212.711 135.744C212.519 135.595 212.354 135.424 212.215 135.232C212.077 135.029 211.975 134.816 211.911 134.592H211.831V139.2H209.463V127.6ZM213.383 134.272C213.831 134.272 214.199 134.117 214.487 133.808C214.786 133.488 214.935 133.061 214.935 132.528V131.072C214.935 130.539 214.786 130.117 214.487 129.808C214.199 129.488 213.831 129.328 213.383 129.328C212.935 129.328 212.562 129.44 212.263 129.664C211.975 129.877 211.831 130.176 211.831 130.56V133.04C211.831 133.424 211.975 133.728 212.263 133.952C212.562 134.165 212.935 134.272 213.383 134.272ZM221.55 136C220.739 136 220.142 135.803 219.758 135.408C219.384 135.013 219.198 134.443 219.198 133.696V124.16H221.566V134.16H222.622V136H221.55ZM227.546 136.192C226.906 136.192 226.335 136.091 225.834 135.888C225.332 135.675 224.906 135.381 224.554 135.008C224.212 134.624 223.951 134.16 223.77 133.616C223.599 133.072 223.514 132.464 223.514 131.792C223.514 131.131 223.599 130.533 223.77 130C223.94 129.456 224.191 128.992 224.522 128.608C224.863 128.224 225.279 127.931 225.77 127.728C226.26 127.515 226.82 127.408 227.45 127.408C228.143 127.408 228.735 127.525 229.226 127.76C229.727 127.995 230.132 128.309 230.442 128.704C230.762 129.099 230.991 129.557 231.13 130.08C231.279 130.592 231.354 131.131 231.354 131.696V132.4H225.962V132.528C225.962 133.083 226.111 133.525 226.41 133.856C226.708 134.176 227.178 134.336 227.818 134.336C228.308 134.336 228.708 134.24 229.018 134.048C229.327 133.845 229.615 133.605 229.882 133.328L231.066 134.8C230.692 135.237 230.202 135.579 229.594 135.824C228.996 136.069 228.314 136.192 227.546 136.192ZM227.498 129.152C227.018 129.152 226.639 129.312 226.362 129.632C226.095 129.941 225.962 130.357 225.962 130.88V131.008H228.906V130.864C228.906 130.352 228.788 129.941 228.554 129.632C228.33 129.312 227.978 129.152 227.498 129.152ZM234.402 136.176C233.922 136.176 233.565 136.059 233.33 135.824C233.106 135.579 232.994 135.269 232.994 134.896V134.576C232.994 134.203 233.106 133.899 233.33 133.664C233.565 133.419 233.922 133.296 234.402 133.296C234.882 133.296 235.234 133.419 235.458 133.664C235.693 133.899 235.81 134.203 235.81 134.576V134.896C235.81 135.269 235.693 135.579 235.458 135.824C235.234 136.059 234.882 136.176 234.402 136.176ZM241.371 136.192C240.742 136.192 240.182 136.091 239.691 135.888C239.2 135.675 238.79 135.381 238.459 135.008C238.128 134.624 237.878 134.16 237.707 133.616C237.536 133.072 237.451 132.464 237.451 131.792C237.451 131.12 237.536 130.517 237.707 129.984C237.878 129.44 238.128 128.976 238.459 128.592C238.79 128.208 239.2 127.915 239.691 127.712C240.182 127.509 240.742 127.408 241.371 127.408C242.224 127.408 242.934 127.6 243.499 127.984C244.075 128.368 244.486 128.907 244.731 129.6L242.811 130.432C242.736 130.112 242.582 129.84 242.347 129.616C242.112 129.392 241.787 129.28 241.371 129.28C240.891 129.28 240.528 129.44 240.283 129.76C240.038 130.069 239.915 130.491 239.915 131.024V132.592C239.915 133.125 240.038 133.547 240.283 133.856C240.528 134.165 240.891 134.32 241.371 134.32C241.798 134.32 242.134 134.208 242.379 133.984C242.635 133.749 242.822 133.445 242.939 133.072L244.779 133.872C244.502 134.672 244.07 135.259 243.483 135.632C242.907 136.005 242.203 136.192 241.371 136.192ZM249.653 136.192C249.034 136.192 248.479 136.091 247.989 135.888C247.509 135.685 247.098 135.392 246.757 135.008C246.426 134.624 246.17 134.16 245.989 133.616C245.807 133.072 245.717 132.464 245.717 131.792C245.717 131.12 245.807 130.512 245.989 129.968C246.17 129.424 246.426 128.965 246.757 128.592C247.098 128.208 247.509 127.915 247.989 127.712C248.479 127.509 249.034 127.408 249.653 127.408C250.271 127.408 250.821 127.509 251.301 127.712C251.791 127.915 252.202 128.208 252.533 128.592C252.874 128.965 253.135 129.424 253.317 129.968C253.498 130.512 253.589 131.12 253.589 131.792C253.589 132.464 253.498 133.072 253.317 133.616C253.135 134.16 252.874 134.624 252.533 135.008C252.202 135.392 251.791 135.685 251.301 135.888C250.821 136.091 250.271 136.192 249.653 136.192ZM249.653 134.32C250.122 134.32 250.485 134.176 250.741 133.888C250.997 133.6 251.125 133.189 251.125 132.656V130.944C251.125 130.411 250.997 130 250.741 129.712C250.485 129.424 250.122 129.28 249.653 129.28C249.183 129.28 248.821 129.424 248.565 129.712C248.309 130 248.181 130.411 248.181 130.944V132.656C248.181 133.189 248.309 133.6 248.565 133.888C248.821 134.176 249.183 134.32 249.653 134.32ZM255.276 136V127.6H257.644V129.024H257.74C257.889 128.576 258.145 128.197 258.508 127.888C258.871 127.568 259.367 127.408 259.996 127.408C260.572 127.408 261.063 127.552 261.468 127.84C261.873 128.128 262.167 128.549 262.348 129.104H262.396C262.471 128.869 262.583 128.651 262.732 128.448C262.892 128.235 263.084 128.053 263.308 127.904C263.532 127.755 263.783 127.637 264.06 127.552C264.337 127.456 264.636 127.408 264.956 127.408C265.767 127.408 266.385 127.696 266.812 128.272C267.249 128.848 267.468 129.669 267.468 130.736V136H265.1V130.928C265.1 129.861 264.716 129.328 263.948 129.328C263.596 129.328 263.276 129.429 262.988 129.632C262.7 129.835 262.556 130.144 262.556 130.56V136H260.188V130.928C260.188 129.861 259.804 129.328 259.036 129.328C258.865 129.328 258.695 129.355 258.524 129.408C258.364 129.451 258.215 129.525 258.076 129.632C257.948 129.739 257.841 129.872 257.756 130.032C257.681 130.181 257.644 130.357 257.644 130.56V136H255.276Z" fill="#191826"/>
<path d="M614.896 94H597.104C596.494 94 596 94.4942 596 95.1042V112.897C596 113.506 596.494 114 597.104 114H606.683V106.255H604.077V103.237H606.683V101.011C606.683 98.4275 608.261 97.0208 610.566 97.0208C611.67 97.0208 612.618 97.1033 612.895 97.14V99.84L611.297 99.8408C610.043 99.8408 609.801 100.437 609.801 101.31V103.238H612.79L612.401 106.256H609.801V114H614.897C615.506 114 616 113.506 616 112.896V95.1042C616 94.4942 615.506 94 614.896 94Z" fill="#191826"/>
<path fill-rule="evenodd" clip-rule="evenodd" d="M646 94C643.284 94 642.944 94.0117 641.878 94.06C638.246 94.2267 636.228 96.2417 636.061 99.8767C636.012 100.944 636 101.284 636 104C636 106.716 636.012 107.057 636.06 108.123C636.227 111.755 638.242 113.773 641.877 113.94C642.944 113.988 643.284 114 646 114C648.716 114 649.057 113.988 650.123 113.94C653.752 113.773 655.775 111.758 655.939 108.123C655.988 107.057 656 106.716 656 104C656 101.284 655.988 100.944 655.94 99.8775C655.777 96.2492 653.759 94.2275 650.124 94.0608C649.057 94.0117 648.716 94 646 94ZM646 95.8025C648.67 95.8025 648.987 95.8125 650.042 95.8608C652.752 95.9842 654.017 97.27 654.141 99.96C654.189 101.014 654.198 101.331 654.198 104.001C654.198 106.672 654.188 106.987 654.141 108.042C654.017 110.729 652.754 112.017 650.042 112.141C648.987 112.189 648.672 112.199 646 112.199C643.33 112.199 643.013 112.189 641.959 112.141C639.242 112.017 637.983 110.725 637.86 108.041C637.812 106.987 637.802 106.671 637.802 104C637.802 101.33 637.812 101.014 637.86 99.9592C637.984 97.27 639.247 95.9833 641.959 95.86C643.014 95.8125 643.33 95.8025 646 95.8025ZM640.865 104C640.865 101.164 643.164 98.865 646 98.865C648.836 98.865 651.135 101.164 651.135 104C651.135 106.837 648.836 109.136 646 109.136C643.164 109.136 640.865 106.836 640.865 104ZM646 107.333C644.159 107.333 642.667 105.842 642.667 104C642.667 102.159 644.159 100.667 646 100.667C647.841 100.667 649.333 102.159 649.333 104C649.333 105.842 647.841 107.333 646 107.333ZM650.137 98.6625C650.137 98 650.675 97.4625 651.338 97.4625C652.001 97.4625 652.538 98 652.538 98.6625C652.538 99.325 652.001 99.8625 651.338 99.8625C650.675 99.8625 650.137 99.325 650.137 98.6625Z" fill="#191826"/>
<path d="M696 98.1722C695.264 98.4988 694.473 98.7188 693.643 98.818C694.491 98.3105 695.142 97.5063 695.448 96.548C694.655 97.018 693.777 97.3597 692.842 97.5438C692.094 96.7463 691.027 96.248 689.847 96.248C687.198 96.248 685.251 98.7197 685.849 101.285C682.44 101.115 679.417 99.4813 677.393 96.9988C676.317 98.843 676.835 101.255 678.662 102.477C677.99 102.455 677.357 102.271 676.804 101.964C676.759 103.865 678.122 105.643 680.095 106.039C679.517 106.195 678.885 106.232 678.242 106.109C678.763 107.739 680.278 108.925 682.075 108.958C680.35 110.31 678.177 110.915 676 110.658C677.816 111.822 679.973 112.501 682.29 112.501C689.908 112.501 694.212 106.067 693.952 100.296C694.754 99.7172 695.45 98.9947 696 98.1722Z" fill="#191826"/>
</g>
<defs>
<clipPath id="clip0_0_122">
<rect width="696" height="143" fill="white"/>
</clipPath>
</defs>
</svg>
