<svg width="1110" height="79" viewBox="0 0 1110 79" fill="none" xmlns="http://www.w3.org/2000/svg">
<g clip-path="url(#clip0_0_140)">
<path d="M3.83986 17.9919V14.7119H15.1039L14.6239 15.5439C14.6239 15.4586 14.6239 15.3786 14.6239 15.3039C14.6239 15.2186 14.6239 15.1386 14.6239 15.0639C14.6239 14.4559 14.4799 13.8746 14.1919 13.3199C13.9039 12.7546 13.4559 12.2959 12.8479 11.9439C12.2505 11.5813 11.4825 11.3999 10.5439 11.3999C9.60519 11.3999 8.79452 11.6026 8.11186 12.0079C7.43986 12.4026 6.92252 12.9733 6.55986 13.7199C6.20786 14.4666 6.03186 15.3679 6.03186 16.4239C6.03186 17.5119 6.20252 18.4453 6.54386 19.2239C6.89586 19.9919 7.41319 20.5839 8.09586 20.9999C8.78919 21.4159 9.64786 21.6239 10.6719 21.6239C11.3332 21.6239 11.9039 21.5653 12.3839 21.4479C12.8639 21.3199 13.2532 21.1599 13.5519 20.9679C13.8612 20.7759 14.0959 20.5626 14.2559 20.3279C14.4159 20.0933 14.5119 19.8639 14.5439 19.6399H19.4399C19.3759 20.3546 19.1305 21.0586 18.7039 21.7519C18.2772 22.4346 17.6852 23.0533 16.9279 23.6079C16.1705 24.1519 15.2479 24.5839 14.1599 24.9039C13.0825 25.2239 11.8505 25.3839 10.4639 25.3839C8.58652 25.3839 6.94919 25.0106 5.55186 24.2639C4.15452 23.5066 3.07186 22.4666 2.30386 21.1439C1.53586 19.8106 1.15186 18.2746 1.15186 16.5359C1.15186 14.7759 1.54119 13.2346 2.31986 11.9119C3.10919 10.5786 4.20252 9.54394 5.59986 8.80794C7.00786 8.06128 8.63452 7.68794 10.4799 7.68794C12.3679 7.68794 13.9999 8.06661 15.3759 8.82394C16.7519 9.57061 17.8132 10.6213 18.5599 11.9759C19.3065 13.3199 19.6799 14.8879 19.6799 16.6799C19.6799 16.9466 19.6745 17.2026 19.6639 17.4479C19.6532 17.6933 19.6372 17.8746 19.6159 17.9919H3.83986Z" fill="#191826"/>
<path d="M29.4392 25.3839C28.0205 25.3839 26.7138 25.0479 25.5192 24.3759C24.3245 23.6933 23.3645 22.6853 22.6392 21.3519C21.9138 20.0186 21.5512 18.3759 21.5512 16.4239C21.5512 14.5573 21.9192 12.9733 22.6552 11.6719C23.4018 10.3706 24.3725 9.38394 25.5672 8.71194C26.7725 8.02928 28.0632 7.68794 29.4392 7.68794C30.7832 7.68794 32.0098 8.02928 33.1192 8.71194C34.2392 9.39461 35.1352 10.3279 35.8072 11.5119C36.4792 12.6853 36.8152 14.0399 36.8152 15.5759C36.8152 15.6293 36.8152 15.6826 36.8152 15.7359C36.8152 15.7786 36.8152 15.8266 36.8152 15.8799L34.6712 15.9119C34.6712 15.8799 34.6712 15.8479 34.6712 15.8159C34.6712 15.7733 34.6712 15.7359 34.6712 15.7039C34.6712 14.9039 34.4792 14.2159 34.0952 13.6399C33.7112 13.0639 33.2152 12.6213 32.6072 12.3119C31.9992 11.9919 31.3645 11.8319 30.7032 11.8319C29.6045 11.8319 28.6552 12.1999 27.8552 12.9359C27.0552 13.6613 26.6552 14.8239 26.6552 16.4239C26.6552 18.0239 27.0552 19.2026 27.8552 19.9599C28.6658 20.7066 29.6152 21.0799 30.7032 21.0799C31.3858 21.0799 32.0312 20.9199 32.6392 20.5999C33.2472 20.2693 33.7378 19.8053 34.1112 19.2079C34.4845 18.6106 34.6712 17.9066 34.6712 17.0959L36.8152 17.2079C36.8152 18.7333 36.4845 20.1146 35.8232 21.3519C35.1725 22.5786 34.2872 23.5599 33.1672 24.2959C32.0578 25.0213 30.8152 25.3839 29.4392 25.3839ZM34.6712 31.9919V8.00794H39.6472V31.9919H34.6712Z" fill="#191826"/>
<path d="M49.0165 25.3199C47.8111 25.3199 46.8191 25.1279 46.0405 24.7439C45.2618 24.3493 44.6485 23.8213 44.2005 23.1599C43.7525 22.4986 43.4378 21.7626 43.2565 20.9519C43.0751 20.1413 42.9845 19.3199 42.9845 18.4879C42.9845 18.1039 42.9845 17.6986 42.9845 17.2719C42.9845 16.8453 42.9845 16.4079 42.9845 15.9599V8.00794H47.9445V15.1759C47.9445 15.5386 47.9445 15.8906 47.9445 16.2319C47.9445 16.5733 47.9445 16.8879 47.9445 17.1759C47.9445 17.8906 48.0245 18.5466 48.1845 19.1439C48.3445 19.7413 48.6378 20.2213 49.0645 20.5839C49.5018 20.9466 50.1205 21.1279 50.9205 21.1279C51.6991 21.1279 52.3605 20.9093 52.9045 20.4719C53.4485 20.0239 53.8645 19.4533 54.1525 18.7599C54.4405 18.0666 54.5845 17.3519 54.5845 16.6159L55.9765 17.7519C55.9765 18.8186 55.8111 19.8106 55.4805 20.7279C55.1605 21.6453 54.7018 22.4506 54.1045 23.1439C53.5071 23.8266 52.7765 24.3599 51.9125 24.7439C51.0591 25.1279 50.0938 25.3199 49.0165 25.3199ZM54.5845 24.9999V8.00794H59.5445V24.9999H54.5845Z" fill="#191826"/>
<path d="M68.5813 25.3519C67.3439 25.3519 66.2399 25.1546 65.2693 24.7599C64.3093 24.3653 63.5573 23.7946 63.0133 23.0479C62.4693 22.3013 62.1973 21.3946 62.1973 20.3279C62.1973 19.1226 62.5279 18.1413 63.1893 17.3839C63.8506 16.6266 64.7253 16.0506 65.8133 15.6559C66.9119 15.2506 68.1013 14.9839 69.3813 14.8559C71.2479 14.6746 72.5333 14.5093 73.2373 14.3599C73.9519 14.2106 74.3093 13.9493 74.3093 13.5759C74.3093 13.5653 74.3093 13.5546 74.3093 13.5439C74.3093 12.9146 74.0053 12.4186 73.3973 12.0559C72.7999 11.6933 71.9626 11.5119 70.8853 11.5119C69.7439 11.5119 68.8693 11.7199 68.2613 12.1359C67.6639 12.5413 67.3653 13.1653 67.3653 14.0079H62.4853C62.4853 12.6426 62.8533 11.4906 63.5893 10.5519C64.3359 9.61328 65.3439 8.90394 66.6133 8.42394C67.8826 7.93328 69.3173 7.68794 70.9173 7.68794C72.4106 7.68794 73.7919 7.91728 75.0613 8.37594C76.3306 8.82394 77.3493 9.50128 78.1173 10.4079C78.8959 11.3146 79.2853 12.4666 79.2853 13.8639C79.2853 14.0879 79.2853 14.3119 79.2853 14.5359C79.2853 14.7493 79.2853 14.9679 79.2853 15.1919V21.2079C79.2853 21.6453 79.2959 22.0666 79.3173 22.4719C79.3493 22.8666 79.4133 23.2293 79.5093 23.5599C79.6159 23.9333 79.7493 24.2426 79.9093 24.4879C80.0693 24.7333 80.2026 24.9039 80.3093 24.9999H75.4293C75.3546 24.9253 75.2373 24.7706 75.0773 24.5359C74.9279 24.3013 74.7999 24.0293 74.6933 23.7199C74.5653 23.3466 74.4693 22.9733 74.4053 22.5999C74.3519 22.2159 74.3253 21.7679 74.3253 21.2559L75.3493 21.9599C75.0506 22.6639 74.5653 23.2719 73.8933 23.7839C73.2319 24.2853 72.4426 24.6746 71.5253 24.9519C70.6186 25.2186 69.6373 25.3519 68.5813 25.3519ZM69.9093 21.6399C70.6879 21.6399 71.4133 21.5013 72.0853 21.2239C72.7679 20.9359 73.3226 20.4879 73.7493 19.8799C74.1759 19.2719 74.3893 18.4773 74.3893 17.4959V15.7839L75.6213 16.9839C74.9173 17.2399 74.1013 17.4533 73.1733 17.6239C72.2559 17.7839 71.3386 17.9119 70.4213 18.0079C69.3333 18.1146 68.5173 18.3013 67.9733 18.5679C67.4399 18.8239 67.1733 19.2613 67.1733 19.8799C67.1733 20.4666 67.4026 20.9093 67.8613 21.2079C68.3199 21.4959 69.0026 21.6399 69.9093 21.6399Z" fill="#191826"/>
<path d="M87.6066 -0.00805664V24.9999H82.7106V-0.00805664H87.6066Z" fill="#191826"/>
<path d="M90.9279 24.9999V8.00794H95.8399V24.9999H90.9279ZM93.3759 5.23994C92.6079 5.23994 91.9359 5.03728 91.3599 4.63194C90.7946 4.22661 90.5119 3.65594 90.5119 2.91994C90.5119 2.17328 90.7946 1.59728 91.3599 1.19194C91.9359 0.786611 92.6079 0.583944 93.3759 0.583944C94.1545 0.583944 94.8266 0.786611 95.3919 1.19194C95.9679 1.59728 96.2559 2.17328 96.2559 2.91994C96.2559 3.66661 95.9679 4.24261 95.3919 4.64794C94.8266 5.04261 94.1545 5.23994 93.3759 5.23994Z" fill="#191826"/>
<path d="M103.386 21.1119H112.602V24.9999H98.0744V21.3199L107.066 11.7039L107.178 11.8799H98.3944V8.00794H112.41V11.6879L103.498 21.2719L103.386 21.1119Z" fill="#191826"/>
<path d="M116.541 17.9919V14.7119H127.805L127.325 15.5439C127.325 15.4586 127.325 15.3786 127.325 15.3039C127.325 15.2186 127.325 15.1386 127.325 15.0639C127.325 14.4559 127.181 13.8746 126.893 13.3199C126.605 12.7546 126.157 12.2959 125.549 11.9439C124.952 11.5813 124.184 11.3999 123.245 11.3999C122.307 11.3999 121.496 11.6026 120.813 12.0079C120.141 12.4026 119.624 12.9733 119.261 13.7199C118.909 14.4666 118.733 15.3679 118.733 16.4239C118.733 17.5119 118.904 18.4453 119.245 19.2239C119.597 19.9919 120.115 20.5839 120.797 20.9999C121.491 21.4159 122.349 21.6239 123.373 21.6239C124.035 21.6239 124.605 21.5653 125.085 21.4479C125.565 21.3199 125.955 21.1599 126.253 20.9679C126.563 20.7759 126.797 20.5626 126.957 20.3279C127.117 20.0933 127.213 19.8639 127.245 19.6399H132.141C132.077 20.3546 131.832 21.0586 131.405 21.7519C130.979 22.4346 130.387 23.0533 129.629 23.6079C128.872 24.1519 127.949 24.5839 126.861 24.9039C125.784 25.2239 124.552 25.3839 123.165 25.3839C121.288 25.3839 119.651 25.0106 118.253 24.2639C116.856 23.5066 115.773 22.4666 115.005 21.1439C114.237 19.8106 113.853 18.2746 113.853 16.5359C113.853 14.7759 114.243 13.2346 115.021 11.9119C115.811 10.5786 116.904 9.54394 118.301 8.80794C119.709 8.06128 121.336 7.68794 123.181 7.68794C125.069 7.68794 126.701 8.06661 128.077 8.82394C129.453 9.57061 130.515 10.6213 131.261 11.9759C132.008 13.3199 132.381 14.8879 132.381 16.6799C132.381 16.9466 132.376 17.2026 132.365 17.4479C132.355 17.6933 132.339 17.8746 132.317 17.9919H116.541Z" fill="#191826"/>
<path d="M135.037 24.9999V8.00794H140.013V13.8639L138.989 13.2239C139.106 12.4239 139.319 11.6879 139.629 11.0159C139.938 10.3439 140.338 9.76261 140.829 9.27194C141.319 8.77061 141.901 8.38128 142.573 8.10394C143.255 7.82661 144.034 7.68794 144.909 7.68794C145.591 7.68794 146.125 7.74128 146.509 7.84794C146.903 7.94394 147.149 8.01861 147.245 8.07194L146.429 12.5199C146.333 12.4666 146.119 12.3813 145.789 12.2639C145.458 12.1466 145.031 12.0879 144.509 12.0879C143.655 12.0879 142.941 12.2319 142.365 12.5199C141.789 12.8079 141.325 13.1919 140.973 13.6719C140.631 14.1413 140.386 14.6639 140.237 15.2399C140.087 15.8159 140.013 16.3973 140.013 16.9839V24.9999H135.037Z" fill="#191826"/>
<path d="M293.48 19L292.36 15.704H287.848L286.728 19H285.368L289.272 7.832H290.984L294.888 19H293.48ZM290.136 9.08H290.056L288.168 14.52H292.024L290.136 9.08ZM297.97 19C297.522 19 297.181 18.8773 296.946 18.632C296.722 18.376 296.61 18.056 296.61 17.672V7.16H297.89V17.88H299.106V19H297.97ZM302.251 19C301.803 19 301.462 18.8773 301.227 18.632C301.003 18.376 300.891 18.056 300.891 17.672V7.16H302.171V17.88H303.387V19H302.251ZM309.032 19V10.744H310.312V12.264H310.392C310.541 11.8693 310.808 11.5173 311.192 11.208C311.576 10.8987 312.104 10.744 312.776 10.744H313.272V12.024H312.52C311.827 12.024 311.283 12.1573 310.888 12.424C310.504 12.68 310.312 13.0053 310.312 13.4V19H309.032ZM315.547 8.808C315.27 8.808 315.067 8.744 314.939 8.616C314.822 8.47733 314.763 8.30133 314.763 8.088V7.88C314.763 7.66667 314.822 7.496 314.939 7.368C315.067 7.22933 315.27 7.16 315.547 7.16C315.824 7.16 316.022 7.22933 316.139 7.368C316.267 7.496 316.331 7.66667 316.331 7.88V8.088C316.331 8.30133 316.267 8.47733 316.139 8.616C316.022 8.744 315.824 8.808 315.547 8.808ZM314.907 10.744H316.187V19H314.907V10.744ZM325.867 19.912C325.867 20.7653 325.531 21.3893 324.859 21.784C324.198 22.1893 323.2 22.392 321.867 22.392C320.576 22.392 319.648 22.216 319.083 21.864C318.518 21.512 318.235 21.0107 318.235 20.36C318.235 19.912 318.352 19.56 318.587 19.304C318.822 19.0587 319.142 18.8773 319.547 18.76V18.584C319.056 18.3493 318.811 17.9653 318.811 17.432C318.811 17.016 318.944 16.7013 319.211 16.488C319.478 16.264 319.819 16.0987 320.235 15.992V15.928C319.744 15.6933 319.36 15.3573 319.083 14.92C318.816 14.4827 318.683 13.976 318.683 13.4C318.683 12.984 318.758 12.6 318.907 12.248C319.056 11.896 319.264 11.5973 319.531 11.352C319.808 11.096 320.134 10.8987 320.507 10.76C320.891 10.6213 321.318 10.552 321.787 10.552C322.374 10.552 322.896 10.6587 323.355 10.872V10.728C323.355 10.408 323.43 10.1467 323.579 9.944C323.728 9.73067 323.974 9.624 324.315 9.624H325.547V10.744H323.979V11.272C324.278 11.528 324.507 11.8373 324.667 12.2C324.838 12.552 324.923 12.952 324.923 13.4C324.923 13.816 324.848 14.2 324.699 14.552C324.55 14.904 324.336 15.208 324.059 15.464C323.792 15.7093 323.467 15.9013 323.083 16.04C322.699 16.1787 322.272 16.248 321.803 16.248C321.536 16.248 321.27 16.2213 321.003 16.168C320.726 16.2427 320.475 16.3547 320.251 16.504C320.027 16.6427 319.915 16.84 319.915 17.096C319.915 17.3413 320.032 17.5067 320.267 17.592C320.502 17.6773 320.806 17.72 321.179 17.72H322.939C323.963 17.72 324.704 17.9173 325.163 18.312C325.632 18.696 325.867 19.2293 325.867 19.912ZM324.667 20.008C324.667 19.6773 324.539 19.4107 324.283 19.208C324.038 19.016 323.595 18.92 322.955 18.92H320.203C319.691 19.1547 319.435 19.528 319.435 20.04C319.435 20.4027 319.568 20.712 319.835 20.968C320.112 21.224 320.576 21.352 321.227 21.352H322.411C323.126 21.352 323.68 21.24 324.075 21.016C324.47 20.792 324.667 20.456 324.667 20.008ZM321.803 15.224C322.347 15.224 322.779 15.096 323.099 14.84C323.419 14.5733 323.579 14.168 323.579 13.624V13.176C323.579 12.632 323.419 12.232 323.099 11.976C322.779 11.7093 322.347 11.576 321.803 11.576C321.259 11.576 320.827 11.7093 320.507 11.976C320.187 12.232 320.027 12.632 320.027 13.176V13.624C320.027 14.168 320.187 14.5733 320.507 14.84C320.827 15.096 321.259 15.224 321.803 15.224ZM327.36 7.16H328.64V12.088H328.704C328.907 11.6187 329.189 11.2453 329.552 10.968C329.925 10.6907 330.421 10.552 331.04 10.552C331.893 10.552 332.565 10.8293 333.056 11.384C333.557 11.928 333.808 12.7013 333.808 13.704V19H332.528V13.928C332.528 12.4453 331.904 11.704 330.656 11.704C330.4 11.704 330.149 11.736 329.904 11.8C329.669 11.864 329.456 11.96 329.264 12.088C329.072 12.216 328.917 12.3813 328.8 12.584C328.693 12.776 328.64 13.0053 328.64 13.272V19H327.36V7.16ZM338.278 19C337.83 19 337.488 18.8773 337.254 18.632C337.03 18.376 336.918 18.0453 336.918 17.64V11.864H335.558V10.744H336.326C336.603 10.744 336.79 10.6907 336.886 10.584C336.992 10.4667 337.046 10.2693 337.046 9.992V8.456H338.198V10.744H340.006V11.864H338.198V17.88H339.878V19H338.278ZM344.543 19.192C343.775 19.192 343.13 19.048 342.607 18.76C342.095 18.4613 341.652 18.0667 341.279 17.576L342.191 16.84C342.511 17.2453 342.868 17.56 343.263 17.784C343.658 17.9973 344.116 18.104 344.639 18.104C345.183 18.104 345.604 17.9867 345.903 17.752C346.212 17.5173 346.367 17.1867 346.367 16.76C346.367 16.44 346.26 16.168 346.047 15.944C345.844 15.7093 345.471 15.5493 344.927 15.464L344.271 15.368C343.887 15.3147 343.535 15.2347 343.215 15.128C342.895 15.0107 342.612 14.8613 342.367 14.68C342.132 14.488 341.946 14.2533 341.807 13.976C341.679 13.6987 341.615 13.368 341.615 12.984C341.615 12.5787 341.69 12.2267 341.839 11.928C341.988 11.6187 342.191 11.3627 342.447 11.16C342.714 10.9573 343.028 10.808 343.391 10.712C343.754 10.6053 344.143 10.552 344.559 10.552C345.231 10.552 345.791 10.6693 346.239 10.904C346.698 11.1387 347.098 11.464 347.439 11.88L346.591 12.648C346.41 12.392 346.143 12.1627 345.791 11.96C345.439 11.7467 344.996 11.64 344.463 11.64C343.93 11.64 343.524 11.7573 343.247 11.992C342.98 12.216 342.847 12.5253 342.847 12.92C342.847 13.3253 342.98 13.6187 343.247 13.8C343.524 13.9813 343.919 14.1147 344.431 14.2L345.071 14.296C345.988 14.4347 346.639 14.7013 347.023 15.096C347.407 15.48 347.599 15.9867 347.599 16.616C347.599 17.416 347.327 18.0453 346.783 18.504C346.239 18.9627 345.492 19.192 344.543 19.192ZM353.641 19V10.744H354.921V12.264H355.001C355.151 11.8693 355.417 11.5173 355.801 11.208C356.185 10.8987 356.713 10.744 357.385 10.744H357.881V12.024H357.129C356.436 12.024 355.892 12.1573 355.497 12.424C355.113 12.68 354.921 13.0053 354.921 13.4V19H353.641ZM362.542 19.192C361.977 19.192 361.465 19.0907 361.006 18.888C360.558 18.6853 360.169 18.3973 359.838 18.024C359.518 17.64 359.267 17.1867 359.086 16.664C358.915 16.1307 358.83 15.5333 358.83 14.872C358.83 14.2213 358.915 13.6293 359.086 13.096C359.267 12.5627 359.518 12.1093 359.838 11.736C360.169 11.352 360.558 11.0587 361.006 10.856C361.465 10.6533 361.977 10.552 362.542 10.552C363.097 10.552 363.593 10.6533 364.03 10.856C364.467 11.0587 364.841 11.3413 365.15 11.704C365.459 12.056 365.694 12.4773 365.854 12.968C366.025 13.4587 366.11 13.9973 366.11 14.584V15.192H360.174V15.576C360.174 15.928 360.227 16.2587 360.334 16.568C360.451 16.8667 360.611 17.128 360.814 17.352C361.027 17.576 361.283 17.752 361.582 17.88C361.891 18.008 362.238 18.072 362.622 18.072C363.145 18.072 363.598 17.9493 363.982 17.704C364.377 17.4587 364.681 17.1067 364.894 16.648L365.806 17.304C365.539 17.8693 365.123 18.328 364.558 18.68C363.993 19.0213 363.321 19.192 362.542 19.192ZM362.542 11.624C362.19 11.624 361.87 11.688 361.582 11.816C361.294 11.9333 361.043 12.104 360.83 12.328C360.627 12.552 360.467 12.8187 360.35 13.128C360.233 13.4267 360.174 13.7573 360.174 14.12V14.232H364.734V14.056C364.734 13.32 364.531 12.7333 364.126 12.296C363.731 11.848 363.203 11.624 362.542 11.624ZM370.699 19.192C369.931 19.192 369.286 19.048 368.763 18.76C368.251 18.4613 367.809 18.0667 367.435 17.576L368.347 16.84C368.667 17.2453 369.025 17.56 369.419 17.784C369.814 17.9973 370.273 18.104 370.795 18.104C371.339 18.104 371.761 17.9867 372.059 17.752C372.369 17.5173 372.523 17.1867 372.523 16.76C372.523 16.44 372.417 16.168 372.203 15.944C372.001 15.7093 371.627 15.5493 371.083 15.464L370.427 15.368C370.043 15.3147 369.691 15.2347 369.371 15.128C369.051 15.0107 368.769 14.8613 368.523 14.68C368.289 14.488 368.102 14.2533 367.963 13.976C367.835 13.6987 367.771 13.368 367.771 12.984C367.771 12.5787 367.846 12.2267 367.995 11.928C368.145 11.6187 368.347 11.3627 368.603 11.16C368.87 10.9573 369.185 10.808 369.547 10.712C369.91 10.6053 370.299 10.552 370.715 10.552C371.387 10.552 371.947 10.6693 372.395 10.904C372.854 11.1387 373.254 11.464 373.595 11.88L372.747 12.648C372.566 12.392 372.299 12.1627 371.947 11.96C371.595 11.7467 371.153 11.64 370.619 11.64C370.086 11.64 369.681 11.7573 369.403 11.992C369.137 12.216 369.003 12.5253 369.003 12.92C369.003 13.3253 369.137 13.6187 369.403 13.8C369.681 13.9813 370.075 14.1147 370.587 14.2L371.227 14.296C372.145 14.4347 372.795 14.7013 373.179 15.096C373.563 15.48 373.755 15.9867 373.755 16.616C373.755 17.416 373.483 18.0453 372.939 18.504C372.395 18.9627 371.649 19.192 370.699 19.192ZM379.12 19.192C378.555 19.192 378.043 19.0907 377.584 18.888C377.136 18.6853 376.747 18.3973 376.416 18.024C376.096 17.64 375.846 17.1867 375.664 16.664C375.494 16.1307 375.408 15.5333 375.408 14.872C375.408 14.2213 375.494 13.6293 375.664 13.096C375.846 12.5627 376.096 12.1093 376.416 11.736C376.747 11.352 377.136 11.0587 377.584 10.856C378.043 10.6533 378.555 10.552 379.12 10.552C379.675 10.552 380.171 10.6533 380.608 10.856C381.046 11.0587 381.419 11.3413 381.728 11.704C382.038 12.056 382.272 12.4773 382.432 12.968C382.603 13.4587 382.688 13.9973 382.688 14.584V15.192H376.752V15.576C376.752 15.928 376.806 16.2587 376.912 16.568C377.03 16.8667 377.19 17.128 377.392 17.352C377.606 17.576 377.862 17.752 378.16 17.88C378.47 18.008 378.816 18.072 379.2 18.072C379.723 18.072 380.176 17.9493 380.56 17.704C380.955 17.4587 381.259 17.1067 381.472 16.648L382.384 17.304C382.118 17.8693 381.702 18.328 381.136 18.68C380.571 19.0213 379.899 19.192 379.12 19.192ZM379.12 11.624C378.768 11.624 378.448 11.688 378.16 11.816C377.872 11.9333 377.622 12.104 377.408 12.328C377.206 12.552 377.046 12.8187 376.928 13.128C376.811 13.4267 376.752 13.7573 376.752 14.12V14.232H381.312V14.056C381.312 13.32 381.11 12.7333 380.704 12.296C380.31 11.848 379.782 11.624 379.12 11.624ZM384.798 19V10.744H386.078V12.264H386.158C386.307 11.8693 386.574 11.5173 386.958 11.208C387.342 10.8987 387.87 10.744 388.542 10.744H389.038V12.024H388.286C387.592 12.024 387.048 12.1573 386.654 12.424C386.27 12.68 386.078 13.0053 386.078 13.4V19H384.798ZM392.653 19L389.757 10.744H391.037L392.477 14.84L393.373 17.656H393.453L394.349 14.84L395.821 10.744H397.053L394.141 19H392.653ZM401.683 19.192C401.117 19.192 400.605 19.0907 400.147 18.888C399.699 18.6853 399.309 18.3973 398.979 18.024C398.659 17.64 398.408 17.1867 398.227 16.664C398.056 16.1307 397.971 15.5333 397.971 14.872C397.971 14.2213 398.056 13.6293 398.227 13.096C398.408 12.5627 398.659 12.1093 398.979 11.736C399.309 11.352 399.699 11.0587 400.147 10.856C400.605 10.6533 401.117 10.552 401.683 10.552C402.237 10.552 402.733 10.6533 403.171 10.856C403.608 11.0587 403.981 11.3413 404.291 11.704C404.6 12.056 404.835 12.4773 404.995 12.968C405.165 13.4587 405.251 13.9973 405.251 14.584V15.192H399.315V15.576C399.315 15.928 399.368 16.2587 399.475 16.568C399.592 16.8667 399.752 17.128 399.955 17.352C400.168 17.576 400.424 17.752 400.723 17.88C401.032 18.008 401.379 18.072 401.763 18.072C402.285 18.072 402.739 17.9493 403.123 17.704C403.517 17.4587 403.821 17.1067 404.035 16.648L404.947 17.304C404.68 17.8693 404.264 18.328 403.699 18.68C403.133 19.0213 402.461 19.192 401.683 19.192ZM401.683 11.624C401.331 11.624 401.011 11.688 400.723 11.816C400.435 11.9333 400.184 12.104 399.971 12.328C399.768 12.552 399.608 12.8187 399.491 13.128C399.373 13.4267 399.315 13.7573 399.315 14.12V14.232H403.875V14.056C403.875 13.32 403.672 12.7333 403.267 12.296C402.872 11.848 402.344 11.624 401.683 11.624ZM412.64 17.656H412.576C412.075 18.68 411.269 19.192 410.16 19.192C409.648 19.192 409.184 19.0907 408.768 18.888C408.352 18.6853 407.995 18.3973 407.696 18.024C407.408 17.6507 407.184 17.1973 407.024 16.664C406.875 16.1307 406.8 15.5333 406.8 14.872C406.8 14.2107 406.875 13.6133 407.024 13.08C407.184 12.5467 407.408 12.0933 407.696 11.72C407.995 11.3467 408.352 11.0587 408.768 10.856C409.184 10.6533 409.648 10.552 410.16 10.552C410.736 10.552 411.227 10.68 411.632 10.936C412.048 11.1813 412.363 11.5653 412.576 12.088H412.64V7.16H413.92V19H412.64V17.656ZM410.512 18.04C410.8 18.04 411.072 18.0027 411.328 17.928C411.595 17.8533 411.824 17.7467 412.016 17.608C412.208 17.4587 412.357 17.2827 412.464 17.08C412.581 16.8667 412.64 16.6267 412.64 16.36V13.288C412.64 13.064 412.581 12.856 412.464 12.664C412.357 12.4613 412.208 12.2907 412.016 12.152C411.824 12.0133 411.595 11.9067 411.328 11.832C411.072 11.7467 410.8 11.704 410.512 11.704C409.787 11.704 409.216 11.9333 408.8 12.392C408.384 12.84 408.176 13.432 408.176 14.168V15.576C408.176 16.312 408.384 16.9093 408.8 17.368C409.216 17.816 409.787 18.04 410.512 18.04ZM425.271 19.176C424.524 19.176 423.825 19.0427 423.174 18.776C422.524 18.5093 421.959 18.1307 421.479 17.64C420.999 17.1387 420.62 16.5307 420.343 15.816C420.065 15.1013 419.927 14.3013 419.927 13.416C419.927 12.5307 420.065 11.7307 420.343 11.016C420.62 10.3013 420.999 9.69867 421.479 9.208C421.959 8.70667 422.524 8.32267 423.174 8.056C423.825 7.78933 424.524 7.656 425.271 7.656C426.017 7.656 426.716 7.78933 427.367 8.056C428.017 8.32267 428.583 8.70667 429.062 9.208C429.543 9.69867 429.921 10.3013 430.199 11.016C430.476 11.7307 430.615 12.5307 430.615 13.416C430.615 14.3013 430.476 15.1013 430.199 15.816C429.921 16.5307 429.543 17.1387 429.062 17.64C428.583 18.1307 428.017 18.5093 427.367 18.776C426.716 19.0427 426.017 19.176 425.271 19.176ZM425.271 18.216C425.889 18.216 426.46 18.1093 426.983 17.896C427.505 17.672 427.953 17.368 428.327 16.984C428.711 16.6 429.004 16.1467 429.207 15.624C429.42 15.0907 429.527 14.5147 429.527 13.896V12.936C429.527 12.3173 429.42 11.7467 429.207 11.224C429.004 10.6907 428.711 10.232 428.327 9.848C427.953 9.464 427.505 9.16533 426.983 8.952C426.46 8.728 425.889 8.616 425.271 8.616C424.641 8.616 424.065 8.728 423.543 8.952C423.031 9.16533 422.583 9.464 422.199 9.848C421.825 10.232 421.532 10.6907 421.319 11.224C421.116 11.7467 421.015 12.3173 421.015 12.936V13.896C421.015 14.5147 421.116 15.0907 421.319 15.624C421.532 16.1467 421.825 16.6 422.199 16.984C422.583 17.368 423.031 17.672 423.543 17.896C424.065 18.1093 424.641 18.216 425.271 18.216ZM425.399 16.52C424.567 16.52 423.916 16.2427 423.447 15.688C422.988 15.1227 422.759 14.3653 422.759 13.416C422.759 12.4667 422.988 11.7147 423.447 11.16C423.916 10.5947 424.567 10.312 425.399 10.312C425.943 10.312 426.385 10.44 426.727 10.696C427.079 10.952 427.345 11.288 427.527 11.704L426.615 12.216C426.497 11.9387 426.343 11.72 426.151 11.56C425.959 11.4 425.708 11.32 425.399 11.32C424.929 11.32 424.572 11.4693 424.327 11.768C424.092 12.056 423.975 12.4347 423.975 12.904V13.944C423.975 14.4133 424.092 14.7973 424.327 15.096C424.572 15.384 424.929 15.528 425.399 15.528C425.74 15.528 426.012 15.4427 426.215 15.272C426.417 15.0907 426.599 14.856 426.759 14.568L427.623 15.112C427.441 15.5173 427.164 15.8533 426.791 16.12C426.428 16.3867 425.964 16.52 425.399 16.52ZM436.754 19V7.832H443.57V9.016H438.098V12.76H443.25V13.944H438.098V17.816H443.57V19H436.754ZM451.078 17.656H451.014C450.512 18.68 449.707 19.192 448.598 19.192C448.086 19.192 447.622 19.0907 447.206 18.888C446.79 18.6853 446.432 18.3973 446.134 18.024C445.846 17.6507 445.622 17.1973 445.462 16.664C445.312 16.1307 445.238 15.5333 445.238 14.872C445.238 14.2107 445.312 13.6133 445.462 13.08C445.622 12.5467 445.846 12.0933 446.134 11.72C446.432 11.3467 446.79 11.0587 447.206 10.856C447.622 10.6533 448.086 10.552 448.598 10.552C449.174 10.552 449.664 10.68 450.07 10.936C450.486 11.1813 450.8 11.5653 451.014 12.088H451.078V10.744H452.358V22.2H451.078V17.656ZM448.95 18.04C449.238 18.04 449.51 18.0027 449.766 17.928C450.032 17.8533 450.262 17.7467 450.454 17.608C450.646 17.4587 450.795 17.2827 450.902 17.08C451.019 16.8667 451.078 16.6267 451.078 16.36V13.288C451.078 13.064 451.019 12.856 450.902 12.664C450.795 12.4613 450.646 12.2907 450.454 12.152C450.262 12.0133 450.032 11.9067 449.766 11.832C449.51 11.7467 449.238 11.704 448.95 11.704C448.224 11.704 447.654 11.9333 447.238 12.392C446.822 12.84 446.614 13.432 446.614 14.168V15.576C446.614 16.312 446.822 16.9093 447.238 17.368C447.654 17.816 448.224 18.04 448.95 18.04ZM460.167 17.656H460.103C460.017 17.848 459.911 18.04 459.783 18.232C459.665 18.4133 459.516 18.5787 459.335 18.728C459.153 18.8667 458.935 18.9787 458.679 19.064C458.423 19.1493 458.124 19.192 457.783 19.192C456.929 19.192 456.252 18.92 455.751 18.376C455.249 17.8213 454.999 17.0427 454.999 16.04V10.744H456.279V15.816C456.279 17.2987 456.908 18.04 458.167 18.04C458.423 18.04 458.668 18.008 458.903 17.944C459.148 17.88 459.361 17.784 459.543 17.656C459.735 17.528 459.884 17.368 459.991 17.176C460.108 16.9733 460.167 16.7333 460.167 16.456V10.744H461.447V19H460.167V17.656ZM470.173 19C469.693 19 469.346 18.872 469.133 18.616C468.93 18.36 468.802 18.04 468.749 17.656H468.669C468.487 18.168 468.189 18.552 467.773 18.808C467.357 19.064 466.861 19.192 466.285 19.192C465.41 19.192 464.727 18.968 464.237 18.52C463.757 18.072 463.517 17.464 463.517 16.696C463.517 15.9173 463.799 15.32 464.365 14.904C464.941 14.488 465.831 14.28 467.036 14.28H468.669V13.464C468.669 12.8773 468.509 12.4293 468.189 12.12C467.869 11.8107 467.378 11.656 466.717 11.656C466.215 11.656 465.794 11.768 465.453 11.992C465.122 12.216 464.845 12.5147 464.621 12.888L463.853 12.168C464.077 11.72 464.434 11.3413 464.924 11.032C465.415 10.712 466.034 10.552 466.781 10.552C467.783 10.552 468.562 10.7973 469.117 11.288C469.671 11.7787 469.949 12.4613 469.949 13.336V17.88H470.892V19H470.173ZM466.493 18.104C466.813 18.104 467.106 18.0667 467.373 17.992C467.639 17.9173 467.869 17.8107 468.061 17.672C468.253 17.5333 468.402 17.3733 468.509 17.192C468.615 17.0107 468.669 16.8133 468.669 16.6V15.24H466.973C466.237 15.24 465.698 15.3467 465.357 15.56C465.026 15.7733 464.861 16.0827 464.861 16.488V16.824C464.861 17.2293 465.005 17.544 465.293 17.768C465.591 17.992 465.991 18.104 466.493 18.104ZM474.079 19C473.631 19 473.29 18.8773 473.055 18.632C472.831 18.376 472.719 18.056 472.719 17.672V7.16H473.999V17.88H475.215V19H474.079ZM477.719 8.808C477.441 8.808 477.239 8.744 477.111 8.616C476.993 8.47733 476.935 8.30133 476.935 8.088V7.88C476.935 7.66667 476.993 7.496 477.111 7.368C477.239 7.22933 477.441 7.16 477.719 7.16C477.996 7.16 478.193 7.22933 478.311 7.368C478.439 7.496 478.503 7.66667 478.503 7.88V8.088C478.503 8.30133 478.439 8.47733 478.311 8.616C478.193 8.744 477.996 8.808 477.719 8.808ZM477.079 10.744H478.359V19H477.079V10.744ZM480.247 19V17.928L484.935 11.864H480.391V10.744H486.487V11.704L481.703 17.88H486.615V19H480.247ZM491.448 19.192C490.883 19.192 490.371 19.0907 489.912 18.888C489.464 18.6853 489.075 18.3973 488.744 18.024C488.424 17.64 488.174 17.1867 487.992 16.664C487.822 16.1307 487.736 15.5333 487.736 14.872C487.736 14.2213 487.822 13.6293 487.992 13.096C488.174 12.5627 488.424 12.1093 488.744 11.736C489.075 11.352 489.464 11.0587 489.912 10.856C490.371 10.6533 490.883 10.552 491.448 10.552C492.003 10.552 492.499 10.6533 492.936 10.856C493.374 11.0587 493.747 11.3413 494.056 11.704C494.366 12.056 494.6 12.4773 494.76 12.968C494.931 13.4587 495.016 13.9973 495.016 14.584V15.192H489.08V15.576C489.08 15.928 489.134 16.2587 489.24 16.568C489.358 16.8667 489.518 17.128 489.72 17.352C489.934 17.576 490.19 17.752 490.488 17.88C490.798 18.008 491.144 18.072 491.528 18.072C492.051 18.072 492.504 17.9493 492.888 17.704C493.283 17.4587 493.587 17.1067 493.8 16.648L494.712 17.304C494.446 17.8693 494.03 18.328 493.464 18.68C492.899 19.0213 492.227 19.192 491.448 19.192ZM491.448 11.624C491.096 11.624 490.776 11.688 490.488 11.816C490.2 11.9333 489.95 12.104 489.736 12.328C489.534 12.552 489.374 12.8187 489.256 13.128C489.139 13.4267 489.08 13.7573 489.08 14.12V14.232H493.64V14.056C493.64 13.32 493.438 12.7333 493.032 12.296C492.638 11.848 492.11 11.624 491.448 11.624ZM497.126 19V10.744H498.406V12.264H498.486C498.635 11.8693 498.902 11.5173 499.286 11.208C499.67 10.8987 500.198 10.744 500.87 10.744H501.366V12.024H500.614C499.92 12.024 499.376 12.1573 498.982 12.424C498.598 12.68 498.406 13.0053 498.406 13.4V19H497.126ZM513.95 19H506.622V17.624L510.27 14.264C510.793 13.784 511.23 13.2773 511.582 12.744C511.934 12.2 512.11 11.656 512.11 11.112V10.92C512.11 10.3013 511.939 9.8 511.598 9.416C511.257 9.032 510.739 8.84 510.046 8.84C509.705 8.84 509.406 8.888 509.15 8.984C508.894 9.08 508.67 9.21333 508.478 9.384C508.297 9.55467 508.142 9.75733 508.014 9.992C507.897 10.216 507.801 10.4613 507.726 10.728L506.526 10.264C506.633 9.93333 506.777 9.61333 506.958 9.304C507.15 8.984 507.385 8.70133 507.662 8.456C507.95 8.21067 508.291 8.01333 508.686 7.864C509.091 7.71467 509.566 7.64 510.11 7.64C510.654 7.64 511.139 7.72 511.566 7.88C511.993 8.04 512.35 8.264 512.638 8.552C512.926 8.84 513.145 9.18133 513.294 9.576C513.454 9.97067 513.534 10.408 513.534 10.888C513.534 11.3253 513.47 11.7307 513.342 12.104C513.225 12.4773 513.059 12.8347 512.846 13.176C512.633 13.5067 512.371 13.832 512.062 14.152C511.763 14.472 511.438 14.792 511.086 15.112L508.078 17.816H513.95V19ZM519.816 19.192C518.482 19.192 517.506 18.6853 516.888 17.672C516.28 16.6587 515.976 15.24 515.976 13.416C515.976 11.592 516.28 10.1733 516.888 9.16C517.506 8.14667 518.482 7.64 519.816 7.64C521.149 7.64 522.12 8.14667 522.728 9.16C523.346 10.1733 523.656 11.592 523.656 13.416C523.656 15.24 523.346 16.6587 522.728 17.672C522.12 18.6853 521.149 19.192 519.816 19.192ZM519.816 18.024C520.253 18.024 520.626 17.9333 520.936 17.752C521.245 17.5707 521.496 17.3147 521.688 16.984C521.88 16.6533 522.018 16.264 522.104 15.816C522.2 15.368 522.248 14.872 522.248 14.328V12.504C522.248 11.96 522.2 11.464 522.104 11.016C522.018 10.568 521.88 10.1787 521.688 9.848C521.496 9.51733 521.245 9.26133 520.936 9.08C520.626 8.89867 520.253 8.808 519.816 8.808C519.378 8.808 519.005 8.89867 518.696 9.08C518.386 9.26133 518.136 9.51733 517.944 9.848C517.752 10.1787 517.608 10.568 517.512 11.016C517.426 11.464 517.384 11.96 517.384 12.504V14.328C517.384 14.872 517.426 15.368 517.512 15.816C517.608 16.264 517.752 16.6533 517.944 16.984C518.136 17.3147 518.386 17.5707 518.696 17.752C519.005 17.9333 519.378 18.024 519.816 18.024ZM533.137 19H525.809V17.624L529.457 14.264C529.98 13.784 530.417 13.2773 530.769 12.744C531.121 12.2 531.297 11.656 531.297 11.112V10.92C531.297 10.3013 531.127 9.8 530.785 9.416C530.444 9.032 529.927 8.84 529.233 8.84C528.892 8.84 528.593 8.888 528.337 8.984C528.081 9.08 527.857 9.21333 527.665 9.384C527.484 9.55467 527.329 9.75733 527.201 9.992C527.084 10.216 526.988 10.4613 526.913 10.728L525.713 10.264C525.82 9.93333 525.964 9.61333 526.145 9.304C526.337 8.984 526.572 8.70133 526.849 8.456C527.137 8.21067 527.479 8.01333 527.873 7.864C528.279 7.71467 528.753 7.64 529.297 7.64C529.841 7.64 530.327 7.72 530.753 7.88C531.18 8.04 531.537 8.264 531.825 8.552C532.113 8.84 532.332 9.18133 532.481 9.576C532.641 9.97067 532.721 10.408 532.721 10.888C532.721 11.3253 532.657 11.7307 532.529 12.104C532.412 12.4773 532.247 12.8347 532.033 13.176C531.82 13.5067 531.559 13.832 531.249 14.152C530.951 14.472 530.625 14.792 530.273 15.112L527.265 17.816H533.137V19ZM535.611 19V17.816H538.731V8.824H538.619L535.803 11.448L535.019 10.6L537.979 7.832H540.075V17.816H542.955V19H535.611ZM293.48 40.944H287.832V46H286.488V34.832H287.832V39.76H293.48V34.832H294.824V46H293.48V40.944ZM303.673 46C303.193 46 302.846 45.872 302.633 45.616C302.43 45.36 302.302 45.04 302.249 44.656H302.169C301.987 45.168 301.689 45.552 301.273 45.808C300.857 46.064 300.361 46.192 299.785 46.192C298.91 46.192 298.227 45.968 297.737 45.52C297.257 45.072 297.017 44.464 297.017 43.696C297.017 42.9173 297.299 42.32 297.865 41.904C298.441 41.488 299.331 41.28 300.536 41.28H302.169V40.464C302.169 39.8773 302.009 39.4293 301.689 39.12C301.369 38.8107 300.878 38.656 300.217 38.656C299.715 38.656 299.294 38.768 298.953 38.992C298.622 39.216 298.345 39.5147 298.121 39.888L297.353 39.168C297.577 38.72 297.934 38.3413 298.424 38.032C298.915 37.712 299.534 37.552 300.281 37.552C301.283 37.552 302.062 37.7973 302.617 38.288C303.171 38.7787 303.449 39.4613 303.449 40.336V44.88H304.392V46H303.673ZM299.993 45.104C300.313 45.104 300.606 45.0667 300.873 44.992C301.139 44.9173 301.369 44.8107 301.561 44.672C301.753 44.5333 301.902 44.3733 302.009 44.192C302.115 44.0107 302.169 43.8133 302.169 43.6V42.24H300.473C299.737 42.24 299.198 42.3467 298.857 42.56C298.526 42.7733 298.361 43.0827 298.361 43.488V43.824C298.361 44.2293 298.505 44.544 298.793 44.768C299.091 44.992 299.491 45.104 299.993 45.104ZM307.918 46L305.022 37.744H306.302L307.742 41.84L308.638 44.656H308.718L309.614 41.84L311.086 37.744H312.318L309.406 46H307.918ZM316.948 46.192C316.383 46.192 315.871 46.0907 315.412 45.888C314.964 45.6853 314.575 45.3973 314.244 45.024C313.924 44.64 313.674 44.1867 313.492 43.664C313.322 43.1307 313.236 42.5333 313.236 41.872C313.236 41.2213 313.322 40.6293 313.492 40.096C313.674 39.5627 313.924 39.1093 314.244 38.736C314.575 38.352 314.964 38.0587 315.412 37.856C315.871 37.6533 316.383 37.552 316.948 37.552C317.503 37.552 317.999 37.6533 318.436 37.856C318.874 38.0587 319.247 38.3413 319.556 38.704C319.866 39.056 320.1 39.4773 320.26 39.968C320.431 40.4587 320.516 40.9973 320.516 41.584V42.192H314.58V42.576C314.58 42.928 314.634 43.2587 314.74 43.568C314.858 43.8667 315.018 44.128 315.22 44.352C315.434 44.576 315.69 44.752 315.988 44.88C316.298 45.008 316.644 45.072 317.028 45.072C317.551 45.072 318.004 44.9493 318.388 44.704C318.783 44.4587 319.087 44.1067 319.3 43.648L320.212 44.304C319.946 44.8693 319.53 45.328 318.964 45.68C318.399 46.0213 317.727 46.192 316.948 46.192ZM316.948 38.624C316.596 38.624 316.276 38.688 315.988 38.816C315.7 38.9333 315.45 39.104 315.236 39.328C315.034 39.552 314.874 39.8187 314.756 40.128C314.639 40.4267 314.58 40.7573 314.58 41.12V41.232H319.14V41.056C319.14 40.32 318.938 39.7333 318.532 39.296C318.138 38.848 317.61 38.624 316.948 38.624ZM332.407 46C331.927 46 331.58 45.872 331.367 45.616C331.164 45.36 331.036 45.04 330.983 44.656H330.903C330.722 45.168 330.423 45.552 330.007 45.808C329.591 46.064 329.095 46.192 328.519 46.192C327.644 46.192 326.962 45.968 326.471 45.52C325.991 45.072 325.751 44.464 325.751 43.696C325.751 42.9173 326.034 42.32 326.599 41.904C327.175 41.488 328.066 41.28 329.271 41.28H330.903V40.464C330.903 39.8773 330.743 39.4293 330.423 39.12C330.103 38.8107 329.612 38.656 328.951 38.656C328.45 38.656 328.028 38.768 327.687 38.992C327.356 39.216 327.079 39.5147 326.855 39.888L326.087 39.168C326.311 38.72 326.668 38.3413 327.159 38.032C327.65 37.712 328.268 37.552 329.015 37.552C330.018 37.552 330.796 37.7973 331.351 38.288C331.906 38.7787 332.183 39.4613 332.183 40.336V44.88H333.127V46H332.407ZM328.727 45.104C329.047 45.104 329.34 45.0667 329.607 44.992C329.874 44.9173 330.103 44.8107 330.295 44.672C330.487 44.5333 330.636 44.3733 330.743 44.192C330.85 44.0107 330.903 43.8133 330.903 43.6V42.24H329.207C328.471 42.24 327.932 42.3467 327.591 42.56C327.26 42.7733 327.095 43.0827 327.095 43.488V43.824C327.095 44.2293 327.239 44.544 327.527 44.768C327.826 44.992 328.226 45.104 328.727 45.104ZM334.954 46V37.744H336.234V39.088H336.298C336.5 38.6187 336.783 38.2453 337.146 37.968C337.519 37.6907 338.015 37.552 338.634 37.552C339.487 37.552 340.159 37.8293 340.65 38.384C341.151 38.928 341.402 39.7013 341.402 40.704V46H340.122V40.928C340.122 39.4453 339.498 38.704 338.25 38.704C337.994 38.704 337.743 38.736 337.498 38.8C337.263 38.864 337.05 38.96 336.858 39.088C336.666 39.216 336.511 39.3813 336.394 39.584C336.287 39.776 336.234 40.0053 336.234 40.272V46H334.954ZM349.011 37.744H350.275L346.579 47.92C346.483 48.1653 346.387 48.368 346.291 48.528C346.195 48.6987 346.077 48.832 345.939 48.928C345.8 49.024 345.624 49.0933 345.411 49.136C345.208 49.1787 344.957 49.2 344.659 49.2H344.003V48.08H345.299L345.923 46.32L342.835 37.744H344.115L346.099 43.36L346.483 44.704H346.562L347.011 43.36L349.011 37.744ZM355.688 37.744H356.968V39.088H357.032C357.245 38.5653 357.555 38.1813 357.96 37.936C358.376 37.68 358.872 37.552 359.448 37.552C359.96 37.552 360.424 37.6533 360.84 37.856C361.256 38.0587 361.608 38.3467 361.896 38.72C362.195 39.0933 362.419 39.5467 362.568 40.08C362.728 40.6133 362.808 41.2107 362.808 41.872C362.808 42.5333 362.728 43.1307 362.568 43.664C362.419 44.1973 362.195 44.6507 361.896 45.024C361.608 45.3973 361.256 45.6853 360.84 45.888C360.424 46.0907 359.96 46.192 359.448 46.192C358.328 46.192 357.523 45.68 357.032 44.656H356.968V49.2H355.688V37.744ZM359.096 45.04C359.821 45.04 360.392 44.816 360.808 44.368C361.224 43.9093 361.432 43.312 361.432 42.576V41.168C361.432 40.432 361.224 39.84 360.808 39.392C360.392 38.9333 359.821 38.704 359.096 38.704C358.808 38.704 358.531 38.7467 358.264 38.832C358.008 38.9067 357.784 39.0133 357.592 39.152C357.4 39.2907 357.245 39.4613 357.128 39.664C357.021 39.856 356.968 40.064 356.968 40.288V43.36C356.968 43.6267 357.021 43.8667 357.128 44.08C357.245 44.2827 357.4 44.4587 357.592 44.608C357.784 44.7467 358.008 44.8533 358.264 44.928C358.531 45.0027 358.808 45.04 359.096 45.04ZM364.969 46V37.744H366.249V39.264H366.329C366.479 38.8693 366.745 38.5173 367.129 38.208C367.513 37.8987 368.041 37.744 368.713 37.744H369.209V39.024H368.457C367.764 39.024 367.22 39.1573 366.825 39.424C366.441 39.68 366.249 40.0053 366.249 40.4V46H364.969ZM373.886 46.192C373.332 46.192 372.825 46.0907 372.366 45.888C371.908 45.6853 371.513 45.3973 371.182 45.024C370.862 44.64 370.612 44.1867 370.43 43.664C370.249 43.1307 370.158 42.5333 370.158 41.872C370.158 41.2213 370.249 40.6293 370.43 40.096C370.612 39.5627 370.862 39.1093 371.182 38.736C371.513 38.352 371.908 38.0587 372.366 37.856C372.825 37.6533 373.332 37.552 373.886 37.552C374.441 37.552 374.942 37.6533 375.39 37.856C375.849 38.0587 376.244 38.352 376.574 38.736C376.905 39.1093 377.161 39.5627 377.342 40.096C377.524 40.6293 377.614 41.2213 377.614 41.872C377.614 42.5333 377.524 43.1307 377.342 43.664C377.161 44.1867 376.905 44.64 376.574 45.024C376.244 45.3973 375.849 45.6853 375.39 45.888C374.942 46.0907 374.441 46.192 373.886 46.192ZM373.886 45.056C374.58 45.056 375.145 44.8427 375.582 44.416C376.02 43.9893 376.238 43.3387 376.238 42.464V41.28C376.238 40.4053 376.02 39.7547 375.582 39.328C375.145 38.9013 374.58 38.688 373.886 38.688C373.193 38.688 372.628 38.9013 372.19 39.328C371.753 39.7547 371.534 40.4053 371.534 41.28V42.464C371.534 43.3387 371.753 43.9893 372.19 44.416C372.628 44.8427 373.193 45.056 373.886 45.056ZM379.719 34.16H380.999V39.088H381.063C381.277 38.5653 381.586 38.1813 381.991 37.936C382.407 37.68 382.903 37.552 383.479 37.552C383.991 37.552 384.455 37.6533 384.871 37.856C385.287 38.0587 385.639 38.3467 385.927 38.72C386.226 39.0933 386.45 39.5467 386.599 40.08C386.759 40.6133 386.839 41.2107 386.839 41.872C386.839 42.5333 386.759 43.1307 386.599 43.664C386.45 44.1973 386.226 44.6507 385.927 45.024C385.639 45.3973 385.287 45.6853 384.871 45.888C384.455 46.0907 383.991 46.192 383.479 46.192C382.359 46.192 381.554 45.68 381.063 44.656H380.999V46H379.719V34.16ZM383.127 45.04C383.853 45.04 384.423 44.816 384.839 44.368C385.255 43.9093 385.463 43.312 385.463 42.576V41.168C385.463 40.432 385.255 39.84 384.839 39.392C384.423 38.9333 383.853 38.704 383.127 38.704C382.839 38.704 382.562 38.7467 382.295 38.832C382.039 38.9067 381.815 39.0133 381.623 39.152C381.431 39.2907 381.277 39.4613 381.159 39.664C381.053 39.856 380.999 40.064 380.999 40.288V43.36C380.999 43.6267 381.053 43.8667 381.159 44.08C381.277 44.2827 381.431 44.4587 381.623 44.608C381.815 44.7467 382.039 44.8533 382.295 44.928C382.562 45.0027 382.839 45.04 383.127 45.04ZM390.361 46C389.913 46 389.571 45.8773 389.337 45.632C389.113 45.376 389.001 45.056 389.001 44.672V34.16H390.281V44.88H391.497V46H390.361ZM396.464 46.192C395.899 46.192 395.387 46.0907 394.928 45.888C394.48 45.6853 394.091 45.3973 393.76 45.024C393.44 44.64 393.189 44.1867 393.008 43.664C392.837 43.1307 392.752 42.5333 392.752 41.872C392.752 41.2213 392.837 40.6293 393.008 40.096C393.189 39.5627 393.44 39.1093 393.76 38.736C394.091 38.352 394.48 38.0587 394.928 37.856C395.387 37.6533 395.899 37.552 396.464 37.552C397.019 37.552 397.515 37.6533 397.952 37.856C398.389 38.0587 398.763 38.3413 399.072 38.704C399.381 39.056 399.616 39.4773 399.776 39.968C399.947 40.4587 400.032 40.9973 400.032 41.584V42.192H394.096V42.576C394.096 42.928 394.149 43.2587 394.256 43.568C394.373 43.8667 394.533 44.128 394.736 44.352C394.949 44.576 395.205 44.752 395.504 44.88C395.813 45.008 396.16 45.072 396.544 45.072C397.067 45.072 397.52 44.9493 397.904 44.704C398.299 44.4587 398.603 44.1067 398.816 43.648L399.728 44.304C399.461 44.8693 399.045 45.328 398.48 45.68C397.915 46.0213 397.243 46.192 396.464 46.192ZM396.464 38.624C396.112 38.624 395.792 38.688 395.504 38.816C395.216 38.9333 394.965 39.104 394.752 39.328C394.549 39.552 394.389 39.8187 394.272 40.128C394.155 40.4267 394.096 40.7573 394.096 41.12V41.232H398.656V41.056C398.656 40.32 398.453 39.7333 398.048 39.296C397.653 38.848 397.125 38.624 396.464 38.624ZM402.141 46V37.744H403.421V39.088H403.485C403.581 38.8747 403.688 38.6773 403.805 38.496C403.933 38.304 404.083 38.1387 404.253 38C404.435 37.8613 404.643 37.7547 404.877 37.68C405.112 37.5947 405.389 37.552 405.709 37.552C406.253 37.552 406.755 37.6853 407.213 37.952C407.672 38.208 408.013 38.6347 408.237 39.232H408.269C408.419 38.784 408.696 38.3947 409.101 38.064C409.517 37.7227 410.077 37.552 410.781 37.552C411.624 37.552 412.28 37.8293 412.749 38.384C413.229 38.928 413.469 39.7013 413.469 40.704V46H412.189V40.928C412.189 40.192 412.045 39.6373 411.757 39.264C411.469 38.8907 411.011 38.704 410.381 38.704C410.125 38.704 409.88 38.736 409.645 38.8C409.421 38.864 409.219 38.96 409.037 39.088C408.856 39.216 408.712 39.3813 408.605 39.584C408.499 39.776 408.445 40.0053 408.445 40.272V46H407.165V40.928C407.165 40.192 407.021 39.6373 406.733 39.264C406.445 38.8907 405.997 38.704 405.389 38.704C405.133 38.704 404.888 38.736 404.653 38.8C404.419 38.864 404.211 38.96 404.029 39.088C403.848 39.216 403.699 39.3813 403.581 39.584C403.475 39.776 403.421 40.0053 403.421 40.272V46H402.141ZM418.59 46.192C417.822 46.192 417.177 46.048 416.654 45.76C416.142 45.4613 415.699 45.0667 415.326 44.576L416.238 43.84C416.558 44.2453 416.915 44.56 417.31 44.784C417.705 44.9973 418.163 45.104 418.686 45.104C419.23 45.104 419.651 44.9867 419.95 44.752C420.259 44.5173 420.414 44.1867 420.414 43.76C420.414 43.44 420.307 43.168 420.094 42.944C419.891 42.7093 419.518 42.5493 418.974 42.464L418.318 42.368C417.934 42.3147 417.582 42.2347 417.262 42.128C416.942 42.0107 416.659 41.8613 416.414 41.68C416.179 41.488 415.993 41.2533 415.854 40.976C415.726 40.6987 415.662 40.368 415.662 39.984C415.662 39.5787 415.737 39.2267 415.886 38.928C416.035 38.6187 416.238 38.3627 416.494 38.16C416.761 37.9573 417.075 37.808 417.438 37.712C417.801 37.6053 418.19 37.552 418.606 37.552C419.278 37.552 419.838 37.6693 420.286 37.904C420.745 38.1387 421.145 38.464 421.486 38.88L420.638 39.648C420.457 39.392 420.19 39.1627 419.838 38.96C419.486 38.7467 419.043 38.64 418.51 38.64C417.977 38.64 417.571 38.7573 417.294 38.992C417.027 39.216 416.894 39.5253 416.894 39.92C416.894 40.3253 417.027 40.6187 417.294 40.8C417.571 40.9813 417.966 41.1147 418.478 41.2L419.118 41.296C420.035 41.4347 420.686 41.7013 421.07 42.096C421.454 42.48 421.646 42.9867 421.646 43.616C421.646 44.416 421.374 45.0453 420.83 45.504C420.286 45.9627 419.539 46.192 418.59 46.192ZM425.411 42.672V40.048C426.286 40.0053 426.968 39.792 427.459 39.408C427.96 39.024 428.211 38.496 428.211 37.824V37.6C428.211 37.056 428.04 36.624 427.699 36.304C427.358 35.9733 426.899 35.808 426.323 35.808C425.704 35.808 425.208 35.984 424.835 36.336C424.472 36.688 424.227 37.136 424.099 37.68L422.915 37.232C423.011 36.8907 423.15 36.5653 423.331 36.256C423.523 35.936 423.758 35.6587 424.035 35.424C424.323 35.1787 424.659 34.9867 425.043 34.848C425.427 34.7093 425.87 34.64 426.371 34.64C427.363 34.64 428.147 34.912 428.723 35.456C429.299 36 429.587 36.736 429.587 37.664C429.587 38.176 429.496 38.624 429.315 39.008C429.144 39.3813 428.92 39.7013 428.643 39.968C428.366 40.2347 428.051 40.448 427.699 40.608C427.347 40.768 426.995 40.88 426.643 40.944V42.672H425.411ZM426.035 46.192C425.694 46.192 425.443 46.1067 425.283 45.936C425.134 45.7653 425.059 45.5413 425.059 45.264V45.056C425.059 44.7787 425.134 44.5547 425.283 44.384C425.443 44.2133 425.694 44.128 426.035 44.128C426.376 44.128 426.622 44.2133 426.771 44.384C426.931 44.5547 427.011 44.7787 427.011 45.056V45.264C427.011 45.5413 426.931 45.7653 426.771 45.936C426.622 46.1067 426.376 46.192 426.035 46.192ZM439.377 46.192C437.958 46.192 436.854 45.712 436.065 44.752C435.276 43.7813 434.881 42.3573 434.881 40.48C434.881 38.6027 435.276 37.1627 436.065 36.16C436.854 35.1467 437.958 34.64 439.377 34.64C440.316 34.64 441.1 34.8533 441.729 35.28C442.369 35.7067 442.865 36.3093 443.217 37.088L442.129 37.744C441.905 37.168 441.564 36.7093 441.105 36.368C440.646 36.016 440.07 35.84 439.377 35.84C438.897 35.84 438.465 35.9307 438.081 36.112C437.708 36.2933 437.388 36.5547 437.121 36.896C436.865 37.2267 436.668 37.6267 436.529 38.096C436.39 38.5547 436.321 39.072 436.321 39.648V41.312C436.321 42.464 436.588 43.3653 437.121 44.016C437.654 44.6667 438.406 44.992 439.377 44.992C440.092 44.992 440.689 44.8107 441.169 44.448C441.649 44.0747 442.001 43.584 442.225 42.976L443.297 43.648C442.945 44.4373 442.438 45.0613 441.777 45.52C441.116 45.968 440.316 46.192 439.377 46.192ZM448.371 46.192C447.816 46.192 447.309 46.0907 446.851 45.888C446.392 45.6853 445.997 45.3973 445.667 45.024C445.347 44.64 445.096 44.1867 444.915 43.664C444.733 43.1307 444.643 42.5333 444.643 41.872C444.643 41.2213 444.733 40.6293 444.915 40.096C445.096 39.5627 445.347 39.1093 445.667 38.736C445.997 38.352 446.392 38.0587 446.851 37.856C447.309 37.6533 447.816 37.552 448.371 37.552C448.925 37.552 449.427 37.6533 449.875 37.856C450.333 38.0587 450.728 38.352 451.059 38.736C451.389 39.1093 451.645 39.5627 451.827 40.096C452.008 40.6293 452.099 41.2213 452.099 41.872C452.099 42.5333 452.008 43.1307 451.827 43.664C451.645 44.1867 451.389 44.64 451.059 45.024C450.728 45.3973 450.333 45.6853 449.875 45.888C449.427 46.0907 448.925 46.192 448.371 46.192ZM448.371 45.056C449.064 45.056 449.629 44.8427 450.067 44.416C450.504 43.9893 450.723 43.3387 450.723 42.464V41.28C450.723 40.4053 450.504 39.7547 450.067 39.328C449.629 38.9013 449.064 38.688 448.371 38.688C447.677 38.688 447.112 38.9013 446.675 39.328C446.237 39.7547 446.019 40.4053 446.019 41.28V42.464C446.019 43.3387 446.237 43.9893 446.675 44.416C447.112 44.8427 447.677 45.056 448.371 45.056ZM454.204 46V37.744H455.484V39.088H455.548C455.75 38.6187 456.033 38.2453 456.396 37.968C456.769 37.6907 457.265 37.552 457.884 37.552C458.737 37.552 459.409 37.8293 459.9 38.384C460.401 38.928 460.652 39.7013 460.652 40.704V46H459.372V40.928C459.372 39.4453 458.748 38.704 457.5 38.704C457.244 38.704 456.993 38.736 456.748 38.8C456.513 38.864 456.3 38.96 456.108 39.088C455.916 39.216 455.761 39.3813 455.644 39.584C455.537 39.776 455.484 40.0053 455.484 40.272V46H454.204ZM465.122 46C464.674 46 464.332 45.8773 464.098 45.632C463.874 45.376 463.762 45.0453 463.762 44.64V38.864H462.402V37.744H463.17C463.447 37.744 463.634 37.6907 463.73 37.584C463.836 37.4667 463.89 37.2693 463.89 36.992V35.456H465.042V37.744H466.85V38.864H465.042V44.88H466.722V46H465.122ZM474.907 46C474.427 46 474.08 45.872 473.867 45.616C473.664 45.36 473.536 45.04 473.483 44.656H473.403C473.222 45.168 472.923 45.552 472.507 45.808C472.091 46.064 471.595 46.192 471.019 46.192C470.144 46.192 469.462 45.968 468.971 45.52C468.491 45.072 468.251 44.464 468.251 43.696C468.251 42.9173 468.534 42.32 469.099 41.904C469.675 41.488 470.566 41.28 471.771 41.28H473.403V40.464C473.403 39.8773 473.243 39.4293 472.923 39.12C472.603 38.8107 472.112 38.656 471.451 38.656C470.95 38.656 470.528 38.768 470.187 38.992C469.856 39.216 469.579 39.5147 469.355 39.888L468.587 39.168C468.811 38.72 469.168 38.3413 469.659 38.032C470.15 37.712 470.768 37.552 471.515 37.552C472.518 37.552 473.296 37.7973 473.851 38.288C474.406 38.7787 474.683 39.4613 474.683 40.336V44.88H475.627V46H474.907ZM471.227 45.104C471.547 45.104 471.84 45.0667 472.107 44.992C472.374 44.9173 472.603 44.8107 472.795 44.672C472.987 44.5333 473.136 44.3733 473.243 44.192C473.35 44.0107 473.403 43.8133 473.403 43.6V42.24H471.707C470.971 42.24 470.432 42.3467 470.091 42.56C469.76 42.7733 469.595 43.0827 469.595 43.488V43.824C469.595 44.2293 469.739 44.544 470.027 44.768C470.326 44.992 470.726 45.104 471.227 45.104ZM480.526 46.192C479.95 46.192 479.432 46.0907 478.974 45.888C478.515 45.6853 478.126 45.3973 477.806 45.024C477.496 44.6507 477.256 44.1973 477.086 43.664C476.926 43.1307 476.846 42.5333 476.846 41.872C476.846 41.2107 476.926 40.6133 477.086 40.08C477.256 39.5467 477.496 39.0933 477.806 38.72C478.126 38.3467 478.515 38.0587 478.974 37.856C479.432 37.6533 479.95 37.552 480.526 37.552C481.347 37.552 482.003 37.7333 482.494 38.096C482.995 38.448 483.368 38.912 483.614 39.488L482.542 40.032C482.392 39.6053 482.147 39.2747 481.806 39.04C481.464 38.8053 481.038 38.688 480.526 38.688C480.142 38.688 479.806 38.752 479.518 38.88C479.23 38.9973 478.99 39.168 478.798 39.392C478.606 39.6053 478.462 39.8667 478.366 40.176C478.27 40.4747 478.222 40.8053 478.222 41.168V42.576C478.222 43.3013 478.414 43.8987 478.798 44.368C479.192 44.8267 479.768 45.056 480.526 45.056C481.56 45.056 482.307 44.576 482.766 43.616L483.694 44.24C483.427 44.8373 483.027 45.312 482.494 45.664C481.971 46.016 481.315 46.192 480.526 46.192ZM487.325 46C486.877 46 486.535 45.8773 486.301 45.632C486.077 45.376 485.965 45.0453 485.965 44.64V38.864H484.605V37.744H485.373C485.65 37.744 485.837 37.6907 485.933 37.584C486.039 37.4667 486.093 37.2693 486.093 36.992V35.456H487.245V37.744H489.053V38.864H487.245V44.88H488.925V46H487.325ZM499.979 44.656H499.915C499.83 44.848 499.723 45.04 499.595 45.232C499.478 45.4133 499.329 45.5787 499.147 45.728C498.966 45.8667 498.747 45.9787 498.491 46.064C498.235 46.1493 497.937 46.192 497.595 46.192C496.742 46.192 496.065 45.92 495.563 45.376C495.062 44.8213 494.811 44.0427 494.811 43.04V37.744H496.091V42.816C496.091 44.2987 496.721 45.04 497.979 45.04C498.235 45.04 498.481 45.008 498.715 44.944C498.961 44.88 499.174 44.784 499.355 44.656C499.547 44.528 499.697 44.368 499.803 44.176C499.921 43.9733 499.979 43.7333 499.979 43.456V37.744H501.259V46H499.979V44.656ZM506.465 46.192C505.697 46.192 505.052 46.048 504.529 45.76C504.017 45.4613 503.574 45.0667 503.201 44.576L504.113 43.84C504.433 44.2453 504.79 44.56 505.185 44.784C505.58 44.9973 506.038 45.104 506.561 45.104C507.105 45.104 507.526 44.9867 507.825 44.752C508.134 44.5173 508.289 44.1867 508.289 43.76C508.289 43.44 508.182 43.168 507.969 42.944C507.766 42.7093 507.393 42.5493 506.849 42.464L506.193 42.368C505.809 42.3147 505.457 42.2347 505.137 42.128C504.817 42.0107 504.534 41.8613 504.289 41.68C504.054 41.488 503.868 41.2533 503.729 40.976C503.601 40.6987 503.537 40.368 503.537 39.984C503.537 39.5787 503.612 39.2267 503.761 38.928C503.91 38.6187 504.113 38.3627 504.369 38.16C504.636 37.9573 504.95 37.808 505.313 37.712C505.676 37.6053 506.065 37.552 506.481 37.552C507.153 37.552 507.713 37.6693 508.161 37.904C508.62 38.1387 509.02 38.464 509.361 38.88L508.513 39.648C508.332 39.392 508.065 39.1627 507.713 38.96C507.361 38.7467 506.918 38.64 506.385 38.64C505.852 38.64 505.446 38.7573 505.169 38.992C504.902 39.216 504.769 39.5253 504.769 39.92C504.769 40.3253 504.902 40.6187 505.169 40.8C505.446 40.9813 505.841 41.1147 506.353 41.2L506.993 41.296C507.91 41.4347 508.561 41.7013 508.945 42.096C509.329 42.48 509.521 42.9867 509.521 43.616C509.521 44.416 509.249 45.0453 508.705 45.504C508.161 45.9627 507.414 46.192 506.465 46.192ZM517.387 46L514.491 37.744H515.771L517.211 41.84L518.107 44.656H518.187L519.083 41.84L520.555 37.744H521.787L518.875 46H517.387ZM524.078 35.808C523.801 35.808 523.598 35.744 523.47 35.616C523.353 35.4773 523.294 35.3013 523.294 35.088V34.88C523.294 34.6667 523.353 34.496 523.47 34.368C523.598 34.2293 523.801 34.16 524.078 34.16C524.355 34.16 524.553 34.2293 524.67 34.368C524.798 34.496 524.862 34.6667 524.862 34.88V35.088C524.862 35.3013 524.798 35.4773 524.67 35.616C524.553 35.744 524.355 35.808 524.078 35.808ZM523.438 37.744H524.718V46H523.438V37.744ZM533.438 46C532.958 46 532.611 45.872 532.398 45.616C532.195 45.36 532.067 45.04 532.014 44.656H531.934C531.753 45.168 531.454 45.552 531.038 45.808C530.622 46.064 530.126 46.192 529.55 46.192C528.675 46.192 527.993 45.968 527.502 45.52C527.022 45.072 526.782 44.464 526.782 43.696C526.782 42.9173 527.065 42.32 527.63 41.904C528.206 41.488 529.097 41.28 530.302 41.28H531.934V40.464C531.934 39.8773 531.774 39.4293 531.454 39.12C531.134 38.8107 530.643 38.656 529.982 38.656C529.481 38.656 529.059 38.768 528.718 38.992C528.387 39.216 528.11 39.5147 527.886 39.888L527.118 39.168C527.342 38.72 527.699 38.3413 528.19 38.032C528.681 37.712 529.299 37.552 530.046 37.552C531.049 37.552 531.827 37.7973 532.382 38.288C532.937 38.7787 533.214 39.4613 533.214 40.336V44.88H534.158V46H533.438ZM529.758 45.104C530.078 45.104 530.371 45.0667 530.638 44.992C530.905 44.9173 531.134 44.8107 531.326 44.672C531.518 44.5333 531.667 44.3733 531.774 44.192C531.881 44.0107 531.934 43.8133 531.934 43.6V42.24H530.238C529.502 42.24 528.963 42.3467 528.622 42.56C528.291 42.7733 528.126 43.0827 528.126 43.488V43.824C528.126 44.2293 528.27 44.544 528.558 44.768C528.857 44.992 529.257 45.104 529.758 45.104ZM542.246 46.192C541.478 46.192 540.833 46.048 540.31 45.76C539.798 45.4613 539.356 45.0667 538.982 44.576L539.894 43.84C540.214 44.2453 540.572 44.56 540.966 44.784C541.361 44.9973 541.82 45.104 542.342 45.104C542.886 45.104 543.308 44.9867 543.606 44.752C543.916 44.5173 544.07 44.1867 544.07 43.76C544.07 43.44 543.964 43.168 543.75 42.944C543.548 42.7093 543.174 42.5493 542.63 42.464L541.974 42.368C541.59 42.3147 541.238 42.2347 540.918 42.128C540.598 42.0107 540.316 41.8613 540.07 41.68C539.836 41.488 539.649 41.2533 539.51 40.976C539.382 40.6987 539.318 40.368 539.318 39.984C539.318 39.5787 539.393 39.2267 539.542 38.928C539.692 38.6187 539.894 38.3627 540.15 38.16C540.417 37.9573 540.732 37.808 541.094 37.712C541.457 37.6053 541.846 37.552 542.262 37.552C542.934 37.552 543.494 37.6693 543.942 37.904C544.401 38.1387 544.801 38.464 545.142 38.88L544.294 39.648C544.113 39.392 543.846 39.1627 543.494 38.96C543.142 38.7467 542.7 38.64 542.166 38.64C541.633 38.64 541.228 38.7573 540.95 38.992C540.684 39.216 540.55 39.5253 540.55 39.92C540.55 40.3253 540.684 40.6187 540.95 40.8C541.228 40.9813 541.622 41.1147 542.134 41.2L542.774 41.296C543.692 41.4347 544.342 41.7013 544.726 42.096C545.11 42.48 545.302 42.9867 545.302 43.616C545.302 44.416 545.03 45.0453 544.486 45.504C543.942 45.9627 543.196 46.192 542.246 46.192ZM550.683 46.192C550.128 46.192 549.622 46.0907 549.163 45.888C548.704 45.6853 548.31 45.3973 547.979 45.024C547.659 44.64 547.408 44.1867 547.227 43.664C547.046 43.1307 546.955 42.5333 546.955 41.872C546.955 41.2213 547.046 40.6293 547.227 40.096C547.408 39.5627 547.659 39.1093 547.979 38.736C548.31 38.352 548.704 38.0587 549.163 37.856C549.622 37.6533 550.128 37.552 550.683 37.552C551.238 37.552 551.739 37.6533 552.187 37.856C552.646 38.0587 553.04 38.352 553.371 38.736C553.702 39.1093 553.958 39.5627 554.139 40.096C554.32 40.6293 554.411 41.2213 554.411 41.872C554.411 42.5333 554.32 43.1307 554.139 43.664C553.958 44.1867 553.702 44.64 553.371 45.024C553.04 45.3973 552.646 45.6853 552.187 45.888C551.739 46.0907 551.238 46.192 550.683 46.192ZM550.683 45.056C551.376 45.056 551.942 44.8427 552.379 44.416C552.816 43.9893 553.035 43.3387 553.035 42.464V41.28C553.035 40.4053 552.816 39.7547 552.379 39.328C551.942 38.9013 551.376 38.688 550.683 38.688C549.99 38.688 549.424 38.9013 548.987 39.328C548.55 39.7547 548.331 40.4053 548.331 41.28V42.464C548.331 43.3387 548.55 43.9893 548.987 44.416C549.424 44.8427 549.99 45.056 550.683 45.056ZM559.588 46.192C559.012 46.192 558.495 46.0907 558.036 45.888C557.578 45.6853 557.188 45.3973 556.868 45.024C556.559 44.6507 556.319 44.1973 556.148 43.664C555.988 43.1307 555.908 42.5333 555.908 41.872C555.908 41.2107 555.988 40.6133 556.148 40.08C556.319 39.5467 556.559 39.0933 556.868 38.72C557.188 38.3467 557.578 38.0587 558.036 37.856C558.495 37.6533 559.012 37.552 559.588 37.552C560.41 37.552 561.066 37.7333 561.556 38.096C562.058 38.448 562.431 38.912 562.676 39.488L561.604 40.032C561.455 39.6053 561.21 39.2747 560.868 39.04C560.527 38.8053 560.1 38.688 559.588 38.688C559.204 38.688 558.868 38.752 558.58 38.88C558.292 38.9973 558.052 39.168 557.86 39.392C557.668 39.6053 557.524 39.8667 557.428 40.176C557.332 40.4747 557.284 40.8053 557.284 41.168V42.576C557.284 43.3013 557.476 43.8987 557.86 44.368C558.255 44.8267 558.831 45.056 559.588 45.056C560.623 45.056 561.37 44.576 561.828 43.616L562.756 44.24C562.49 44.8373 562.09 45.312 561.556 45.664C561.034 46.016 560.378 46.192 559.588 46.192ZM565.203 35.808C564.926 35.808 564.723 35.744 564.595 35.616C564.478 35.4773 564.419 35.3013 564.419 35.088V34.88C564.419 34.6667 564.478 34.496 564.595 34.368C564.723 34.2293 564.926 34.16 565.203 34.16C565.48 34.16 565.678 34.2293 565.795 34.368C565.923 34.496 565.987 34.6667 565.987 34.88V35.088C565.987 35.3013 565.923 35.4773 565.795 35.616C565.678 35.744 565.48 35.808 565.203 35.808ZM564.563 37.744H565.843V46H564.563V37.744ZM574.563 46C574.083 46 573.736 45.872 573.523 45.616C573.32 45.36 573.192 45.04 573.139 44.656H573.059C572.878 45.168 572.579 45.552 572.163 45.808C571.747 46.064 571.251 46.192 570.675 46.192C569.8 46.192 569.118 45.968 568.627 45.52C568.147 45.072 567.907 44.464 567.907 43.696C567.907 42.9173 568.19 42.32 568.755 41.904C569.331 41.488 570.222 41.28 571.427 41.28H573.059V40.464C573.059 39.8773 572.899 39.4293 572.579 39.12C572.259 38.8107 571.768 38.656 571.107 38.656C570.606 38.656 570.184 38.768 569.843 38.992C569.512 39.216 569.235 39.5147 569.011 39.888L568.243 39.168C568.467 38.72 568.824 38.3413 569.315 38.032C569.806 37.712 570.424 37.552 571.171 37.552C572.174 37.552 572.952 37.7973 573.507 38.288C574.062 38.7787 574.339 39.4613 574.339 40.336V44.88H575.283V46H574.563ZM570.883 45.104C571.203 45.104 571.496 45.0667 571.763 44.992C572.03 44.9173 572.259 44.8107 572.451 44.672C572.643 44.5333 572.792 44.3733 572.899 44.192C573.006 44.0107 573.059 43.8133 573.059 43.6V42.24H571.363C570.627 42.24 570.088 42.3467 569.747 42.56C569.416 42.7733 569.251 43.0827 569.251 43.488V43.824C569.251 44.2293 569.395 44.544 569.683 44.768C569.982 44.992 570.382 45.104 570.883 45.104ZM578.47 46C578.022 46 577.681 45.8773 577.446 45.632C577.222 45.376 577.11 45.056 577.11 44.672V34.16H578.39V44.88H579.606V46H578.47ZM585.251 46V37.744H586.531V39.088H586.595C586.691 38.8747 586.797 38.6773 586.915 38.496C587.043 38.304 587.192 38.1387 587.363 38C587.544 37.8613 587.752 37.7547 587.987 37.68C588.221 37.5947 588.499 37.552 588.819 37.552C589.363 37.552 589.864 37.6853 590.323 37.952C590.781 38.208 591.123 38.6347 591.347 39.232H591.379C591.528 38.784 591.805 38.3947 592.211 38.064C592.627 37.7227 593.187 37.552 593.891 37.552C594.733 37.552 595.389 37.8293 595.859 38.384C596.339 38.928 596.579 39.7013 596.579 40.704V46H595.299V40.928C595.299 40.192 595.155 39.6373 594.867 39.264C594.579 38.8907 594.12 38.704 593.491 38.704C593.235 38.704 592.989 38.736 592.755 38.8C592.531 38.864 592.328 38.96 592.147 39.088C591.965 39.216 591.821 39.3813 591.715 39.584C591.608 39.776 591.555 40.0053 591.555 40.272V46H590.275V40.928C590.275 40.192 590.131 39.6373 589.843 39.264C589.555 38.8907 589.107 38.704 588.499 38.704C588.243 38.704 587.997 38.736 587.763 38.8C587.528 38.864 587.32 38.96 587.139 39.088C586.957 39.216 586.808 39.3813 586.691 39.584C586.584 39.776 586.531 40.0053 586.531 40.272V46H585.251ZM602.323 46.192C601.758 46.192 601.246 46.0907 600.787 45.888C600.339 45.6853 599.95 45.3973 599.619 45.024C599.299 44.64 599.049 44.1867 598.867 43.664C598.697 43.1307 598.611 42.5333 598.611 41.872C598.611 41.2213 598.697 40.6293 598.867 40.096C599.049 39.5627 599.299 39.1093 599.619 38.736C599.95 38.352 600.339 38.0587 600.787 37.856C601.246 37.6533 601.758 37.552 602.323 37.552C602.878 37.552 603.374 37.6533 603.811 37.856C604.249 38.0587 604.622 38.3413 604.931 38.704C605.241 39.056 605.475 39.4773 605.635 39.968C605.806 40.4587 605.891 40.9973 605.891 41.584V42.192H599.955V42.576C599.955 42.928 600.009 43.2587 600.115 43.568C600.233 43.8667 600.393 44.128 600.595 44.352C600.809 44.576 601.065 44.752 601.363 44.88C601.673 45.008 602.019 45.072 602.403 45.072C602.926 45.072 603.379 44.9493 603.763 44.704C604.158 44.4587 604.462 44.1067 604.675 43.648L605.587 44.304C605.321 44.8693 604.905 45.328 604.339 45.68C603.774 46.0213 603.102 46.192 602.323 46.192ZM602.323 38.624C601.971 38.624 601.651 38.688 601.363 38.816C601.075 38.9333 600.825 39.104 600.611 39.328C600.409 39.552 600.249 39.8187 600.131 40.128C600.014 40.4267 599.955 40.7573 599.955 41.12V41.232H604.515V41.056C604.515 40.32 604.313 39.7333 603.907 39.296C603.513 38.848 602.985 38.624 602.323 38.624ZM613.281 44.656H613.217C612.715 45.68 611.91 46.192 610.801 46.192C610.289 46.192 609.825 46.0907 609.409 45.888C608.993 45.6853 608.635 45.3973 608.337 45.024C608.049 44.6507 607.825 44.1973 607.665 43.664C607.515 43.1307 607.441 42.5333 607.441 41.872C607.441 41.2107 607.515 40.6133 607.665 40.08C607.825 39.5467 608.049 39.0933 608.337 38.72C608.635 38.3467 608.993 38.0587 609.409 37.856C609.825 37.6533 610.289 37.552 610.801 37.552C611.377 37.552 611.867 37.68 612.273 37.936C612.689 38.1813 613.003 38.5653 613.217 39.088H613.281V34.16H614.561V46H613.281V44.656ZM611.153 45.04C611.441 45.04 611.713 45.0027 611.969 44.928C612.235 44.8533 612.465 44.7467 612.657 44.608C612.849 44.4587 612.998 44.2827 613.105 44.08C613.222 43.8667 613.281 43.6267 613.281 43.36V40.288C613.281 40.064 613.222 39.856 613.105 39.664C612.998 39.4613 612.849 39.2907 612.657 39.152C612.465 39.0133 612.235 38.9067 611.969 38.832C611.713 38.7467 611.441 38.704 611.153 38.704C610.427 38.704 609.857 38.9333 609.441 39.392C609.025 39.84 608.817 40.432 608.817 41.168V42.576C608.817 43.312 609.025 43.9093 609.441 44.368C609.857 44.816 610.427 45.04 611.153 45.04ZM617.922 35.808C617.645 35.808 617.442 35.744 617.314 35.616C617.197 35.4773 617.138 35.3013 617.138 35.088V34.88C617.138 34.6667 617.197 34.496 617.314 34.368C617.442 34.2293 617.645 34.16 617.922 34.16C618.199 34.16 618.397 34.2293 618.514 34.368C618.642 34.496 618.706 34.6667 618.706 34.88V35.088C618.706 35.3013 618.642 35.4773 618.514 35.616C618.397 35.744 618.199 35.808 617.922 35.808ZM617.282 37.744H618.562V46H617.282V37.744ZM627.282 46C626.802 46 626.455 45.872 626.242 45.616C626.039 45.36 625.911 45.04 625.858 44.656H625.778C625.597 45.168 625.298 45.552 624.882 45.808C624.466 46.064 623.97 46.192 623.394 46.192C622.519 46.192 621.837 45.968 621.346 45.52C620.866 45.072 620.626 44.464 620.626 43.696C620.626 42.9173 620.909 42.32 621.474 41.904C622.05 41.488 622.941 41.28 624.146 41.28H625.778V40.464C625.778 39.8773 625.618 39.4293 625.298 39.12C624.978 38.8107 624.487 38.656 623.826 38.656C623.325 38.656 622.903 38.768 622.562 38.992C622.231 39.216 621.954 39.5147 621.73 39.888L620.962 39.168C621.186 38.72 621.543 38.3413 622.034 38.032C622.525 37.712 623.143 37.552 623.89 37.552C624.893 37.552 625.671 37.7973 626.226 38.288C626.781 38.7787 627.058 39.4613 627.058 40.336V44.88H628.002V46H627.282ZM623.602 45.104C623.922 45.104 624.215 45.0667 624.482 44.992C624.749 44.9173 624.978 44.8107 625.17 44.672C625.362 44.5333 625.511 44.3733 625.618 44.192C625.725 44.0107 625.778 43.8133 625.778 43.6V42.24H624.082C623.346 42.24 622.807 42.3467 622.466 42.56C622.135 42.7733 621.97 43.0827 621.97 43.488V43.824C621.97 44.2293 622.114 44.544 622.402 44.768C622.701 44.992 623.101 45.104 623.602 45.104ZM636.73 46.192C636.175 46.192 635.669 46.0907 635.21 45.888C634.751 45.6853 634.357 45.3973 634.026 45.024C633.706 44.64 633.455 44.1867 633.274 43.664C633.093 43.1307 633.002 42.5333 633.002 41.872C633.002 41.2213 633.093 40.6293 633.274 40.096C633.455 39.5627 633.706 39.1093 634.026 38.736C634.357 38.352 634.751 38.0587 635.21 37.856C635.669 37.6533 636.175 37.552 636.73 37.552C637.285 37.552 637.786 37.6533 638.234 37.856C638.693 38.0587 639.087 38.352 639.418 38.736C639.749 39.1093 640.005 39.5627 640.186 40.096C640.367 40.6293 640.458 41.2213 640.458 41.872C640.458 42.5333 640.367 43.1307 640.186 43.664C640.005 44.1867 639.749 44.64 639.418 45.024C639.087 45.3973 638.693 45.6853 638.234 45.888C637.786 46.0907 637.285 46.192 636.73 46.192ZM636.73 45.056C637.423 45.056 637.989 44.8427 638.426 44.416C638.863 43.9893 639.082 43.3387 639.082 42.464V41.28C639.082 40.4053 638.863 39.7547 638.426 39.328C637.989 38.9013 637.423 38.688 636.73 38.688C636.037 38.688 635.471 38.9013 635.034 39.328C634.597 39.7547 634.378 40.4053 634.378 41.28V42.464C634.378 43.3387 634.597 43.9893 635.034 44.416C635.471 44.8427 636.037 45.056 636.73 45.056ZM642.563 46V37.744H643.843V39.264H643.923C644.072 38.8693 644.339 38.5173 644.723 38.208C645.107 37.8987 645.635 37.744 646.307 37.744H646.803V39.024H646.051C645.358 39.024 644.814 39.1573 644.419 39.424C644.035 39.68 643.843 40.0053 643.843 40.4V46H642.563ZM289.464 72.192C288.899 72.192 288.387 72.0907 287.928 71.888C287.48 71.6853 287.091 71.3973 286.76 71.024C286.44 70.64 286.189 70.1867 286.008 69.664C285.837 69.1307 285.752 68.5333 285.752 67.872C285.752 67.2213 285.837 66.6293 286.008 66.096C286.189 65.5627 286.44 65.1093 286.76 64.736C287.091 64.352 287.48 64.0587 287.928 63.856C288.387 63.6533 288.899 63.552 289.464 63.552C290.019 63.552 290.515 63.6533 290.952 63.856C291.389 64.0587 291.763 64.3413 292.072 64.704C292.381 65.056 292.616 65.4773 292.776 65.968C292.947 66.4587 293.032 66.9973 293.032 67.584V68.192H287.096V68.576C287.096 68.928 287.149 69.2587 287.256 69.568C287.373 69.8667 287.533 70.128 287.736 70.352C287.949 70.576 288.205 70.752 288.504 70.88C288.813 71.008 289.16 71.072 289.544 71.072C290.067 71.072 290.52 70.9493 290.904 70.704C291.299 70.4587 291.603 70.1067 291.816 69.648L292.728 70.304C292.461 70.8693 292.045 71.328 291.48 71.68C290.915 72.0213 290.243 72.192 289.464 72.192ZM289.464 64.624C289.112 64.624 288.792 64.688 288.504 64.816C288.216 64.9333 287.965 65.104 287.752 65.328C287.549 65.552 287.389 65.8187 287.272 66.128C287.155 66.4267 287.096 66.7573 287.096 67.12V67.232H291.656V67.056C291.656 66.32 291.453 65.7333 291.048 65.296C290.653 64.848 290.125 64.624 289.464 64.624ZM295.141 72V63.744H296.421V65.088H296.485C296.581 64.8747 296.688 64.6773 296.805 64.496C296.933 64.304 297.083 64.1387 297.253 64C297.435 63.8613 297.643 63.7547 297.877 63.68C298.112 63.5947 298.389 63.552 298.709 63.552C299.253 63.552 299.755 63.6853 300.213 63.952C300.672 64.208 301.013 64.6347 301.237 65.232H301.269C301.419 64.784 301.696 64.3947 302.101 64.064C302.517 63.7227 303.077 63.552 303.781 63.552C304.624 63.552 305.28 63.8293 305.749 64.384C306.229 64.928 306.469 65.7013 306.469 66.704V72H305.189V66.928C305.189 66.192 305.045 65.6373 304.757 65.264C304.469 64.8907 304.011 64.704 303.381 64.704C303.125 64.704 302.88 64.736 302.645 64.8C302.421 64.864 302.219 64.96 302.037 65.088C301.856 65.216 301.712 65.3813 301.605 65.584C301.499 65.776 301.445 66.0053 301.445 66.272V72H300.165V66.928C300.165 66.192 300.021 65.6373 299.733 65.264C299.445 64.8907 298.997 64.704 298.389 64.704C298.133 64.704 297.888 64.736 297.653 64.8C297.419 64.864 297.211 64.96 297.029 65.088C296.848 65.216 296.699 65.3813 296.581 65.584C296.475 65.776 296.421 66.0053 296.421 66.272V72H295.141ZM315.11 72C314.63 72 314.283 71.872 314.07 71.616C313.867 71.36 313.739 71.04 313.686 70.656H313.606C313.425 71.168 313.126 71.552 312.71 71.808C312.294 72.064 311.798 72.192 311.222 72.192C310.347 72.192 309.665 71.968 309.174 71.52C308.694 71.072 308.454 70.464 308.454 69.696C308.454 68.9173 308.737 68.32 309.302 67.904C309.878 67.488 310.769 67.28 311.974 67.28H313.606V66.464C313.606 65.8773 313.446 65.4293 313.126 65.12C312.806 64.8107 312.315 64.656 311.654 64.656C311.153 64.656 310.731 64.768 310.39 64.992C310.059 65.216 309.782 65.5147 309.558 65.888L308.79 65.168C309.014 64.72 309.371 64.3413 309.862 64.032C310.353 63.712 310.971 63.552 311.718 63.552C312.721 63.552 313.499 63.7973 314.054 64.288C314.609 64.7787 314.886 65.4613 314.886 66.336V70.88H315.83V72H315.11ZM311.43 71.104C311.75 71.104 312.043 71.0667 312.31 70.992C312.577 70.9173 312.806 70.8107 312.998 70.672C313.19 70.5333 313.339 70.3733 313.446 70.192C313.553 70.0107 313.606 69.8133 313.606 69.6V68.24H311.91C311.174 68.24 310.635 68.3467 310.294 68.56C309.963 68.7733 309.798 69.0827 309.798 69.488V69.824C309.798 70.2293 309.942 70.544 310.23 70.768C310.529 70.992 310.929 71.104 311.43 71.104ZM318.297 61.808C318.02 61.808 317.817 61.744 317.689 61.616C317.572 61.4773 317.513 61.3013 317.513 61.088V60.88C317.513 60.6667 317.572 60.496 317.689 60.368C317.817 60.2293 318.02 60.16 318.297 60.16C318.574 60.16 318.772 60.2293 318.889 60.368C319.017 60.496 319.081 60.6667 319.081 60.88V61.088C319.081 61.3013 319.017 61.4773 318.889 61.616C318.772 61.744 318.574 61.808 318.297 61.808ZM317.657 63.744H318.937V72H317.657V63.744ZM323.017 72C322.569 72 322.228 71.8773 321.993 71.632C321.769 71.376 321.657 71.056 321.657 70.672V60.16H322.937V70.88H324.153V72H323.017ZM334.886 70.656H334.822C334.736 70.848 334.63 71.04 334.502 71.232C334.384 71.4133 334.235 71.5787 334.054 71.728C333.872 71.8667 333.654 71.9787 333.398 72.064C333.142 72.1493 332.843 72.192 332.502 72.192C331.648 72.192 330.971 71.92 330.47 71.376C329.968 70.8213 329.718 70.0427 329.718 69.04V63.744H330.998V68.816C330.998 70.2987 331.627 71.04 332.886 71.04C333.142 71.04 333.387 71.008 333.622 70.944C333.867 70.88 334.08 70.784 334.262 70.656C334.454 70.528 334.603 70.368 334.71 70.176C334.827 69.9733 334.886 69.7333 334.886 69.456V63.744H336.166V72H334.886V70.656ZM341.371 72.192C340.603 72.192 339.958 72.048 339.435 71.76C338.923 71.4613 338.481 71.0667 338.107 70.576L339.019 69.84C339.339 70.2453 339.697 70.56 340.091 70.784C340.486 70.9973 340.945 71.104 341.467 71.104C342.011 71.104 342.433 70.9867 342.731 70.752C343.041 70.5173 343.195 70.1867 343.195 69.76C343.195 69.44 343.089 69.168 342.875 68.944C342.673 68.7093 342.299 68.5493 341.755 68.464L341.099 68.368C340.715 68.3147 340.363 68.2347 340.043 68.128C339.723 68.0107 339.441 67.8613 339.195 67.68C338.961 67.488 338.774 67.2533 338.635 66.976C338.507 66.6987 338.443 66.368 338.443 65.984C338.443 65.5787 338.518 65.2267 338.667 64.928C338.817 64.6187 339.019 64.3627 339.275 64.16C339.542 63.9573 339.857 63.808 340.219 63.712C340.582 63.6053 340.971 63.552 341.387 63.552C342.059 63.552 342.619 63.6693 343.067 63.904C343.526 64.1387 343.926 64.464 344.267 64.88L343.419 65.648C343.238 65.392 342.971 65.1627 342.619 64.96C342.267 64.7467 341.825 64.64 341.291 64.64C340.758 64.64 340.353 64.7573 340.075 64.992C339.809 65.216 339.675 65.5253 339.675 65.92C339.675 66.3253 339.809 66.6187 340.075 66.8C340.353 66.9813 340.747 67.1147 341.259 67.2L341.899 67.296C342.817 67.4347 343.467 67.7013 343.851 68.096C344.235 68.48 344.427 68.9867 344.427 69.616C344.427 70.416 344.155 71.0453 343.611 71.504C343.067 71.9627 342.321 72.192 341.371 72.192ZM356.469 72C355.989 72 355.643 71.872 355.429 71.616C355.227 71.36 355.099 71.04 355.045 70.656H354.965C354.784 71.168 354.485 71.552 354.069 71.808C353.653 72.064 353.157 72.192 352.581 72.192C351.707 72.192 351.024 71.968 350.533 71.52C350.053 71.072 349.813 70.464 349.813 69.696C349.813 68.9173 350.096 68.32 350.661 67.904C351.237 67.488 352.128 67.28 353.333 67.28H354.965V66.464C354.965 65.8773 354.805 65.4293 354.485 65.12C354.165 64.8107 353.675 64.656 353.013 64.656C352.512 64.656 352.091 64.768 351.749 64.992C351.419 65.216 351.141 65.5147 350.917 65.888L350.149 65.168C350.373 64.72 350.731 64.3413 351.221 64.032C351.712 63.712 352.331 63.552 353.077 63.552C354.08 63.552 354.859 63.7973 355.413 64.288C355.968 64.7787 356.245 65.4613 356.245 66.336V70.88H357.189V72H356.469ZM352.789 71.104C353.109 71.104 353.403 71.0667 353.669 70.992C353.936 70.9173 354.165 70.8107 354.357 70.672C354.549 70.5333 354.699 70.3733 354.805 70.192C354.912 70.0107 354.965 69.8133 354.965 69.6V68.24H353.269C352.533 68.24 351.995 68.3467 351.653 68.56C351.323 68.7733 351.157 69.0827 351.157 69.488V69.824C351.157 70.2293 351.301 70.544 351.589 70.768C351.888 70.992 352.288 71.104 352.789 71.104ZM360.84 72C360.392 72 360.051 71.8773 359.816 71.632C359.592 71.376 359.48 71.0453 359.48 70.64V64.864H358.12V63.744H358.888C359.166 63.744 359.352 63.6907 359.448 63.584C359.555 63.4667 359.608 63.2693 359.608 62.992V61.456H360.76V63.744H362.568V64.864H360.76V70.88H362.44V72H360.84ZM371.655 72.192C371.015 72.192 370.444 72.0907 369.943 71.888C369.442 71.6747 369.015 71.3813 368.663 71.008C368.322 70.624 368.06 70.16 367.879 69.616C367.708 69.072 367.623 68.464 367.623 67.792C367.623 67.1307 367.708 66.5333 367.879 66C368.05 65.456 368.3 64.992 368.631 64.608C368.972 64.224 369.388 63.9307 369.879 63.728C370.37 63.5147 370.93 63.408 371.559 63.408C372.252 63.408 372.844 63.5253 373.335 63.76C373.836 63.9947 374.242 64.3093 374.551 64.704C374.871 65.0987 375.1 65.5573 375.239 66.08C375.388 66.592 375.463 67.1307 375.463 67.696V68.4H370.071V68.528C370.071 69.0827 370.22 69.5253 370.519 69.856C370.818 70.176 371.287 70.336 371.927 70.336C372.418 70.336 372.818 70.24 373.127 70.048C373.436 69.8453 373.724 69.6053 373.991 69.328L375.175 70.8C374.802 71.2373 374.311 71.5787 373.703 71.824C373.106 72.0693 372.423 72.192 371.655 72.192ZM371.607 65.152C371.127 65.152 370.748 65.312 370.471 65.632C370.204 65.9413 370.071 66.3573 370.071 66.88V67.008H373.015V66.864C373.015 66.352 372.898 65.9413 372.663 65.632C372.439 65.312 372.087 65.152 371.607 65.152ZM382.287 70.592H382.207C382.143 70.816 382.042 71.0293 381.903 71.232C381.765 71.424 381.594 71.5947 381.391 71.744C381.199 71.8827 380.975 71.9893 380.719 72.064C380.474 72.1493 380.218 72.192 379.951 72.192C378.885 72.192 378.079 71.8187 377.535 71.072C376.991 70.3147 376.719 69.2213 376.719 67.792C376.719 66.3627 376.991 65.2747 377.535 64.528C378.079 63.7813 378.885 63.408 379.951 63.408C380.495 63.408 380.975 63.5573 381.391 63.856C381.818 64.1547 382.09 64.5387 382.207 65.008H382.287V63.6H384.655V75.2H382.287V70.592ZM380.735 70.272C381.183 70.272 381.551 70.1653 381.839 69.952C382.138 69.728 382.287 69.424 382.287 69.04V66.56C382.287 66.176 382.138 65.8773 381.839 65.664C381.551 65.44 381.183 65.328 380.735 65.328C380.287 65.328 379.914 65.488 379.615 65.808C379.327 66.1173 379.183 66.5387 379.183 67.072V68.528C379.183 69.0613 379.327 69.488 379.615 69.808C379.914 70.1173 380.287 70.272 380.735 70.272ZM391.83 70.592H391.75C391.675 70.8053 391.574 71.008 391.446 71.2C391.328 71.392 391.174 71.5627 390.982 71.712C390.79 71.8613 390.56 71.9787 390.294 72.064C390.038 72.1493 389.739 72.192 389.398 72.192C388.534 72.192 387.878 71.9093 387.43 71.344C386.992 70.768 386.774 69.9467 386.774 68.88V63.6H389.142V68.672C389.142 69.184 389.232 69.5787 389.414 69.856C389.595 70.1333 389.904 70.272 390.342 70.272C390.523 70.272 390.704 70.2453 390.886 70.192C391.067 70.1387 391.227 70.064 391.366 69.968C391.504 69.8613 391.616 69.7333 391.702 69.584C391.787 69.4347 391.83 69.2587 391.83 69.056V63.6H394.198V72H391.83V70.592ZM402.609 72C402.182 72 401.825 71.8667 401.537 71.6C401.26 71.3333 401.084 70.976 401.009 70.528H400.913C400.785 71.072 400.502 71.488 400.065 71.776C399.628 72.0533 399.089 72.192 398.449 72.192C397.606 72.192 396.961 71.968 396.513 71.52C396.065 71.072 395.841 70.48 395.841 69.744C395.841 68.8587 396.161 68.2027 396.801 67.776C397.452 67.3387 398.332 67.12 399.441 67.12H400.769V66.592C400.769 66.1867 400.662 65.8667 400.449 65.632C400.236 65.3867 399.878 65.264 399.377 65.264C398.908 65.264 398.534 65.3653 398.257 65.568C397.98 65.7707 397.75 66 397.569 66.256L396.161 65.008C396.502 64.5067 396.929 64.1173 397.441 63.84C397.964 63.552 398.668 63.408 399.553 63.408C400.748 63.408 401.644 63.6693 402.241 64.192C402.838 64.7147 403.137 65.4773 403.137 66.48V70.16H403.921V72H402.609ZM399.329 70.544C399.724 70.544 400.06 70.4587 400.337 70.288C400.625 70.1173 400.769 69.84 400.769 69.456V68.464H399.617C398.689 68.464 398.225 68.7787 398.225 69.408V69.648C398.225 69.9573 398.321 70.1867 398.513 70.336C398.705 70.4747 398.977 70.544 399.329 70.544ZM407.862 72C407.052 72 406.454 71.8027 406.07 71.408C405.697 71.0133 405.51 70.4427 405.51 69.696V60.16H407.878V70.16H408.934V72H407.862ZM411.538 62.704C411.058 62.704 410.706 62.5973 410.482 62.384C410.269 62.16 410.162 61.8773 410.162 61.536V61.184C410.162 60.8427 410.269 60.5653 410.482 60.352C410.706 60.128 411.058 60.016 411.538 60.016C412.018 60.016 412.365 60.128 412.578 60.352C412.802 60.5653 412.914 60.8427 412.914 61.184V61.536C412.914 61.8773 412.802 62.16 412.578 62.384C412.365 62.5973 412.018 62.704 411.538 62.704ZM410.354 63.6H412.722V72H410.354V63.6ZM414.452 72V70.128L418.628 65.44H414.596V63.6H421.38V65.456L417.188 70.16H421.492V72H414.452ZM426.717 72.192C426.077 72.192 425.507 72.0907 425.005 71.888C424.504 71.6747 424.077 71.3813 423.725 71.008C423.384 70.624 423.123 70.16 422.941 69.616C422.771 69.072 422.685 68.464 422.685 67.792C422.685 67.1307 422.771 66.5333 422.941 66C423.112 65.456 423.363 64.992 423.693 64.608C424.035 64.224 424.451 63.9307 424.941 63.728C425.432 63.5147 425.992 63.408 426.621 63.408C427.315 63.408 427.907 63.5253 428.397 63.76C428.899 63.9947 429.304 64.3093 429.613 64.704C429.933 65.0987 430.163 65.5573 430.301 66.08C430.451 66.592 430.525 67.1307 430.525 67.696V68.4H425.133V68.528C425.133 69.0827 425.283 69.5253 425.581 69.856C425.88 70.176 426.349 70.336 426.989 70.336C427.48 70.336 427.88 70.24 428.189 70.048C428.499 69.8453 428.787 69.6053 429.053 69.328L430.237 70.8C429.864 71.2373 429.373 71.5787 428.765 71.824C428.168 72.0693 427.485 72.192 426.717 72.192ZM426.669 65.152C426.189 65.152 425.811 65.312 425.533 65.632C425.267 65.9413 425.133 66.3573 425.133 66.88V67.008H428.077V66.864C428.077 66.352 427.96 65.9413 427.725 65.632C427.501 65.312 427.149 65.152 426.669 65.152ZM432.198 72V63.6H434.566V65.424H434.646C434.688 65.1893 434.763 64.9653 434.87 64.752C434.976 64.528 435.115 64.3307 435.286 64.16C435.467 63.9893 435.68 63.856 435.926 63.76C436.171 63.6533 436.459 63.6 436.79 63.6H437.206V65.808H436.614C435.92 65.808 435.403 65.8987 435.062 66.08C434.731 66.2613 434.566 66.5973 434.566 67.088V72H432.198ZM448.315 73.936H444.955C443.941 73.936 443.035 73.776 442.235 73.456C441.445 73.136 440.773 72.6827 440.219 72.096C439.675 71.52 439.259 70.832 438.971 70.032C438.683 69.2213 438.539 68.3253 438.539 67.344C438.539 66.3733 438.688 65.4773 438.987 64.656C439.285 63.8347 439.712 63.1307 440.267 62.544C440.821 61.9467 441.493 61.4827 442.283 61.152C443.072 60.8213 443.963 60.656 444.955 60.656C445.872 60.656 446.709 60.8 447.467 61.088C448.224 61.3653 448.869 61.7653 449.403 62.288C449.947 62.8 450.363 63.4293 450.651 64.176C450.949 64.912 451.099 65.7333 451.099 66.64C451.099 67.92 450.827 68.9173 450.283 69.632C449.749 70.336 449.024 70.688 448.107 70.688C447.531 70.688 447.061 70.5493 446.699 70.272C446.336 69.9947 446.139 69.632 446.107 69.184H446.027C445.92 69.632 445.717 69.9893 445.419 70.256C445.131 70.5227 444.72 70.656 444.187 70.656C443.483 70.656 442.896 70.3787 442.427 69.824C441.957 69.2587 441.723 68.432 441.723 67.344C441.723 66.256 441.957 65.4347 442.427 64.88C442.896 64.3147 443.483 64.032 444.187 64.032C444.635 64.032 444.997 64.1547 445.275 64.4C445.552 64.6347 445.739 64.928 445.835 65.28H445.915V64.176H447.691V68.48C447.691 69.0133 447.925 69.28 448.395 69.28C448.757 69.28 449.051 69.088 449.275 68.704C449.499 68.3093 449.611 67.7013 449.611 66.88V66.432C449.611 65.7493 449.493 65.136 449.259 64.592C449.035 64.048 448.715 63.5893 448.299 63.216C447.893 62.8427 447.403 62.5547 446.827 62.352C446.261 62.1493 445.637 62.048 444.955 62.048C444.197 62.048 443.515 62.1707 442.907 62.416C442.309 62.6613 441.792 63.008 441.355 63.456C440.928 63.8933 440.597 64.4213 440.363 65.04C440.139 65.648 440.027 66.3147 440.027 67.04V67.648C440.027 68.3733 440.139 69.04 440.363 69.648C440.597 70.2453 440.928 70.7573 441.355 71.184C441.792 71.6107 442.309 71.9413 442.907 72.176C443.515 72.4107 444.197 72.528 444.955 72.528H448.315V73.936ZM444.843 69.2C445.12 69.2 445.365 69.0987 445.579 68.896C445.803 68.6827 445.915 68.4533 445.915 68.208V66.352C445.915 66.1067 445.803 65.904 445.579 65.744C445.365 65.5733 445.12 65.488 444.843 65.488C444.459 65.488 444.149 65.6107 443.915 65.856C443.691 66.1013 443.579 66.416 443.579 66.8V67.888C443.579 68.272 443.691 68.5867 443.915 68.832C444.149 69.0773 444.459 69.2 444.843 69.2ZM456.624 72.192C455.984 72.192 455.413 72.0907 454.912 71.888C454.41 71.6747 453.984 71.3813 453.632 71.008C453.29 70.624 453.029 70.16 452.848 69.616C452.677 69.072 452.592 68.464 452.592 67.792C452.592 67.1307 452.677 66.5333 452.848 66C453.018 65.456 453.269 64.992 453.6 64.608C453.941 64.224 454.357 63.9307 454.848 63.728C455.338 63.5147 455.898 63.408 456.528 63.408C457.221 63.408 457.813 63.5253 458.304 63.76C458.805 63.9947 459.21 64.3093 459.52 64.704C459.84 65.0987 460.069 65.5573 460.208 66.08C460.357 66.592 460.432 67.1307 460.432 67.696V68.4H455.04V68.528C455.04 69.0827 455.189 69.5253 455.488 69.856C455.786 70.176 456.256 70.336 456.896 70.336C457.386 70.336 457.786 70.24 458.096 70.048C458.405 69.8453 458.693 69.6053 458.96 69.328L460.144 70.8C459.77 71.2373 459.28 71.5787 458.672 71.824C458.074 72.0693 457.392 72.192 456.624 72.192ZM456.576 65.152C456.096 65.152 455.717 65.312 455.44 65.632C455.173 65.9413 455.04 66.3573 455.04 66.88V67.008H457.984V66.864C457.984 66.352 457.866 65.9413 457.632 65.632C457.408 65.312 457.056 65.152 456.576 65.152ZM461.288 72L464.056 67.728L461.32 63.6H464.008L465.576 66.24H465.64L467.16 63.6H469.656L466.872 67.808L469.672 72H466.984L465.368 69.264H465.304L463.752 72H461.288ZM477.265 72C476.838 72 476.481 71.8667 476.193 71.6C475.916 71.3333 475.74 70.976 475.665 70.528H475.569C475.441 71.072 475.158 71.488 474.721 71.776C474.284 72.0533 473.745 72.192 473.105 72.192C472.262 72.192 471.617 71.968 471.169 71.52C470.721 71.072 470.497 70.48 470.497 69.744C470.497 68.8587 470.817 68.2027 471.457 67.776C472.108 67.3387 472.988 67.12 474.097 67.12H475.425V66.592C475.425 66.1867 475.318 65.8667 475.105 65.632C474.892 65.3867 474.534 65.264 474.033 65.264C473.564 65.264 473.19 65.3653 472.913 65.568C472.636 65.7707 472.406 66 472.225 66.256L470.817 65.008C471.158 64.5067 471.585 64.1173 472.097 63.84C472.62 63.552 473.324 63.408 474.209 63.408C475.404 63.408 476.3 63.6693 476.897 64.192C477.494 64.7147 477.793 65.4773 477.793 66.48V70.16H478.577V72H477.265ZM473.985 70.544C474.38 70.544 474.716 70.4587 474.993 70.288C475.281 70.1173 475.425 69.84 475.425 69.456V68.464H474.273C473.345 68.464 472.881 68.7787 472.881 69.408V69.648C472.881 69.9573 472.977 70.1867 473.169 70.336C473.361 70.4747 473.633 70.544 473.985 70.544ZM480.167 72V63.6H482.535V65.024H482.631C482.78 64.576 483.036 64.1973 483.399 63.888C483.761 63.568 484.257 63.408 484.887 63.408C485.463 63.408 485.953 63.552 486.359 63.84C486.764 64.128 487.057 64.5493 487.239 65.104H487.286C487.361 64.8693 487.473 64.6507 487.623 64.448C487.783 64.2347 487.975 64.0533 488.199 63.904C488.423 63.7547 488.673 63.6373 488.951 63.552C489.228 63.456 489.527 63.408 489.847 63.408C490.657 63.408 491.276 63.696 491.703 64.272C492.14 64.848 492.359 65.6693 492.359 66.736V72H489.991V66.928C489.991 65.8613 489.607 65.328 488.839 65.328C488.487 65.328 488.167 65.4293 487.878 65.632C487.591 65.8347 487.447 66.144 487.447 66.56V72H485.079V66.928C485.079 65.8613 484.695 65.328 483.927 65.328C483.756 65.328 483.585 65.3547 483.415 65.408C483.255 65.4507 483.105 65.5253 482.967 65.632C482.839 65.7387 482.732 65.872 482.647 66.032C482.572 66.1813 482.535 66.3573 482.535 66.56V72H480.167ZM494.463 63.6H496.831V65.008H496.911C497.029 64.5387 497.295 64.1547 497.711 63.856C498.138 63.5573 498.623 63.408 499.167 63.408C500.234 63.408 501.039 63.7813 501.583 64.528C502.127 65.2747 502.399 66.3627 502.399 67.792C502.399 69.2213 502.127 70.3147 501.583 71.072C501.039 71.8187 500.234 72.192 499.167 72.192C498.89 72.192 498.629 72.1493 498.383 72.064C498.138 71.9893 497.914 71.8827 497.711 71.744C497.519 71.5947 497.354 71.424 497.215 71.232C497.077 71.0293 496.975 70.816 496.911 70.592H496.831V75.2H494.463V63.6ZM498.383 70.272C498.831 70.272 499.199 70.1173 499.487 69.808C499.786 69.488 499.935 69.0613 499.935 68.528V67.072C499.935 66.5387 499.786 66.1173 499.487 65.808C499.199 65.488 498.831 65.328 498.383 65.328C497.935 65.328 497.562 65.44 497.263 65.664C496.975 65.8773 496.831 66.176 496.831 66.56V69.04C496.831 69.424 496.975 69.728 497.263 69.952C497.562 70.1653 497.935 70.272 498.383 70.272ZM506.55 72C505.739 72 505.142 71.8027 504.758 71.408C504.384 71.0133 504.198 70.4427 504.198 69.696V60.16H506.566V70.16H507.622V72H506.55ZM512.546 72.192C511.906 72.192 511.335 72.0907 510.834 71.888C510.332 71.6747 509.906 71.3813 509.554 71.008C509.212 70.624 508.951 70.16 508.77 69.616C508.599 69.072 508.514 68.464 508.514 67.792C508.514 67.1307 508.599 66.5333 508.77 66C508.94 65.456 509.191 64.992 509.522 64.608C509.863 64.224 510.279 63.9307 510.77 63.728C511.26 63.5147 511.82 63.408 512.45 63.408C513.143 63.408 513.735 63.5253 514.226 63.76C514.727 63.9947 515.132 64.3093 515.442 64.704C515.762 65.0987 515.991 65.5573 516.13 66.08C516.279 66.592 516.354 67.1307 516.354 67.696V68.4H510.962V68.528C510.962 69.0827 511.111 69.5253 511.41 69.856C511.708 70.176 512.178 70.336 512.818 70.336C513.308 70.336 513.708 70.24 514.018 70.048C514.327 69.8453 514.615 69.6053 514.882 69.328L516.066 70.8C515.692 71.2373 515.202 71.5787 514.594 71.824C513.996 72.0693 513.314 72.192 512.546 72.192ZM512.498 65.152C512.018 65.152 511.639 65.312 511.362 65.632C511.095 65.9413 510.962 66.3573 510.962 66.88V67.008H513.906V66.864C513.906 66.352 513.788 65.9413 513.554 65.632C513.33 65.312 512.978 65.152 512.498 65.152ZM519.402 72.176C518.922 72.176 518.565 72.0587 518.33 71.824C518.106 71.5787 517.994 71.2693 517.994 70.896V70.576C517.994 70.2027 518.106 69.8987 518.33 69.664C518.565 69.4187 518.922 69.296 519.402 69.296C519.882 69.296 520.234 69.4187 520.458 69.664C520.693 69.8987 520.81 70.2027 520.81 70.576V70.896C520.81 71.2693 520.693 71.5787 520.458 71.824C520.234 72.0587 519.882 72.176 519.402 72.176ZM526.371 72.192C525.742 72.192 525.182 72.0907 524.691 71.888C524.2 71.6747 523.79 71.3813 523.459 71.008C523.128 70.624 522.878 70.16 522.707 69.616C522.536 69.072 522.451 68.464 522.451 67.792C522.451 67.12 522.536 66.5173 522.707 65.984C522.878 65.44 523.128 64.976 523.459 64.592C523.79 64.208 524.2 63.9147 524.691 63.712C525.182 63.5093 525.742 63.408 526.371 63.408C527.224 63.408 527.934 63.6 528.499 63.984C529.075 64.368 529.486 64.9067 529.731 65.6L527.811 66.432C527.736 66.112 527.582 65.84 527.347 65.616C527.112 65.392 526.787 65.28 526.371 65.28C525.891 65.28 525.528 65.44 525.283 65.76C525.038 66.0693 524.915 66.4907 524.915 67.024V68.592C524.915 69.1253 525.038 69.5467 525.283 69.856C525.528 70.1653 525.891 70.32 526.371 70.32C526.798 70.32 527.134 70.208 527.379 69.984C527.635 69.7493 527.822 69.4453 527.939 69.072L529.779 69.872C529.502 70.672 529.07 71.2587 528.483 71.632C527.907 72.0053 527.203 72.192 526.371 72.192ZM534.653 72.192C534.034 72.192 533.479 72.0907 532.989 71.888C532.509 71.6853 532.098 71.392 531.757 71.008C531.426 70.624 531.17 70.16 530.989 69.616C530.807 69.072 530.717 68.464 530.717 67.792C530.717 67.12 530.807 66.512 530.989 65.968C531.17 65.424 531.426 64.9653 531.757 64.592C532.098 64.208 532.509 63.9147 532.989 63.712C533.479 63.5093 534.034 63.408 534.653 63.408C535.271 63.408 535.821 63.5093 536.301 63.712C536.791 63.9147 537.202 64.208 537.533 64.592C537.874 64.9653 538.135 65.424 538.317 65.968C538.498 66.512 538.589 67.12 538.589 67.792C538.589 68.464 538.498 69.072 538.317 69.616C538.135 70.16 537.874 70.624 537.533 71.008C537.202 71.392 536.791 71.6853 536.301 71.888C535.821 72.0907 535.271 72.192 534.653 72.192ZM534.653 70.32C535.122 70.32 535.485 70.176 535.741 69.888C535.997 69.6 536.125 69.1893 536.125 68.656V66.944C536.125 66.4107 535.997 66 535.741 65.712C535.485 65.424 535.122 65.28 534.653 65.28C534.183 65.28 533.821 65.424 533.565 65.712C533.309 66 533.181 66.4107 533.181 66.944V68.656C533.181 69.1893 533.309 69.6 533.565 69.888C533.821 70.176 534.183 70.32 534.653 70.32ZM540.276 72V63.6H542.644V65.024H542.74C542.889 64.576 543.145 64.1973 543.508 63.888C543.871 63.568 544.367 63.408 544.996 63.408C545.572 63.408 546.063 63.552 546.468 63.84C546.873 64.128 547.167 64.5493 547.348 65.104H547.396C547.471 64.8693 547.583 64.6507 547.732 64.448C547.892 64.2347 548.084 64.0533 548.308 63.904C548.532 63.7547 548.783 63.6373 549.06 63.552C549.337 63.456 549.636 63.408 549.956 63.408C550.767 63.408 551.385 63.696 551.812 64.272C552.249 64.848 552.468 65.6693 552.468 66.736V72H550.1V66.928C550.1 65.8613 549.716 65.328 548.948 65.328C548.596 65.328 548.276 65.4293 547.988 65.632C547.7 65.8347 547.556 66.144 547.556 66.56V72H545.188V66.928C545.188 65.8613 544.804 65.328 544.036 65.328C543.865 65.328 543.695 65.3547 543.524 65.408C543.364 65.4507 543.215 65.5253 543.076 65.632C542.948 65.7387 542.841 65.872 542.756 66.032C542.681 66.1813 542.644 66.3573 542.644 66.56V72H540.276Z" fill="#191826"/>
<path d="M1028.9 29H1011.1C1010.49 29 1010 29.4942 1010 30.1042V47.8967C1010 48.5058 1010.49 49 1011.1 49H1020.68V41.255H1018.08V38.2367H1020.68V36.0108C1020.68 33.4275 1022.26 32.0208 1024.57 32.0208C1025.67 32.0208 1026.62 32.1033 1026.9 32.14V34.84L1025.3 34.8408C1024.04 34.8408 1023.8 35.4367 1023.8 36.31V38.2375H1026.79L1026.4 41.2558H1023.8V49H1028.9C1029.51 49 1030 48.5058 1030 47.8958V30.1042C1030 29.4942 1029.51 29 1028.9 29Z" fill="#FA7453"/>
<path fill-rule="evenodd" clip-rule="evenodd" d="M1060 29C1057.28 29 1056.94 29.0117 1055.88 29.06C1052.25 29.2267 1050.23 31.2417 1050.06 34.8767C1050.01 35.9442 1050 36.2842 1050 39C1050 41.7158 1050.01 42.0567 1050.06 43.1233C1050.23 46.755 1052.24 48.7733 1055.88 48.94C1056.94 48.9883 1057.28 49 1060 49C1062.72 49 1063.06 48.9883 1064.12 48.94C1067.75 48.7733 1069.77 46.7583 1069.94 43.1233C1069.99 42.0567 1070 41.7158 1070 39C1070 36.2842 1069.99 35.9442 1069.94 34.8775C1069.78 31.2492 1067.76 29.2275 1064.12 29.0608C1063.06 29.0117 1062.72 29 1060 29ZM1060 30.8025C1062.67 30.8025 1062.99 30.8125 1064.04 30.8608C1066.75 30.9842 1068.02 32.27 1068.14 34.96C1068.19 36.0142 1068.2 36.3308 1068.2 39.0008C1068.2 41.6717 1068.19 41.9875 1068.14 43.0417C1068.02 45.7292 1066.75 47.0175 1064.04 47.1408C1062.99 47.1892 1062.67 47.1992 1060 47.1992C1057.33 47.1992 1057.01 47.1892 1055.96 47.1408C1053.24 47.0167 1051.98 45.725 1051.86 43.0408C1051.81 41.9867 1051.8 41.6708 1051.8 39C1051.8 36.33 1051.81 36.0142 1051.86 34.9592C1051.98 32.27 1053.25 30.9833 1055.96 30.86C1057.01 30.8125 1057.33 30.8025 1060 30.8025ZM1054.86 39C1054.86 36.1642 1057.16 33.865 1060 33.865C1062.84 33.865 1065.14 36.1642 1065.14 39C1065.14 41.8367 1062.84 44.1358 1060 44.1358C1057.16 44.1358 1054.86 41.8358 1054.86 39ZM1060 42.3333C1058.16 42.3333 1056.67 40.8417 1056.67 39C1056.67 37.1592 1058.16 35.6667 1060 35.6667C1061.84 35.6667 1063.33 37.1592 1063.33 39C1063.33 40.8417 1061.84 42.3333 1060 42.3333ZM1064.14 33.6625C1064.14 33 1064.68 32.4625 1065.34 32.4625C1066 32.4625 1066.54 33 1066.54 33.6625C1066.54 34.325 1066 34.8625 1065.34 34.8625C1064.68 34.8625 1064.14 34.325 1064.14 33.6625Z" fill="#191826"/>
<path d="M1110 33.1722C1109.26 33.4988 1108.47 33.7188 1107.64 33.818C1108.49 33.3105 1109.14 32.5063 1109.45 31.548C1108.66 32.018 1107.78 32.3597 1106.84 32.5438C1106.09 31.7463 1105.03 31.248 1103.85 31.248C1101.2 31.248 1099.25 33.7197 1099.85 36.2855C1096.44 36.1147 1093.42 34.4813 1091.39 31.9988C1090.32 33.843 1090.83 36.2555 1092.66 37.4772C1091.99 37.4555 1091.36 37.2713 1090.8 36.9638C1090.76 38.8647 1092.12 40.643 1094.09 41.0388C1093.52 41.1955 1092.88 41.2322 1092.24 41.1088C1092.76 42.7388 1094.28 43.9247 1096.07 43.958C1094.35 45.3105 1092.18 45.9147 1090 45.658C1091.82 46.8222 1093.97 47.5013 1096.29 47.5013C1103.91 47.5013 1108.21 41.0672 1107.95 35.2963C1108.75 34.7172 1109.45 33.9947 1110 33.1722Z" fill="#191826"/>
</g>
<defs>
<clipPath id="clip0_0_140">
<rect width="1110" height="79" fill="white"/>
</clipPath>
</defs>
</svg>
